<?xml version="1.0" encoding="UTF-8" standalone="no"?>
<!-- Created with Inkscape (http://www.inkscape.org/) -->

<svg
   xmlns:dc="http://purl.org/dc/elements/1.1/"
   xmlns:cc="http://creativecommons.org/ns#"
   xmlns:rdf="http://www.w3.org/1999/02/22-rdf-syntax-ns#"
   xmlns:svg="http://www.w3.org/2000/svg"
   xmlns="http://www.w3.org/2000/svg"
   xmlns:sodipodi="http://sodipodi.sourceforge.net/DTD/sodipodi-0.dtd"
   xmlns:inkscape="http://www.inkscape.org/namespaces/inkscape"
   width="210mm"
   height="297mm"
   viewBox="0 0 210 297"
   version="1.1"
   id="svg8"
   inkscape:version="0.92.1 r15371"
   sodipodi:docname="circle-t.svg">
  <defs
     id="defs2" />
  <sodipodi:namedview
     id="base"
     pagecolor="#ffffff"
     bordercolor="#666666"
     borderopacity="1.0"
     inkscape:pageopacity="0.0"
     inkscape:pageshadow="2"
     inkscape:zoom="0.49045141"
     inkscape:cx="-212.02528"
     inkscape:cy="427.79774"
     inkscape:document-units="mm"
     inkscape:current-layer="layer1"
     showgrid="false"
     inkscape:window-width="1366"
     inkscape:window-height="715"
     inkscape:window-x="-8"
     inkscape:window-y="-8"
     inkscape:window-maximized="1" />
  <metadata
     id="metadata5">
    <rdf:RDF>
      <cc:Work
         rdf:about="">
        <dc:format>image/svg+xml</dc:format>
        <dc:type
           rdf:resource="http://purl.org/dc/dcmitype/StillImage" />
        <dc:title />
      </cc:Work>
    </rdf:RDF>
  </metadata>
  <g
     inkscape:label="Layer 1"
     inkscape:groupmode="layer"
     id="layer1">
    <circle
       style="opacity:1;vector-effect:none;fill:none;fill-opacity:1;stroke:#000000;stroke-width:0.5;stroke-linecap:butt;stroke-linejoin:miter;stroke-miterlimit:10.43299961;stroke-dasharray:none;stroke-dashoffset:0;stroke-opacity:1"
       id="path10"
       cx="105"
       cy="148.5"
       r="37.849998" />
    <g
       aria-label="T"
       transform="scale(1.0002565,0.9997436)"
       style="font-style:normal;font-variant:normal;font-weight:normal;font-stretch:normal;font-size:13.66284084px;line-height:125%;font-family:'Bauhaus 93';-inkscape-font-specification:'Bauhaus 93, ';font-variant-ligatures:normal;font-variant-position:normal;font-variant-caps:normal;font-variant-numeric:normal;font-variant-alternates:normal;text-indent:0;text-align:center;text-decoration:none;text-decoration-line:none;text-decoration-style:solid;text-decoration-color:#000000;letter-spacing:0px;word-spacing:0px;text-transform:none;writing-mode:lr-tb;direction:ltr;text-orientation:mixed;dominant-baseline:auto;baseline-shift:baseline;text-anchor:middle;white-space:normal;shape-padding:0;opacity:1;vector-effect:none;fill:none;fill-opacity:1;stroke:#000000;stroke-width:0.26458332px;stroke-linecap:butt;stroke-linejoin:miter;stroke-miterlimit:4;stroke-dasharray:none;stroke-dashoffset:0;stroke-opacity:1"
       id="text14">
      <path
         d="m 119.51937,131.77545 q 0,0.90088 -0.0932,1.55324 -0.0621,0.62129 -0.21745,1.02513 -0.15532,0.37278 -0.40384,0.55917 -0.21746,0.18639 -0.49704,0.18639 h -10.06496 v 32.40049 q 0,0.31064 -0.21746,0.55916 -0.18638,0.24852 -0.65235,0.40384 -0.46597,0.15532 -1.27366,0.24852 -0.77662,0.0932 -1.95707,0.0932 -1.18046,0 -1.98815,-0.0932 -0.77661,-0.0932 -1.24258,-0.24852 -0.46597,-0.15532 -0.68343,-0.40384 -0.18639,-0.24852 -0.18639,-0.55916 V 135.09938 H 89.97683 q -0.310647,0 -0.5281,-0.18639 -0.217453,-0.18639 -0.372776,-0.55917 -0.155324,-0.40384 -0.248518,-1.02513 -0.06213,-0.65236 -0.06213,-1.55324 0,-0.93194 0.06213,-1.5843 0.09319,-0.65236 0.248518,-1.02513 0.155323,-0.40384 0.372776,-0.55917 0.217453,-0.18638 0.5281,-0.18638 h 28.33101 q 0.27958,0 0.49704,0.18638 0.24852,0.15533 0.40384,0.55917 0.15532,0.37277 0.21745,1.02513 0.0932,0.65236 0.0932,1.5843 z"
         style="font-style:normal;font-variant:normal;font-weight:bold;font-stretch:normal;font-size:63.62051773px;font-family:Calibri;-inkscape-font-specification:Calibri;fill:none;stroke:#000000;stroke-width:0.26458332px"
         id="path3699" />
    </g>
  </g>
</svg>
