<?xml version="1.0" encoding="UTF-8" standalone="no"?>
<!-- Created with Inkscape (http://www.inkscape.org/) -->

<svg
   xmlns:dc="http://purl.org/dc/elements/1.1/"
   xmlns:cc="http://creativecommons.org/ns#"
   xmlns:rdf="http://www.w3.org/1999/02/22-rdf-syntax-ns#"
   xmlns:svg="http://www.w3.org/2000/svg"
   xmlns="http://www.w3.org/2000/svg"
   xmlns:sodipodi="http://sodipodi.sourceforge.net/DTD/sodipodi-0.dtd"
   xmlns:inkscape="http://www.inkscape.org/namespaces/inkscape"
   width="210mm"
   height="297mm"
   viewBox="0 0 210 297"
   version="1.1"
   id="svg8"
   inkscape:version="0.92.1 r15371"
   sodipodi:docname="circle-c.svg">
  <defs
     id="defs2" />
  <sodipodi:namedview
     id="base"
     pagecolor="#ffffff"
     bordercolor="#666666"
     borderopacity="1.0"
     inkscape:pageopacity="0.0"
     inkscape:pageshadow="2"
     inkscape:zoom="0.49045141"
     inkscape:cx="70.367631"
     inkscape:cy="427.79774"
     inkscape:document-units="mm"
     inkscape:current-layer="layer1"
     showgrid="false"
     inkscape:window-width="1366"
     inkscape:window-height="715"
     inkscape:window-x="-8"
     inkscape:window-y="-8"
     inkscape:window-maximized="1" />
  <metadata
     id="metadata5">
    <rdf:RDF>
      <cc:Work
         rdf:about="">
        <dc:format>image/svg+xml</dc:format>
        <dc:type
           rdf:resource="http://purl.org/dc/dcmitype/StillImage" />
        <dc:title />
      </cc:Work>
    </rdf:RDF>
  </metadata>
  <g
     inkscape:label="Layer 1"
     inkscape:groupmode="layer"
     id="layer1">
    <circle
       style="opacity:1;vector-effect:none;fill:none;fill-opacity:1;stroke:#000000;stroke-width:0.5;stroke-linecap:butt;stroke-linejoin:miter;stroke-miterlimit:10.43299961;stroke-dasharray:none;stroke-dashoffset:0;stroke-opacity:1"
       id="path10"
       cx="105"
       cy="148.5"
       r="37.849998" />
    <g
       aria-label="C"
       transform="scale(1.0003156,0.99968445)"
       style="font-style:normal;font-variant:normal;font-weight:normal;font-stretch:normal;font-size:13.66304588px;line-height:125%;font-family:'Bauhaus 93';-inkscape-font-specification:'Bauhaus 93, ';font-variant-ligatures:normal;font-variant-position:normal;font-variant-caps:normal;font-variant-numeric:normal;font-variant-alternates:normal;text-indent:0;text-align:center;text-decoration:none;text-decoration-line:none;text-decoration-style:solid;text-decoration-color:#000000;letter-spacing:0px;word-spacing:0px;text-transform:none;writing-mode:lr-tb;direction:ltr;text-orientation:mixed;dominant-baseline:auto;baseline-shift:baseline;text-anchor:middle;white-space:normal;shape-padding:0;opacity:1;vector-effect:none;fill:none;fill-opacity:1;stroke:#000000;stroke-width:0.26458332px;stroke-linecap:butt;stroke-linejoin:miter;stroke-miterlimit:4;stroke-dasharray:none;stroke-dashoffset:0;stroke-opacity:1"
       id="text14">
      <path
         d="m 119.41001,162.55727 q 0,0.77663 -0.0621,1.3358 -0.0311,0.52811 -0.12426,0.93196 -0.0932,0.37278 -0.24853,0.65236 -0.15532,0.27959 -0.49704,0.65237 -0.34172,0.34172 -1.3358,0.90089 -0.96302,0.55918 -2.39202,1.08728 -1.39793,0.49705 -3.23078,0.83876 -1.80178,0.34172 -3.91421,0.34172 -4.13167,0 -7.45564,-1.27367 -3.323973,-1.27367 -5.653861,-3.78995 -2.329887,-2.54735 -3.572494,-6.3373 -1.242607,-3.78995 -1.242607,-8.82251 0,-5.12575 1.366867,-9.10209 1.366868,-3.97634 3.821016,-6.67901 2.454149,-2.70267 5.871319,-4.10061 3.44823,-1.39793 7.5799,-1.39793 1.67752,0 3.23078,0.27959 1.55326,0.27958 2.85799,0.74556 1.33581,0.43491 2.39202,1.02515 1.05622,0.59024 1.46007,1.02515 0.43491,0.40385 0.59023,0.68344 0.15533,0.27958 0.24853,0.7145 0.0932,0.43491 0.12426,1.02515 0.0621,0.59023 0.0621,1.46006 0,0.93195 -0.0621,1.58432 -0.0621,0.65237 -0.21746,1.05622 -0.15533,0.40385 -0.37278,0.59024 -0.21746,0.18639 -0.49705,0.18639 -0.46597,0 -1.18047,-0.52811 -0.7145,-0.55917 -1.86391,-1.21154 -1.11835,-0.68343 -2.70267,-1.21154 -1.55326,-0.55918 -3.72782,-0.55918 -2.39202,0 -4.287,0.99409 -1.86391,0.96302 -3.19971,2.79587 -1.304736,1.80178 -1.98817,4.38018 -0.683433,2.57841 -0.683433,5.80919 0,3.54143 0.714498,6.15091 0.745565,2.5784 2.081365,4.25592 1.36687,1.67752 3.26185,2.51628 1.92604,0.8077 4.31805,0.8077 2.17457,0 3.75889,-0.49705 1.58432,-0.5281 2.70267,-1.14941 1.14941,-0.6213 1.86391,-1.11834 0.74556,-0.49705 1.14941,-0.49705 0.31065,0 0.49704,0.12426 0.18639,0.12427 0.31066,0.49705 0.12426,0.37278 0.18639,1.05621 0.0621,0.65237 0.0621,1.77072 z"
         style="font-style:normal;font-variant:normal;font-weight:bold;font-stretch:normal;font-size:63.62147141px;font-family:Calibri;-inkscape-font-specification:Calibri;fill:none;stroke:#000000;stroke-width:0.26458332px"
         id="path3688" />
    </g>
  </g>
</svg>
