<?xml version="1.0" encoding="UTF-8" standalone="no"?>
<!-- Created with Inkscape (http://www.inkscape.org/) -->

<svg
   xmlns:dc="http://purl.org/dc/elements/1.1/"
   xmlns:cc="http://creativecommons.org/ns#"
   xmlns:rdf="http://www.w3.org/1999/02/22-rdf-syntax-ns#"
   xmlns:svg="http://www.w3.org/2000/svg"
   xmlns="http://www.w3.org/2000/svg"
   xmlns:sodipodi="http://sodipodi.sourceforge.net/DTD/sodipodi-0.dtd"
   xmlns:inkscape="http://www.inkscape.org/namespaces/inkscape"
   width="210mm"
   height="297mm"
   viewBox="0 0 210 297"
   version="1.1"
   id="svg8"
   inkscape:version="0.92.1 r15371"
   sodipodi:docname="circle-a.svg">
  <defs
     id="defs2" />
  <sodipodi:namedview
     id="base"
     pagecolor="#ffffff"
     bordercolor="#666666"
     borderopacity="1.0"
     inkscape:pageopacity="0.0"
     inkscape:pageshadow="2"
     inkscape:zoom="0.5"
     inkscape:cx="-212.02528"
     inkscape:cy="427.79774"
     inkscape:document-units="mm"
     inkscape:current-layer="layer1"
     showgrid="false"
     inkscape:window-width="1366"
     inkscape:window-height="715"
     inkscape:window-x="-8"
     inkscape:window-y="-8"
     inkscape:window-maximized="1" />
  <metadata
     id="metadata5">
    <rdf:RDF>
      <cc:Work
         rdf:about="">
        <dc:format>image/svg+xml</dc:format>
        <dc:type
           rdf:resource="http://purl.org/dc/dcmitype/StillImage" />
        <dc:title />
      </cc:Work>
    </rdf:RDF>
  </metadata>
  <g
     inkscape:label="Layer 1"
     inkscape:groupmode="layer"
     id="layer1">
    <circle
       style="opacity:1;vector-effect:none;fill:none;fill-opacity:1;stroke:#000000;stroke-width:0.5;stroke-linecap:butt;stroke-linejoin:miter;stroke-miterlimit:10.43299961;stroke-dasharray:none;stroke-dashoffset:0;stroke-opacity:1"
       id="path10"
       cx="105"
       cy="148.5"
       r="37.849998" />
    <g
       aria-label="A"
       transform="scale(1.0000785,0.99992154)"
       style="font-style:normal;font-variant:normal;font-weight:normal;font-stretch:normal;font-size:13.66030693px;line-height:125%;font-family:'Bauhaus 93';-inkscape-font-specification:'Bauhaus 93, ';font-variant-ligatures:normal;font-variant-position:normal;font-variant-caps:normal;font-variant-numeric:normal;font-variant-alternates:normal;text-indent:0;text-align:center;text-decoration:none;text-decoration-line:none;text-decoration-style:solid;text-decoration-color:#000000;letter-spacing:0px;word-spacing:0px;text-transform:none;writing-mode:lr-tb;direction:ltr;text-orientation:mixed;dominant-baseline:auto;baseline-shift:baseline;text-anchor:middle;white-space:normal;shape-padding:0;opacity:1;vector-effect:none;fill:none;fill-opacity:1;stroke:#000000;stroke-width:0.26458332px;stroke-linecap:butt;stroke-linejoin:miter;stroke-miterlimit:4;stroke-dasharray:none;stroke-dashoffset:0;stroke-opacity:1"
       id="text14">
      <path
         d="m 122.22482,165.56302 q 0.37271,1.11812 0.46588,1.77036 0.0932,0.65224 -0.24847,0.99389 -0.34165,0.31059 -1.2113,0.3727 -0.86965,0.0932 -2.39154,0.0932 -1.584,0 -2.48471,-0.0621 -0.86965,-0.0311 -1.33554,-0.15529 -0.46588,-0.1553 -0.65223,-0.40377 -0.18636,-0.24847 -0.31059,-0.65224 l -2.70213,-8.07532 H 96.259542 l -2.546833,7.85791 q -0.124236,0.43483 -0.341649,0.74542 -0.186353,0.27953 -0.652238,0.46588 -0.434825,0.15529 -1.273416,0.21741 -0.807533,0.0621 -2.143067,0.0621 -1.428712,0 -2.236245,-0.0932 -0.807532,-0.0932 -1.118122,-0.43482 -0.310589,-0.37271 -0.217412,-1.02495 0.09318,-0.65224 0.465884,-1.7393 l 12.392519,-35.65567 q 0.186354,-0.528 0.434825,-0.83859 0.248472,-0.34165 0.776474,-0.49694 0.559058,-0.18636 1.521888,-0.21741 0.96283,-0.0621 2.54683,-0.0621 1.83248,0 2.91954,0.0621 1.08707,0.031 1.67719,0.21741 0.62118,0.15529 0.86965,0.49694 0.27953,0.34165 0.46588,0.93177 z m -18.44901,-29.47494 h -0.0311 l -5.683789,17.08242 h 11.398629 z"
         style="font-style:normal;font-variant:normal;font-weight:bold;font-stretch:normal;font-size:63.60871887px;font-family:Calibri;-inkscape-font-specification:Calibri;fill:none;stroke:#000000;stroke-width:0.26458332px"
         id="path3710" />
    </g>
  </g>
</svg>
