<?xml version="1.0" encoding="UTF-8" standalone="no"?>
<!-- Created with Inkscape (http://www.inkscape.org/) -->

<svg
   xmlns:dc="http://purl.org/dc/elements/1.1/"
   xmlns:cc="http://creativecommons.org/ns#"
   xmlns:rdf="http://www.w3.org/1999/02/22-rdf-syntax-ns#"
   xmlns:svg="http://www.w3.org/2000/svg"
   xmlns="http://www.w3.org/2000/svg"
   xmlns:sodipodi="http://sodipodi.sourceforge.net/DTD/sodipodi-0.dtd"
   xmlns:inkscape="http://www.inkscape.org/namespaces/inkscape"
   id="svg4136"
   version="1.1"
   inkscape:version="0.91 r13725"
   xml:space="preserve"
   width="1000"
   height="750"
   viewBox="0 0 1000 750"
   sodipodi:docname="idic.svg"><metadata
     id="metadata4142"><rdf:RDF><cc:Work
         rdf:about=""><dc:format>image/svg+xml</dc:format><dc:type
           rdf:resource="http://purl.org/dc/dcmitype/StillImage" /><dc:title /></cc:Work></rdf:RDF></metadata><defs
     id="defs4140"><clipPath
       clipPathUnits="userSpaceOnUse"
       id="clipPath4150"><path
         d="m 0,14400 14400,0 L 14400,0 0,0 0,14400 Z"
         id="path4152"
         inkscape:connector-curvature="0" /></clipPath></defs><sodipodi:namedview
     pagecolor="#ffffff"
     bordercolor="#666666"
     borderopacity="1"
     objecttolerance="10"
     gridtolerance="10"
     guidetolerance="10"
     inkscape:pageopacity="0"
     inkscape:pageshadow="2"
     inkscape:window-width="1600"
     inkscape:window-height="847"
     id="namedview4138"
     showgrid="false"
     inkscape:zoom="1.4401473"
     inkscape:cx="582.28739"
     inkscape:cy="361.29445"
     inkscape:window-x="-4"
     inkscape:window-y="-4"
     inkscape:window-maximized="1"
     inkscape:current-layer="g4144"
     inkscape:object-paths="true" /><g
     id="g4144"
     inkscape:groupmode="layer"
     inkscape:label="idic"
     transform="matrix(1.25,0,0,-1.25,-8500.625,9374.375)"><g
       id="g4154"
       transform="matrix(0.79970024,-0.60039948,0.60039948,0.79970024,7385.684,7286.866)"
       style="stroke:#ff0000;fill:none" /><g
       id="g4158"
       transform="matrix(0.79970024,-0.60039948,0.60039948,0.79970024,7318.206,7305.2452)"
       style="stroke:#ff0000;fill:none" /><g
       id="g4162"
       transform="matrix(0.79970024,-0.60039948,0.60039948,0.79970024,7239.1677,7264.6239)"
       style="stroke:#ff0000;fill:none" /><g
       id="g4166"
       transform="matrix(0.79970024,-0.60039948,0.60039948,0.79970024,7337.6382,7037.762)"
       style="stroke:#ff0000;fill:none" /><path
       style="opacity:1;fill:none;fill-opacity:0.91387556;stroke:#ff0000;stroke-width:0.24000001;stroke-linecap:butt;stroke-miterlimit:4;stroke-dasharray:none;stroke-dashoffset:0;stroke-opacity:1"
       d="m 7385.684,7286.866 c 30.719,-78.3056 -0.7806,-165.6562 -70.6629,-207.4451 2.662,-3.3022 17.0265,-31.0881 22.6165,-41.659 l -221.4603,0.02 23.7237,42.791 c -30.6726,17.7441 -55.8618,46.2766 -70.0325,82.4006 -34.2124,87.2091 8.752,185.6413 95.9618,219.8531 87.2113,34.2121 185.6426,-8.7503 219.8537,-95.961"
       id="path4204"
       inkscape:connector-curvature="0" /><path
       style="fill:none;fill-rule:evenodd;stroke:#000000;stroke-width:0.80000001px;stroke-linecap:butt;stroke-linejoin:miter;stroke-opacity:1"
       d="m 7197.0068,7183.3655 -57.1669,-102.7569"
       id="path4219"
       inkscape:connector-curvature="0"
       sodipodi:nodetypes="cc" /><path
       style="fill:none;fill-rule:evenodd;stroke:#000000;stroke-width:0.80000001px;stroke-linecap:butt;stroke-linejoin:miter;stroke-opacity:1"
       d="m 7259.1821,7183.086 56.0822,-103.5194"
       id="path4221"
       inkscape:connector-curvature="0"
       sodipodi:nodetypes="cc" /><g
       style="stroke:#00ff00;fill:none"
       id="g4157"
       transform="matrix(0.79970024,-0.60039948,0.60039948,0.79970024,-2873.619,5783.3854)"><path
         inkscape:connector-curvature="0"
         id="path4153"
         d="m 7234.1583,7319.8677 c 39.7373,-24.5262 52.0713,-76.6225 28.5436,-116.6539 l -27.7429,13.251 c 2.7782,4.8861 3.0034,8.2825 3.0034,14.1996 0,18.3689 -14.8909,33.2598 -33.2598,33.2598 -18.3689,0 -33.2598,-14.8909 -33.2598,-33.2598 0,-18.3689 14.8909,-33.2598 33.2598,-33.2598 1.5001,0 1.7772,-0.1407 3.2007,0.09 l 5.0784,-31.1743 c -21.9999,-6.0078 -46.5577,-3.3696 -67.6381,9.641 -39.7399,24.5262 -52.073,76.6216 -27.5459,116.3606 24.5253,39.7391 76.6216,52.0713 116.3606,27.546"
         style="opacity:1;fill:none;fill-opacity:0.91387556;stroke:#00ff00;stroke-width:0.20736566;stroke-linecap:butt;stroke-miterlimit:4;stroke-dasharray:none;stroke-dashoffset:0;stroke-opacity:1"
         sodipodi:nodetypes="cccszzsccccc" /><path
         transform="scale(1,-1)"
         style="opacity:1;fill:none;fill-opacity:0.91387556;stroke:#000000;stroke-width:0.20165724;stroke-linecap:butt;stroke-miterlimit:4;stroke-dasharray:none;stroke-dashoffset:0;stroke-opacity:1"
         d="m 7234.8313,-7216.4253 c -4.2305,9.9372 -15.1421,17.9795 -26.8862,18.8357"
         id="path4223"
         inkscape:connector-curvature="0"
         sodipodi:nodetypes="cc" /></g><path
       style="fill:none;fill-rule:evenodd;stroke:#000000;stroke-width:0.80000001px;stroke-linecap:butt;stroke-linejoin:miter;stroke-opacity:1"
       d="m 7228.2843,7206.5871 0,-140.4375 -112.107,-28.3677"
       id="path4173"
       inkscape:connector-curvature="0" /><path
       style="fill:none;fill-rule:evenodd;stroke:#000000;stroke-width:0.80000001px;stroke-linecap:butt;stroke-linejoin:miter;stroke-opacity:1"
       d="m 7228.2843,7066.1496 109.3533,-28.3877"
       id="path4175"
       inkscape:connector-curvature="0" /></g></svg>