<?xml version="1.0" encoding="UTF-8" standalone="no"?>
<!-- Created with Inkscape (http://www.inkscape.org/) -->

<svg
   xmlns:dc="http://purl.org/dc/elements/1.1/"
   xmlns:cc="http://creativecommons.org/ns#"
   xmlns:rdf="http://www.w3.org/1999/02/22-rdf-syntax-ns#"
   xmlns:svg="http://www.w3.org/2000/svg"
   xmlns="http://www.w3.org/2000/svg"
   xmlns:sodipodi="http://sodipodi.sourceforge.net/DTD/sodipodi-0.dtd"
   xmlns:inkscape="http://www.inkscape.org/namespaces/inkscape"
   inkscape:version="0.92.1 r15371"
   sodipodi:docname="pickleballpaddle.svg"
   viewBox="0 0 1056 816"
   height="8.5in"
   width="11in"
   id="svg4495"
   version="1.1">
  <sodipodi:namedview
     inkscape:current-layer="svg4495"
     inkscape:window-maximized="1"
     inkscape:window-y="-8"
     inkscape:window-x="-8"
     inkscape:cy="391.46139"
     inkscape:cx="350.75685"
     inkscape:zoom="0.66579814"
     inkscape:snap-to-guides="true"
     inkscape:guide-bbox="true"
     showguides="true"
     showgrid="false"
     id="namedview4497"
     inkscape:window-height="715"
     inkscape:window-width="1366"
     inkscape:pageshadow="2"
     inkscape:pageopacity="0"
     guidetolerance="10"
     gridtolerance="10"
     objecttolerance="10"
     borderopacity="1"
     bordercolor="#666666"
     pagecolor="#ffffff"
     units="mm"
     inkscape:document-units="in">
    <sodipodi:guide
       inkscape:locked="false"
       id="guide4505"
       orientation="0,1"
       position="2468.1898,2264.2774" />
    <sodipodi:guide
       inkscape:locked="false"
       id="guide4509"
       orientation="0,1"
       position="2518.7815,2760.5965" />
    <sodipodi:guide
       inkscape:locked="false"
       id="guide4511"
       orientation="0,1"
       position="4564.6642,2348.1788" />
    <sodipodi:guide
       inkscape:locked="false"
       id="guide4513"
       orientation="1,0"
       position="4726.0949,2203.7409" />
  </sodipodi:namedview>
  <metadata
     id="metadata4501">
    <rdf:RDF>
      <cc:Work
         rdf:about="">
        <dc:format>image/svg+xml</dc:format>
        <dc:type
           rdf:resource="http://purl.org/dc/dcmitype/StillImage" />
        <dc:title />
      </cc:Work>
    </rdf:RDF>
  </metadata>
  <defs
     id="defs4499" />
  <path
     sodipodi:nodetypes="sscssccccccs"
     inkscape:connector-curvature="0"
     id="path4507"
     d="m 576.79464,54.40469 c -40.231,0 -146.9649,0.1876 -263.0803,0.1876 -130.3103,0 -284.875406,77.1187 -283.427906,359.4563 -1.4475,282.3377 153.117606,359.4577 283.427906,359.4577 116.1154,0 222.8493,0.1863 263.0803,0.1863 215.2707,0 330.2126,-263.2151 414.6948,-277.1172 14.06656,-7.3753 72.09286,-25.79355 72.09286,-25.79355 h 447.569 v -113.4664 h -447.569 c 0,0 -58.0263,-18.41835 -72.09286,-25.79365 -84.4822,-13.9021 -199.4241,-277.1171 -414.6948,-277.1171 z"
     style="fill:none;stroke:#000000;stroke-width:0.71200114px;stroke-linecap:butt;stroke-linejoin:miter;stroke-opacity:1" />
  <text
     id="text5104"
     y="-1228.5442"
     x="253.9335">
    <tspan
       id="tspan5102"
       dy="12"
       style="font-style:normal;font-weight:normal;font-size:12px;text-align:center;text-anchor:start;fill:#000000;fill-opacity:1;stroke:none"
       sodipodi:role="line"
       x="253.9335"
       y="-1228.5442">68.90 in<tspan
   id="tspan5100"
   style="font-size:64.99999762%;baseline-shift:super">2</tspan>
</tspan>
  </text>
  <path
     style="fill:#d3d3d3;stroke:#000000;stroke-width:1.88976383"
     d="m 307.34994,85.95009 -5.6192,0.5546 -5.4023,1.6368 -4.9766,2.6601 -4.3652,3.584 -3.584,4.3652 -2.6601,4.9786 -1.6407,5.4043 -0.5527,5.6152 0.5527,5.6211 1.6407,5.4004 2.6601,4.9824 3.584,4.3613 4.3652,3.5821 4.9766,2.6621 5.4023,1.6386 5.6192,0.5528 5.6211,-0.5528 5.4004,-1.6386 4.9765,-2.6621 4.3653,-3.5821 3.5839,-4.3613 2.6602,-4.9824 1.6406,-5.4004 0.5528,-5.6211 -0.5528,-5.6152 -1.6406,-5.4043 -2.6602,-4.9786 -3.5839,-4.3652 -4.3653,-3.584 -4.9765,-2.6601 -5.4004,-1.6368 z"
     id="path4644" />
  <path
     style="fill:#d3d3d3;stroke:#000000;stroke-width:1.88976383"
     d="m 393.75034,85.95009 -5.6211,0.5546 -5.4004,1.6368 -4.9785,2.6601 -4.3653,3.584 -3.582,4.3652 -2.6602,4.9786 -1.6406,5.4043 -0.5527,5.6152 0.5527,5.6211 1.6406,5.4004 2.6602,4.9824 3.582,4.3613 4.3653,3.5821 4.9785,2.6621 5.4004,1.6386 5.6211,0.5528 5.6191,-0.5528 5.4023,-1.6386 4.9766,-2.6621 4.3652,-3.5821 3.584,-4.3613 2.6602,-4.9824 1.6406,-5.4004 0.5508,-5.6211 -0.5508,-5.6152 -1.6406,-5.4043 -2.6602,-4.9786 -3.584,-4.3652 -4.3652,-3.584 -4.9766,-2.6601 -5.4023,-1.6368 z"
     id="path4642" />
  <path
     style="fill:#d3d3d3;stroke:#000000;stroke-width:1.88976383"
     d="m 480.15074,85.95009 -5.6211,0.5546 -5.4004,1.6368 -4.9785,2.6601 -4.3653,3.584 -3.582,4.3652 -2.6621,4.9786 -1.6387,5.4043 -0.5527,5.6152 0.5527,5.6211 1.6387,5.4004 2.6621,4.9824 3.582,4.3613 4.3653,3.5821 4.9785,2.6621 5.4004,1.6386 5.6211,0.5528 5.6191,-0.5528 5.4004,-1.6386 4.9785,-2.6621 4.3652,-3.5821 3.584,-4.3613 2.6602,-4.9824 1.6406,-5.4004 0.5508,-5.6211 -0.5508,-5.6152 -1.6406,-5.4043 -2.6602,-4.9786 -3.584,-4.3652 -4.3652,-3.584 -4.9785,-2.6601 -5.4004,-1.6368 z"
     id="path4640" />
  <path
     style="fill:#d3d3d3;stroke:#000000;stroke-width:1.88976383"
     d="m 566.54914,85.95009 -5.6191,0.5546 -5.4004,1.6368 -4.9786,2.6601 -4.3652,3.584 -3.582,4.3652 -2.6621,4.9786 -1.6407,5.4043 -0.5507,5.6152 0.5507,5.6211 1.6407,5.4004 2.6621,4.9824 3.582,4.3613 4.3652,3.5821 4.9786,2.6621 5.4004,1.6386 5.6191,0.5528 5.6211,-0.5528 5.4004,-1.6386 4.9785,-2.6621 4.3652,-3.5821 3.5821,-4.3613 2.6621,-4.9824 1.6406,-5.4004 0.5508,-5.6211 -0.5508,-5.6152 -1.6406,-5.4043 -2.6621,-4.9786 -3.5821,-4.3652 -4.3652,-3.584 -4.9785,-2.6601 -5.4004,-1.6368 z"
     id="path4638" />
  <path
     style="fill:#d3d3d3;stroke:#000000;stroke-width:1.88976383"
     d="m 177.75034,160.77619 -5.6211,0.5528 -5.4004,1.6406 -4.9785,2.6601 -4.3653,3.5801 -3.582,4.3653 -2.6602,4.9804 -1.6406,5.4004 -0.5527,5.6211 0.5527,5.6153 1.6406,5.4062 2.6602,4.9766 3.582,4.3652 4.3653,3.5801 4.9785,2.664 5.4004,1.6368 5.6211,0.5546 5.6191,-0.5546 5.4023,-1.6368 4.9766,-2.664 4.3652,-3.5801 3.584,-4.3652 2.6602,-4.9766 1.6406,-5.4062 0.5508,-5.6153 -0.5508,-5.6211 -1.6406,-5.4004 -2.6602,-4.9804 -3.584,-4.3653 -4.3652,-3.5801 -4.9766,-2.6601 -5.4023,-1.6406 z"
     id="path4636" />
  <path
     style="fill:#d3d3d3;stroke:#000000;stroke-width:1.88976383"
     d="m 264.15074,160.77619 -5.6211,0.5528 -5.4004,1.6406 -4.9785,2.6601 -4.3653,3.5801 -3.582,4.3653 -2.6621,4.9804 -1.6387,5.4004 -0.5527,5.6211 0.5527,5.6153 1.6387,5.4062 2.6621,4.9766 3.582,4.3652 4.3653,3.5801 4.9785,2.664 5.4004,1.6368 5.6211,0.5546 5.6191,-0.5546 5.4004,-1.6368 4.9785,-2.664 4.3652,-3.5801 3.584,-4.3652 2.6602,-4.9766 1.6406,-5.4062 0.5508,-5.6153 -0.5508,-5.6211 -1.6406,-5.4004 -2.6602,-4.9804 -3.584,-4.3653 -4.3652,-3.5801 -4.9785,-2.6601 -5.4004,-1.6406 z"
     id="path4634" />
  <path
     style="fill:#d3d3d3;stroke:#000000;stroke-width:1.88976383"
     d="m 350.54914,160.77619 -5.6191,0.5528 -5.4004,1.6406 -4.9786,2.6601 -4.3652,3.5801 -3.582,4.3653 -2.6621,4.9804 -1.6407,5.4004 -0.5507,5.6211 0.5507,5.6153 1.6407,5.4062 2.6621,4.9766 3.582,4.3652 4.3652,3.5801 4.9786,2.664 5.4004,1.6368 5.6191,0.5546 5.6211,-0.5546 5.4004,-1.6368 4.9785,-2.664 4.3652,-3.5801 3.5821,-4.3652 2.6621,-4.9766 1.6406,-5.4062 0.5508,-5.6153 -0.5508,-5.6211 -1.6406,-5.4004 -2.6621,-4.9804 -3.5821,-4.3653 -4.3652,-3.5801 -4.9785,-2.6601 -5.4004,-1.6406 z"
     id="path4632" />
  <path
     style="fill:#d3d3d3;stroke:#000000;stroke-width:1.88976383"
     d="m 436.94954,160.77619 -5.6192,0.5528 -5.4023,1.6406 -4.9766,2.6601 -4.3652,3.5801 -3.584,4.3653 -2.6601,4.9804 -1.6407,5.4004 -0.5507,5.6211 0.5507,5.6153 1.6407,5.4062 2.6601,4.9766 3.584,4.3652 4.3652,3.5801 4.9766,2.664 5.4023,1.6368 5.6192,0.5546 5.6211,-0.5546 5.4004,-1.6368 4.9785,-2.664 4.3652,-3.5801 3.582,-4.3652 2.6602,-4.9766 1.6406,-5.4062 0.5528,-5.6153 -0.5528,-5.6211 -1.6406,-5.4004 -2.6602,-4.9804 -3.582,-4.3653 -4.3652,-3.5801 -4.9785,-2.6601 -5.4004,-1.6406 z"
     id="path4630" />
  <path
     style="fill:#d3d3d3;stroke:#000000;stroke-width:1.88976383"
     d="m 523.34994,160.77619 -5.6192,0.5528 -5.4023,1.6406 -4.9766,2.6601 -4.3652,3.5801 -3.584,4.3653 -2.6601,4.9804 -1.6407,5.4004 -0.5527,5.6211 0.5527,5.6153 1.6407,5.4062 2.6601,4.9766 3.584,4.3652 4.3652,3.5801 4.9766,2.664 5.4023,1.6368 5.6192,0.5546 5.6211,-0.5546 5.4004,-1.6368 4.9765,-2.664 4.3653,-3.5801 3.5839,-4.3652 2.6602,-4.9766 1.6406,-5.4062 0.5528,-5.6153 -0.5528,-5.6211 -1.6406,-5.4004 -2.6602,-4.9804 -3.5839,-4.3653 -4.3653,-3.5801 -4.9765,-2.6601 -5.4004,-1.6406 z"
     id="path4628" />
  <path
     style="fill:#d3d3d3;stroke:#000000;stroke-width:1.88976383"
     d="m 609.75034,160.77619 -5.6211,0.5528 -5.4004,1.6406 -4.9785,2.6601 -4.3653,3.5801 -3.582,4.3653 -2.6602,4.9804 -1.6406,5.4004 -0.5527,5.6211 0.5527,5.6153 1.6406,5.4062 2.6602,4.9766 3.582,4.3652 4.3653,3.5801 4.9785,2.664 5.4004,1.6368 5.6211,0.5546 5.6191,-0.5546 5.4023,-1.6368 4.9766,-2.664 4.3652,-3.5801 3.584,-4.3652 2.6602,-4.9766 1.6406,-5.4062 0.5508,-5.6153 -0.5508,-5.6211 -1.6406,-5.4004 -2.6602,-4.9804 -3.584,-4.3653 -4.3652,-3.5801 -4.9766,-2.6601 -5.4023,-1.6406 z"
     id="path4626" />
  <path
     style="fill:#d3d3d3;stroke:#000000;stroke-width:1.88976383"
     d="m 696.15074,160.77619 -5.6211,0.5528 -5.4004,1.6406 -4.9785,2.6601 -4.3653,3.5801 -3.582,4.3653 -2.6621,4.9804 -1.6387,5.4004 -0.5527,5.6211 0.5527,5.6153 1.6387,5.4062 2.6621,4.9766 3.582,4.3652 4.3653,3.5801 4.9785,2.664 5.4004,1.6368 5.6211,0.5546 5.6191,-0.5546 5.4004,-1.6368 4.9785,-2.664 4.3652,-3.5801 3.584,-4.3652 2.6602,-4.9766 1.6406,-5.4062 0.5508,-5.6153 -0.5508,-5.6211 -1.6406,-5.4004 -2.6602,-4.9804 -3.584,-4.3653 -4.3652,-3.5801 -4.9785,-2.6601 -5.4004,-1.6406 z"
     id="path4624" />
  <path
     style="fill:#d3d3d3;stroke:#000000;stroke-width:1.88976383"
     d="m 134.54914,235.60049 -5.6191,0.5507 -5.4004,1.6407 -4.9786,2.6621 -4.3652,3.582 -3.582,4.3613 -2.6621,4.9824 -1.6407,5.4004 -0.5507,5.6192 0.5507,5.6211 1.6407,5.4004 2.6621,4.9785 3.582,4.3652 4.3652,3.582 4.9786,2.6622 5.4004,1.6367 5.6191,0.5547 5.6211,-0.5547 5.4004,-1.6367 4.9785,-2.6622 4.3652,-3.582 3.5821,-4.3652 2.6621,-4.9785 1.6386,-5.4004 0.5528,-5.6211 -0.5528,-5.6192 -1.6386,-5.4004 -2.6621,-4.9824 -3.5821,-4.3613 -4.3652,-3.582 -4.9785,-2.6621 -5.4004,-1.6407 z"
     id="path4622" />
  <path
     style="fill:#d3d3d3;stroke:#000000;stroke-width:1.88976383"
     d="m 220.94954,235.60049 -5.6192,0.5507 -5.4023,1.6407 -4.9766,2.6621 -4.3652,3.582 -3.584,4.3613 -2.6601,4.9824 -1.6407,5.4004 -0.5507,5.6192 0.5507,5.6211 1.6407,5.4004 2.6601,4.9785 3.584,4.3652 4.3652,3.582 4.9766,2.6622 5.4023,1.6367 5.6192,0.5547 5.6211,-0.5547 5.4004,-1.6367 4.9785,-2.6622 4.3652,-3.582 3.582,-4.3652 2.6602,-4.9785 1.6406,-5.4004 0.5528,-5.6211 -0.5528,-5.6192 -1.6406,-5.4004 -2.6602,-4.9824 -3.582,-4.3613 -4.3652,-3.582 -4.9785,-2.6621 -5.4004,-1.6407 z"
     id="path4620" />
  <path
     style="fill:#d3d3d3;stroke:#000000;stroke-width:1.88976383"
     d="m 307.34994,235.60049 -5.6192,0.5507 -5.4023,1.6407 -4.9766,2.6621 -4.3652,3.582 -3.584,4.3613 -2.6601,4.9824 -1.6407,5.4004 -0.5527,5.6192 0.5527,5.6211 1.6407,5.4004 2.6601,4.9785 3.584,4.3652 4.3652,3.582 4.9766,2.6622 5.4023,1.6367 5.6192,0.5547 5.6211,-0.5547 5.4004,-1.6367 4.9765,-2.6622 4.3653,-3.582 3.5839,-4.3652 2.6602,-4.9785 1.6406,-5.4004 0.5528,-5.6211 -0.5528,-5.6192 -1.6406,-5.4004 -2.6602,-4.9824 -3.5839,-4.3613 -4.3653,-3.582 -4.9765,-2.6621 -5.4004,-1.6407 z"
     id="path4618" />
  <path
     style="fill:#d3d3d3;stroke:#000000;stroke-width:1.88976383"
     d="m 393.75034,235.60049 -5.6211,0.5507 -5.4004,1.6407 -4.9785,2.6621 -4.3653,3.582 -3.582,4.3613 -2.6602,4.9824 -1.6406,5.4004 -0.5527,5.6192 0.5527,5.6211 1.6406,5.4004 2.6602,4.9785 3.582,4.3652 4.3653,3.582 4.9785,2.6622 5.4004,1.6367 5.6211,0.5547 5.6191,-0.5547 5.4023,-1.6367 4.9766,-2.6622 4.3652,-3.582 3.584,-4.3652 2.6602,-4.9785 1.6406,-5.4004 0.5508,-5.6211 -0.5508,-5.6192 -1.6406,-5.4004 -2.6602,-4.9824 -3.584,-4.3613 -4.3652,-3.582 -4.9766,-2.6621 -5.4023,-1.6407 z"
     id="path4616" />
  <path
     style="fill:#d3d3d3;stroke:#000000;stroke-width:1.88976383"
     d="m 480.15074,235.60049 -5.6211,0.5507 -5.4004,1.6407 -4.9785,2.6621 -4.3653,3.582 -3.582,4.3613 -2.6621,4.9824 -1.6387,5.4004 -0.5527,5.6192 0.5527,5.6211 1.6387,5.4004 2.6621,4.9785 3.582,4.3652 4.3653,3.582 4.9785,2.6622 5.4004,1.6367 5.6211,0.5547 5.6191,-0.5547 5.4004,-1.6367 4.9785,-2.6622 4.3652,-3.582 3.584,-4.3652 2.6602,-4.9785 1.6406,-5.4004 0.5508,-5.6211 -0.5508,-5.6192 -1.6406,-5.4004 -2.6602,-4.9824 -3.584,-4.3613 -4.3652,-3.582 -4.9785,-2.6621 -5.4004,-1.6407 z"
     id="path4614" />
  <path
     style="fill:#d3d3d3;stroke:#000000;stroke-width:1.88976383"
     d="m 566.54914,235.60049 -5.6191,0.5507 -5.4004,1.6407 -4.9786,2.6621 -4.3652,3.582 -3.582,4.3613 -2.6621,4.9824 -1.6407,5.4004 -0.5507,5.6192 0.5507,5.6211 1.6407,5.4004 2.6621,4.9785 3.582,4.3652 4.3652,3.582 4.9786,2.6622 5.4004,1.6367 5.6191,0.5547 5.6211,-0.5547 5.4004,-1.6367 4.9785,-2.6622 4.3652,-3.582 3.5821,-4.3652 2.6621,-4.9785 1.6406,-5.4004 0.5508,-5.6211 -0.5508,-5.6192 -1.6406,-5.4004 -2.6621,-4.9824 -3.5821,-4.3613 -4.3652,-3.582 -4.9785,-2.6621 -5.4004,-1.6407 z"
     id="path4612" />
  <path
     style="fill:#d3d3d3;stroke:#000000;stroke-width:1.88976383"
     d="m 652.94954,235.60049 -5.6192,0.5507 -5.4023,1.6407 -4.9766,2.6621 -4.3652,3.582 -3.584,4.3613 -2.6601,4.9824 -1.6407,5.4004 -0.5507,5.6192 0.5507,5.6211 1.6407,5.4004 2.6601,4.9785 3.584,4.3652 4.3652,3.582 4.9766,2.6622 5.4023,1.6367 5.6192,0.5547 5.6211,-0.5547 5.4004,-1.6367 4.9785,-2.6622 4.3652,-3.582 3.582,-4.3652 2.6602,-4.9785 1.6406,-5.4004 0.5528,-5.6211 -0.5528,-5.6192 -1.6406,-5.4004 -2.6602,-4.9824 -3.582,-4.3613 -4.3652,-3.582 -4.9785,-2.6621 -5.4004,-1.6407 z"
     id="path4610" />
  <path
     style="fill:#d3d3d3;stroke:#000000;stroke-width:1.88976383"
     d="m 739.34994,235.60049 -5.6192,0.5507 -5.4023,1.6407 -4.9766,2.6621 -4.3652,3.582 -3.584,4.3613 -2.6601,4.9824 -1.6407,5.4004 -0.5527,5.6192 0.5527,5.6211 1.6407,5.4004 2.6601,4.9785 3.584,4.3652 4.3652,3.582 4.9766,2.6622 5.4023,1.6367 5.6192,0.5547 5.6211,-0.5547 5.4004,-1.6367 4.9765,-2.6622 4.3653,-3.582 3.5839,-4.3652 2.6602,-4.9785 1.6406,-5.4004 0.5528,-5.6211 -0.5528,-5.6192 -1.6406,-5.4004 -2.6602,-4.9824 -3.5839,-4.3613 -4.3653,-3.582 -4.9765,-2.6621 -5.4004,-1.6407 z"
     id="path4608" />
  <path
     style="fill:#d3d3d3;stroke:#000000;stroke-width:1.88976383"
     d="m 825.75034,235.60049 -5.6211,0.5507 -5.4004,1.6407 -4.9785,2.6621 -4.3653,3.582 -3.582,4.3613 -2.6602,4.9824 -1.6406,5.4004 -0.5527,5.6192 0.5527,5.6211 1.6406,5.4004 2.6602,4.9785 3.582,4.3652 4.3653,3.582 4.9785,2.6622 5.4004,1.6367 5.6211,0.5547 5.6191,-0.5547 5.4023,-1.6367 4.9766,-2.6622 4.3652,-3.582 3.584,-4.3652 2.6602,-4.9785 1.6406,-5.4004 0.5508,-5.6211 -0.5508,-5.6192 -1.6406,-5.4004 -2.6602,-4.9824 -3.584,-4.3613 -4.3652,-3.582 -4.9766,-2.6621 -5.4023,-1.6407 z"
     id="path4606" />
  <path
     style="fill:#d3d3d3;stroke:#000000;stroke-width:1.88976383"
     d="m 91.349934,310.42269 -5.6192,0.5567 -5.4023,1.6367 -4.9766,2.6601 -4.3652,3.584 -3.584,4.3653 -2.6601,4.9765 -1.6407,5.4043 -0.5527,5.6172 0.5527,5.6191 1.6407,5.4024 2.6601,4.9805 3.584,4.3613 4.3652,3.584 4.9766,2.6601 5.4023,1.6406 5.6192,0.5528 5.6211,-0.5528 5.400406,-1.6406 4.9765,-2.6601 4.3653,-3.584 3.5839,-4.3613 2.6602,-4.9805 1.6406,-5.4024 0.5528,-5.6191 -0.5528,-5.6172 -1.6406,-5.4043 -2.6602,-4.9765 -3.5839,-4.3653 -4.3653,-3.584 -4.9765,-2.6601 -5.400406,-1.6367 z"
     id="path4604" />
  <path
     style="fill:#d3d3d3;stroke:#000000;stroke-width:1.88976383"
     d="m 177.75034,310.42269 -5.6211,0.5567 -5.4004,1.6367 -4.9785,2.6601 -4.3653,3.584 -3.582,4.3653 -2.6602,4.9765 -1.6406,5.4043 -0.5527,5.6172 0.5527,5.6191 1.6406,5.4024 2.6602,4.9805 3.582,4.3613 4.3653,3.584 4.9785,2.6601 5.4004,1.6406 5.6211,0.5528 5.6191,-0.5528 5.4023,-1.6406 4.9766,-2.6601 4.3652,-3.584 3.584,-4.3613 2.6602,-4.9805 1.6406,-5.4024 0.5508,-5.6191 -0.5508,-5.6172 -1.6406,-5.4043 -2.6602,-4.9765 -3.584,-4.3653 -4.3652,-3.584 -4.9766,-2.6601 -5.4023,-1.6367 z"
     id="path4602" />
  <path
     style="fill:#d3d3d3;stroke:#000000;stroke-width:1.88976383"
     d="m 264.15074,310.42269 -5.6211,0.5567 -5.4004,1.6367 -4.9785,2.6601 -4.3653,3.584 -3.582,4.3653 -2.6621,4.9765 -1.6387,5.4043 -0.5527,5.6172 0.5527,5.6191 1.6387,5.4024 2.6621,4.9805 3.582,4.3613 4.3653,3.584 4.9785,2.6601 5.4004,1.6406 5.6211,0.5528 5.6191,-0.5528 5.4004,-1.6406 4.9785,-2.6601 4.3652,-3.584 3.584,-4.3613 2.6602,-4.9805 1.6406,-5.4024 0.5508,-5.6191 -0.5508,-5.6172 -1.6406,-5.4043 -2.6602,-4.9765 -3.584,-4.3653 -4.3652,-3.584 -4.9785,-2.6601 -5.4004,-1.6367 z"
     id="path4600" />
  <path
     style="fill:#d3d3d3;stroke:#000000;stroke-width:1.88976383"
     d="m 350.54914,310.42269 -5.6191,0.5567 -5.4004,1.6367 -4.9786,2.6601 -4.3652,3.584 -3.582,4.3653 -2.6621,4.9765 -1.6407,5.4043 -0.5507,5.6172 0.5507,5.6191 1.6407,5.4024 2.6621,4.9805 3.582,4.3613 4.3652,3.584 4.9786,2.6601 5.4004,1.6406 5.6191,0.5528 5.6211,-0.5528 5.4004,-1.6406 4.9785,-2.6601 4.3652,-3.584 3.5821,-4.3613 2.6621,-4.9805 1.6406,-5.4024 0.5508,-5.6191 -0.5508,-5.6172 -1.6406,-5.4043 -2.6621,-4.9765 -3.5821,-4.3653 -4.3652,-3.584 -4.9785,-2.6601 -5.4004,-1.6367 z"
     id="path4598" />
  <path
     style="fill:#d3d3d3;stroke:#000000;stroke-width:1.88976383"
     d="m 436.94954,310.42269 -5.6192,0.5567 -5.4023,1.6367 -4.9766,2.6601 -4.3652,3.584 -3.584,4.3653 -2.6601,4.9765 -1.6407,5.4043 -0.5507,5.6172 0.5507,5.6191 1.6407,5.4024 2.6601,4.9805 3.584,4.3613 4.3652,3.584 4.9766,2.6601 5.4023,1.6406 5.6192,0.5528 5.6211,-0.5528 5.4004,-1.6406 4.9785,-2.6601 4.3652,-3.584 3.582,-4.3613 2.6602,-4.9805 1.6406,-5.4024 0.5528,-5.6191 -0.5528,-5.6172 -1.6406,-5.4043 -2.6602,-4.9765 -3.582,-4.3653 -4.3652,-3.584 -4.9785,-2.6601 -5.4004,-1.6367 z"
     id="path4596" />
  <path
     style="fill:#d3d3d3;stroke:#000000;stroke-width:1.88976383"
     d="m 523.34994,310.42269 -5.6192,0.5567 -5.4023,1.6367 -4.9766,2.6601 -4.3652,3.584 -3.584,4.3653 -2.6601,4.9765 -1.6407,5.4043 -0.5527,5.6172 0.5527,5.6191 1.6407,5.4024 2.6601,4.9805 3.584,4.3613 4.3652,3.584 4.9766,2.6601 5.4023,1.6406 5.6192,0.5528 5.6211,-0.5528 5.4004,-1.6406 4.9765,-2.6601 4.3653,-3.584 3.5839,-4.3613 2.6602,-4.9805 1.6406,-5.4024 0.5528,-5.6191 -0.5528,-5.6172 -1.6406,-5.4043 -2.6602,-4.9765 -3.5839,-4.3653 -4.3653,-3.584 -4.9765,-2.6601 -5.4004,-1.6367 z"
     id="path4594" />
  <path
     style="fill:#d3d3d3;stroke:#000000;stroke-width:1.88976383"
     d="m 609.75034,310.42269 -5.6211,0.5567 -5.4004,1.6367 -4.9785,2.6601 -4.3653,3.584 -3.582,4.3653 -2.6602,4.9765 -1.6406,5.4043 -0.5527,5.6172 0.5527,5.6191 1.6406,5.4024 2.6602,4.9805 3.582,4.3613 4.3653,3.584 4.9785,2.6601 5.4004,1.6406 5.6211,0.5528 5.6191,-0.5528 5.4023,-1.6406 4.9766,-2.6601 4.3652,-3.584 3.584,-4.3613 2.6602,-4.9805 1.6406,-5.4024 0.5508,-5.6191 -0.5508,-5.6172 -1.6406,-5.4043 -2.6602,-4.9765 -3.584,-4.3653 -4.3652,-3.584 -4.9766,-2.6601 -5.4023,-1.6367 z"
     id="path4592" />
  <path
     style="fill:#d3d3d3;stroke:#000000;stroke-width:1.88976383"
     d="m 696.15074,310.42269 -5.6211,0.5567 -5.4004,1.6367 -4.9785,2.6601 -4.3653,3.584 -3.582,4.3653 -2.6621,4.9765 -1.6387,5.4043 -0.5527,5.6172 0.5527,5.6191 1.6387,5.4024 2.6621,4.9805 3.582,4.3613 4.3653,3.584 4.9785,2.6601 5.4004,1.6406 5.6211,0.5528 5.6191,-0.5528 5.4004,-1.6406 4.9785,-2.6601 4.3652,-3.584 3.584,-4.3613 2.6602,-4.9805 1.6406,-5.4024 0.5508,-5.6191 -0.5508,-5.6172 -1.6406,-5.4043 -2.6602,-4.9765 -3.584,-4.3653 -4.3652,-3.584 -4.9785,-2.6601 -5.4004,-1.6367 z"
     id="path4590" />
  <path
     style="fill:#d3d3d3;stroke:#000000;stroke-width:1.88976383"
     d="m 782.54914,310.42269 -5.6191,0.5567 -5.4004,1.6367 -4.9786,2.6601 -4.3652,3.584 -3.582,4.3653 -2.6621,4.9765 -1.6407,5.4043 -0.5507,5.6172 0.5507,5.6191 1.6407,5.4024 2.6621,4.9805 3.582,4.3613 4.3652,3.584 4.9786,2.6601 5.4004,1.6406 5.6191,0.5528 5.6211,-0.5528 5.4004,-1.6406 4.9785,-2.6601 4.3652,-3.584 3.5821,-4.3613 2.6621,-4.9805 1.6406,-5.4024 0.5508,-5.6191 -0.5508,-5.6172 -1.6406,-5.4043 -2.6621,-4.9765 -3.5821,-4.3653 -4.3652,-3.584 -4.9785,-2.6601 -5.4004,-1.6367 z"
     id="path4588" />
  <path
     style="fill:#d3d3d3;stroke:#000000;stroke-width:1.88976383"
     d="m 868.94954,310.42269 -5.6192,0.5567 -5.4023,1.6367 -4.9766,2.6601 -4.3652,3.584 -3.584,4.3653 -2.6601,4.9765 -1.6407,5.4043 -0.5507,5.6172 0.5507,5.6191 1.6407,5.4024 2.6601,4.9805 3.584,4.3613 4.3652,3.584 4.9766,2.6601 5.4023,1.6406 5.6192,0.5528 5.6211,-0.5528 5.4004,-1.6406 4.9785,-2.6601 4.3652,-3.584 3.582,-4.3613 2.6602,-4.9805 1.6406,-5.4024 0.5528,-5.6191 -0.5528,-5.6172 -1.6406,-5.4043 -2.6602,-4.9765 -3.582,-4.3653 -4.3652,-3.584 -4.9785,-2.6601 -5.4004,-1.6367 z"
     id="path4586" />
  <path
     style="fill:#d3d3d3;stroke:#000000;stroke-width:1.88976383"
     d="m 134.54914,385.25079 -5.6191,0.5508 -5.4004,1.6407 -4.9786,2.6621 -4.3652,3.5781 -3.582,4.3652 -2.6621,4.9824 -1.6407,5.4004 -0.5507,5.6192 0.5507,5.6172 1.6407,5.4043 2.6621,4.9785 3.582,4.3652 4.3652,3.5781 4.9786,2.666 5.4004,1.6368 5.6191,0.5547 5.6211,-0.5547 5.4004,-1.6368 4.9785,-2.666 4.3652,-3.5781 3.5821,-4.3652 2.6621,-4.9785 1.6386,-5.4043 0.5528,-5.6172 -0.5528,-5.6192 -1.6386,-5.4004 -2.6621,-4.9824 -3.5821,-4.3652 -4.3652,-3.5781 -4.9785,-2.6621 -5.4004,-1.6407 z"
     id="path4584" />
  <path
     style="fill:#d3d3d3;stroke:#000000;stroke-width:1.88976383"
     d="m 220.94954,385.25079 -5.6192,0.5508 -5.4023,1.6407 -4.9766,2.6621 -4.3652,3.5781 -3.584,4.3652 -2.6601,4.9824 -1.6407,5.4004 -0.5507,5.6192 0.5507,5.6172 1.6407,5.4043 2.6601,4.9785 3.584,4.3652 4.3652,3.5781 4.9766,2.666 5.4023,1.6368 5.6192,0.5547 5.6211,-0.5547 5.4004,-1.6368 4.9785,-2.666 4.3652,-3.5781 3.582,-4.3652 2.6602,-4.9785 1.6406,-5.4043 0.5528,-5.6172 -0.5528,-5.6192 -1.6406,-5.4004 -2.6602,-4.9824 -3.582,-4.3652 -4.3652,-3.5781 -4.9785,-2.6621 -5.4004,-1.6407 z"
     id="path4582" />
  <path
     style="fill:#d3d3d3;stroke:#000000;stroke-width:1.88976383"
     d="m 307.34994,385.25079 -5.6192,0.5508 -5.4023,1.6407 -4.9766,2.6621 -4.3652,3.5781 -3.584,4.3652 -2.6601,4.9824 -1.6407,5.4004 -0.5527,5.6192 0.5527,5.6172 1.6407,5.4043 2.6601,4.9785 3.584,4.3652 4.3652,3.5781 4.9766,2.666 5.4023,1.6368 5.6192,0.5547 5.6211,-0.5547 5.4004,-1.6368 4.9765,-2.666 4.3653,-3.5781 3.5839,-4.3652 2.6602,-4.9785 1.6406,-5.4043 0.5528,-5.6172 -0.5528,-5.6192 -1.6406,-5.4004 -2.6602,-4.9824 -3.5839,-4.3652 -4.3653,-3.5781 -4.9765,-2.6621 -5.4004,-1.6407 z"
     id="path4580" />
  <path
     style="fill:#d3d3d3;stroke:#000000;stroke-width:1.88976383"
     d="m 393.75034,385.25079 -5.6211,0.5508 -5.4004,1.6407 -4.9785,2.6621 -4.3653,3.5781 -3.582,4.3652 -2.6602,4.9824 -1.6406,5.4004 -0.5527,5.6192 0.5527,5.6172 1.6406,5.4043 2.6602,4.9785 3.582,4.3652 4.3653,3.5781 4.9785,2.666 5.4004,1.6368 5.6211,0.5547 5.6191,-0.5547 5.4023,-1.6368 4.9766,-2.666 4.3652,-3.5781 3.584,-4.3652 2.6602,-4.9785 1.6406,-5.4043 0.5508,-5.6172 -0.5508,-5.6192 -1.6406,-5.4004 -2.6602,-4.9824 -3.584,-4.3652 -4.3652,-3.5781 -4.9766,-2.6621 -5.4023,-1.6407 z"
     id="path4578" />
  <path
     style="fill:#d3d3d3;stroke:#000000;stroke-width:1.88976383"
     d="m 480.15074,385.25079 -5.6211,0.5508 -5.4004,1.6407 -4.9785,2.6621 -4.3653,3.5781 -3.582,4.3652 -2.6621,4.9824 -1.6387,5.4004 -0.5527,5.6192 0.5527,5.6172 1.6387,5.4043 2.6621,4.9785 3.582,4.3652 4.3653,3.5781 4.9785,2.666 5.4004,1.6368 5.6211,0.5547 5.6191,-0.5547 5.4004,-1.6368 4.9785,-2.666 4.3652,-3.5781 3.584,-4.3652 2.6602,-4.9785 1.6406,-5.4043 0.5508,-5.6172 -0.5508,-5.6192 -1.6406,-5.4004 -2.6602,-4.9824 -3.584,-4.3652 -4.3652,-3.5781 -4.9785,-2.6621 -5.4004,-1.6407 z"
     id="path4576" />
  <path
     style="fill:#d3d3d3;stroke:#000000;stroke-width:1.88976383"
     d="m 566.54914,385.25079 -5.6191,0.5508 -5.4004,1.6407 -4.9786,2.6621 -4.3652,3.5781 -3.582,4.3652 -2.6621,4.9824 -1.6407,5.4004 -0.5507,5.6192 0.5507,5.6172 1.6407,5.4043 2.6621,4.9785 3.582,4.3652 4.3652,3.5781 4.9786,2.666 5.4004,1.6368 5.6191,0.5547 5.6211,-0.5547 5.4004,-1.6368 4.9785,-2.666 4.3652,-3.5781 3.5821,-4.3652 2.6621,-4.9785 1.6406,-5.4043 0.5508,-5.6172 -0.5508,-5.6192 -1.6406,-5.4004 -2.6621,-4.9824 -3.5821,-4.3652 -4.3652,-3.5781 -4.9785,-2.6621 -5.4004,-1.6407 z"
     id="path4574" />
  <path
     style="fill:#d3d3d3;stroke:#000000;stroke-width:1.88976383"
     d="m 652.94954,385.25079 -5.6192,0.5508 -5.4023,1.6407 -4.9766,2.6621 -4.3652,3.5781 -3.584,4.3652 -2.6601,4.9824 -1.6407,5.4004 -0.5507,5.6192 0.5507,5.6172 1.6407,5.4043 2.6601,4.9785 3.584,4.3652 4.3652,3.5781 4.9766,2.666 5.4023,1.6368 5.6192,0.5547 5.6211,-0.5547 5.4004,-1.6368 4.9785,-2.666 4.3652,-3.5781 3.582,-4.3652 2.6602,-4.9785 1.6406,-5.4043 0.5528,-5.6172 -0.5528,-5.6192 -1.6406,-5.4004 -2.6602,-4.9824 -3.582,-4.3652 -4.3652,-3.5781 -4.9785,-2.6621 -5.4004,-1.6407 z"
     id="path4572" />
  <path
     style="fill:#d3d3d3;stroke:#000000;stroke-width:1.88976383"
     d="m 739.34994,385.25079 -5.6192,0.5508 -5.4023,1.6407 -4.9766,2.6621 -4.3652,3.5781 -3.584,4.3652 -2.6601,4.9824 -1.6407,5.4004 -0.5527,5.6192 0.5527,5.6172 1.6407,5.4043 2.6601,4.9785 3.584,4.3652 4.3652,3.5781 4.9766,2.666 5.4023,1.6368 5.6192,0.5547 5.6211,-0.5547 5.4004,-1.6368 4.9765,-2.666 4.3653,-3.5781 3.5839,-4.3652 2.6602,-4.9785 1.6406,-5.4043 0.5528,-5.6172 -0.5528,-5.6192 -1.6406,-5.4004 -2.6602,-4.9824 -3.5839,-4.3652 -4.3653,-3.5781 -4.9765,-2.6621 -5.4004,-1.6407 z"
     id="path4570" />
  <path
     style="fill:#d3d3d3;stroke:#000000;stroke-width:1.88976383"
     d="m 825.75034,385.25079 -5.6211,0.5508 -5.4004,1.6407 -4.9785,2.6621 -4.3653,3.5781 -3.582,4.3652 -2.6602,4.9824 -1.6406,5.4004 -0.5527,5.6192 0.5527,5.6172 1.6406,5.4043 2.6602,4.9785 3.582,4.3652 4.3653,3.5781 4.9785,2.666 5.4004,1.6368 5.6211,0.5547 5.6191,-0.5547 5.4023,-1.6368 4.9766,-2.666 4.3652,-3.5781 3.584,-4.3652 2.6602,-4.9785 1.6406,-5.4043 0.5508,-5.6172 -0.5508,-5.6192 -1.6406,-5.4004 -2.6602,-4.9824 -3.584,-4.3652 -4.3652,-3.5781 -4.9766,-2.6621 -5.4023,-1.6407 z"
     id="path4568" />
  <path
     style="fill:#d3d3d3;stroke:#000000;stroke-width:1.88976383"
     d="m 912.15074,385.25079 -5.6211,0.5508 -5.4004,1.6407 -4.9785,2.6621 -4.3653,3.5781 -3.582,4.3652 -2.6621,4.9824 -1.6387,5.4004 -0.5527,5.6192 0.5527,5.6172 1.6387,5.4043 2.6621,4.9785 3.582,4.3652 4.3653,3.5781 4.9785,2.666 5.4004,1.6368 5.6211,0.5547 5.6191,-0.5547 5.4004,-1.6368 4.9785,-2.666 4.3652,-3.5781 3.584,-4.3652 2.6602,-4.9785 1.6406,-5.4043 0.5508,-5.6172 -0.5508,-5.6192 -1.6406,-5.4004 -2.6602,-4.9824 -3.584,-4.3652 -4.3652,-3.5781 -4.9785,-2.6621 -5.4004,-1.6407 z"
     id="path4566" />
  <path
     style="fill:#d3d3d3;stroke:#000000;stroke-width:1.88976383"
     d="m 91.349934,460.07309 -5.6192,0.5527 -5.4023,1.6407 -4.9766,2.6601 -4.3652,3.584 -3.584,4.3613 -2.6601,4.9805 -1.6407,5.4004 -0.5527,5.6211 0.5527,5.6191 1.6407,5.4024 2.6601,4.9765 3.584,4.3653 4.3652,3.584 4.9766,2.6601 5.4023,1.6406 5.6192,0.5528 5.6211,-0.5528 5.400406,-1.6406 4.9765,-2.6601 4.3653,-3.584 3.5839,-4.3653 2.6602,-4.9765 1.6406,-5.4024 0.5528,-5.6191 -0.5528,-5.6211 -1.6406,-5.4004 -2.6602,-4.9805 -3.5839,-4.3613 -4.3653,-3.584 -4.9765,-2.6601 -5.400406,-1.6407 z"
     id="path4564" />
  <path
     style="fill:#d3d3d3;stroke:#000000;stroke-width:1.88976383"
     d="m 177.75034,460.07309 -5.6211,0.5527 -5.4004,1.6407 -4.9785,2.6601 -4.3653,3.584 -3.582,4.3613 -2.6602,4.9805 -1.6406,5.4004 -0.5527,5.6211 0.5527,5.6191 1.6406,5.4024 2.6602,4.9765 3.582,4.3653 4.3653,3.584 4.9785,2.6601 5.4004,1.6406 5.6211,0.5528 5.6191,-0.5528 5.4023,-1.6406 4.9766,-2.6601 4.3652,-3.584 3.584,-4.3653 2.6602,-4.9765 1.6406,-5.4024 0.5508,-5.6191 -0.5508,-5.6211 -1.6406,-5.4004 -2.6602,-4.9805 -3.584,-4.3613 -4.3652,-3.584 -4.9766,-2.6601 -5.4023,-1.6407 z"
     id="path4562" />
  <path
     style="fill:#d3d3d3;stroke:#000000;stroke-width:1.88976383"
     d="m 264.15074,460.07309 -5.6211,0.5527 -5.4004,1.6407 -4.9785,2.6601 -4.3653,3.584 -3.582,4.3613 -2.6621,4.9805 -1.6387,5.4004 -0.5527,5.6211 0.5527,5.6191 1.6387,5.4024 2.6621,4.9765 3.582,4.3653 4.3653,3.584 4.9785,2.6601 5.4004,1.6406 5.6211,0.5528 5.6191,-0.5528 5.4004,-1.6406 4.9785,-2.6601 4.3652,-3.584 3.584,-4.3653 2.6602,-4.9765 1.6406,-5.4024 0.5508,-5.6191 -0.5508,-5.6211 -1.6406,-5.4004 -2.6602,-4.9805 -3.584,-4.3613 -4.3652,-3.584 -4.9785,-2.6601 -5.4004,-1.6407 z"
     id="path4560" />
  <path
     style="fill:#d3d3d3;stroke:#000000;stroke-width:1.88976383"
     d="m 350.54914,460.07309 -5.6191,0.5527 -5.4004,1.6407 -4.9786,2.6601 -4.3652,3.584 -3.582,4.3613 -2.6621,4.9805 -1.6407,5.4004 -0.5507,5.6211 0.5507,5.6191 1.6407,5.4024 2.6621,4.9765 3.582,4.3653 4.3652,3.584 4.9786,2.6601 5.4004,1.6406 5.6191,0.5528 5.6211,-0.5528 5.4004,-1.6406 4.9785,-2.6601 4.3652,-3.584 3.5821,-4.3653 2.6621,-4.9765 1.6406,-5.4024 0.5508,-5.6191 -0.5508,-5.6211 -1.6406,-5.4004 -2.6621,-4.9805 -3.5821,-4.3613 -4.3652,-3.584 -4.9785,-2.6601 -5.4004,-1.6407 z"
     id="path4558" />
  <path
     style="fill:#d3d3d3;stroke:#000000;stroke-width:1.88976383"
     d="m 436.94954,460.07309 -5.6192,0.5527 -5.4023,1.6407 -4.9766,2.6601 -4.3652,3.584 -3.584,4.3613 -2.6601,4.9805 -1.6407,5.4004 -0.5507,5.6211 0.5507,5.6191 1.6407,5.4024 2.6601,4.9765 3.584,4.3653 4.3652,3.584 4.9766,2.6601 5.4023,1.6406 5.6192,0.5528 5.6211,-0.5528 5.4004,-1.6406 4.9785,-2.6601 4.3652,-3.584 3.582,-4.3653 2.6602,-4.9765 1.6406,-5.4024 0.5528,-5.6191 -0.5528,-5.6211 -1.6406,-5.4004 -2.6602,-4.9805 -3.582,-4.3613 -4.3652,-3.584 -4.9785,-2.6601 -5.4004,-1.6407 z"
     id="path4556" />
  <path
     style="fill:#d3d3d3;stroke:#000000;stroke-width:1.88976383"
     d="m 523.34994,460.07309 -5.6192,0.5527 -5.4023,1.6407 -4.9766,2.6601 -4.3652,3.584 -3.584,4.3613 -2.6601,4.9805 -1.6407,5.4004 -0.5527,5.6211 0.5527,5.6191 1.6407,5.4024 2.6601,4.9765 3.584,4.3653 4.3652,3.584 4.9766,2.6601 5.4023,1.6406 5.6192,0.5528 5.6211,-0.5528 5.4004,-1.6406 4.9765,-2.6601 4.3653,-3.584 3.5839,-4.3653 2.6602,-4.9765 1.6406,-5.4024 0.5528,-5.6191 -0.5528,-5.6211 -1.6406,-5.4004 -2.6602,-4.9805 -3.5839,-4.3613 -4.3653,-3.584 -4.9765,-2.6601 -5.4004,-1.6407 z"
     id="path4554" />
  <path
     style="fill:#d3d3d3;stroke:#000000;stroke-width:1.88976383"
     d="m 609.75034,460.07309 -5.6211,0.5527 -5.4004,1.6407 -4.9785,2.6601 -4.3653,3.584 -3.582,4.3613 -2.6602,4.9805 -1.6406,5.4004 -0.5527,5.6211 0.5527,5.6191 1.6406,5.4024 2.6602,4.9765 3.582,4.3653 4.3653,3.584 4.9785,2.6601 5.4004,1.6406 5.6211,0.5528 5.6191,-0.5528 5.4023,-1.6406 4.9766,-2.6601 4.3652,-3.584 3.584,-4.3653 2.6602,-4.9765 1.6406,-5.4024 0.5508,-5.6191 -0.5508,-5.6211 -1.6406,-5.4004 -2.6602,-4.9805 -3.584,-4.3613 -4.3652,-3.584 -4.9766,-2.6601 -5.4023,-1.6407 z"
     id="path4552" />
  <path
     style="fill:#d3d3d3;stroke:#000000;stroke-width:1.88976383"
     d="m 696.15074,460.07309 -5.6211,0.5527 -5.4004,1.6407 -4.9785,2.6601 -4.3653,3.584 -3.582,4.3613 -2.6621,4.9805 -1.6387,5.4004 -0.5527,5.6211 0.5527,5.6191 1.6387,5.4024 2.6621,4.9765 3.582,4.3653 4.3653,3.584 4.9785,2.6601 5.4004,1.6406 5.6211,0.5528 5.6191,-0.5528 5.4004,-1.6406 4.9785,-2.6601 4.3652,-3.584 3.584,-4.3653 2.6602,-4.9765 1.6406,-5.4024 0.5508,-5.6191 -0.5508,-5.6211 -1.6406,-5.4004 -2.6602,-4.9805 -3.584,-4.3613 -4.3652,-3.584 -4.9785,-2.6601 -5.4004,-1.6407 z"
     id="path4550" />
  <path
     style="fill:#d3d3d3;stroke:#000000;stroke-width:1.88976383"
     d="m 782.54914,460.07309 -5.6191,0.5527 -5.4004,1.6407 -4.9786,2.6601 -4.3652,3.584 -3.582,4.3613 -2.6621,4.9805 -1.6407,5.4004 -0.5507,5.6211 0.5507,5.6191 1.6407,5.4024 2.6621,4.9765 3.582,4.3653 4.3652,3.584 4.9786,2.6601 5.4004,1.6406 5.6191,0.5528 5.6211,-0.5528 5.4004,-1.6406 4.9785,-2.6601 4.3652,-3.584 3.5821,-4.3653 2.6621,-4.9765 1.6406,-5.4024 0.5508,-5.6191 -0.5508,-5.6211 -1.6406,-5.4004 -2.6621,-4.9805 -3.5821,-4.3613 -4.3652,-3.584 -4.9785,-2.6601 -5.4004,-1.6407 z"
     id="path4548" />
  <path
     style="fill:#d3d3d3;stroke:#000000;stroke-width:1.88976383"
     d="m 868.94954,460.07309 -5.6192,0.5527 -5.4023,1.6407 -4.9766,2.6601 -4.3652,3.584 -3.584,4.3613 -2.6601,4.9805 -1.6407,5.4004 -0.5507,5.6211 0.5507,5.6191 1.6407,5.4024 2.6601,4.9765 3.584,4.3653 4.3652,3.584 4.9766,2.6601 5.4023,1.6406 5.6192,0.5528 5.6211,-0.5528 5.4004,-1.6406 4.9785,-2.6601 4.3652,-3.584 3.582,-4.3653 2.6602,-4.9765 1.6406,-5.4024 0.5528,-5.6191 -0.5528,-5.6211 -1.6406,-5.4004 -2.6602,-4.9805 -3.582,-4.3613 -4.3652,-3.584 -4.9785,-2.6601 -5.4004,-1.6407 z"
     id="path4546" />
  <path
     style="fill:#d3d3d3;stroke:#000000;stroke-width:1.88976383"
     d="m 134.54914,534.89729 -5.6191,0.5547 -5.4004,1.6367 -4.9786,2.6621 -4.3652,3.5821 -3.582,4.3652 -2.6621,4.9785 -1.6407,5.4043 -0.5507,5.6153 0.5507,5.6211 1.6407,5.4003 2.6621,4.9825 3.582,4.3613 4.3652,3.582 4.9786,2.6621 5.4004,1.6407 5.6191,0.5507 5.6211,-0.5507 5.4004,-1.6407 4.9785,-2.6621 4.3652,-3.582 3.5821,-4.3613 2.6621,-4.9825 1.6386,-5.4003 0.5528,-5.6211 -0.5528,-5.6153 -1.6386,-5.4043 -2.6621,-4.9785 -3.5821,-4.3652 -4.3652,-3.5821 -4.9785,-2.6621 -5.4004,-1.6367 z"
     id="path4544" />
  <path
     style="fill:#d3d3d3;stroke:#000000;stroke-width:1.88976383"
     d="m 220.94954,534.89729 -5.6192,0.5547 -5.4023,1.6367 -4.9766,2.6621 -4.3652,3.5821 -3.584,4.3652 -2.6601,4.9785 -1.6407,5.4043 -0.5507,5.6153 0.5507,5.6211 1.6407,5.4003 2.6601,4.9825 3.584,4.3613 4.3652,3.582 4.9766,2.6621 5.4023,1.6407 5.6192,0.5507 5.6211,-0.5507 5.4004,-1.6407 4.9785,-2.6621 4.3652,-3.582 3.582,-4.3613 2.6602,-4.9825 1.6406,-5.4003 0.5528,-5.6211 -0.5528,-5.6153 -1.6406,-5.4043 -2.6602,-4.9785 -3.582,-4.3652 -4.3652,-3.5821 -4.9785,-2.6621 -5.4004,-1.6367 z"
     id="path4542" />
  <path
     style="fill:#d3d3d3;stroke:#000000;stroke-width:1.88976383"
     d="m 307.34994,534.89729 -5.6192,0.5547 -5.4023,1.6367 -4.9766,2.6621 -4.3652,3.5821 -3.584,4.3652 -2.6601,4.9785 -1.6407,5.4043 -0.5527,5.6153 0.5527,5.6211 1.6407,5.4003 2.6601,4.9825 3.584,4.3613 4.3652,3.582 4.9766,2.6621 5.4023,1.6407 5.6192,0.5507 5.6211,-0.5507 5.4004,-1.6407 4.9765,-2.6621 4.3653,-3.582 3.5839,-4.3613 2.6602,-4.9825 1.6406,-5.4003 0.5528,-5.6211 -0.5528,-5.6153 -1.6406,-5.4043 -2.6602,-4.9785 -3.5839,-4.3652 -4.3653,-3.5821 -4.9765,-2.6621 -5.4004,-1.6367 z"
     id="path4540" />
  <path
     style="fill:#d3d3d3;stroke:#000000;stroke-width:1.88976383"
     d="m 393.75034,534.89729 -5.6211,0.5547 -5.4004,1.6367 -4.9785,2.6621 -4.3653,3.5821 -3.582,4.3652 -2.6602,4.9785 -1.6406,5.4043 -0.5527,5.6153 0.5527,5.6211 1.6406,5.4003 2.6602,4.9825 3.582,4.3613 4.3653,3.582 4.9785,2.6621 5.4004,1.6407 5.6211,0.5507 5.6191,-0.5507 5.4023,-1.6407 4.9766,-2.6621 4.3652,-3.582 3.584,-4.3613 2.6602,-4.9825 1.6406,-5.4003 0.5508,-5.6211 -0.5508,-5.6153 -1.6406,-5.4043 -2.6602,-4.9785 -3.584,-4.3652 -4.3652,-3.5821 -4.9766,-2.6621 -5.4023,-1.6367 z"
     id="path4538" />
  <path
     style="fill:#d3d3d3;stroke:#000000;stroke-width:1.88976383"
     d="m 480.15074,534.89729 -5.6211,0.5547 -5.4004,1.6367 -4.9785,2.6621 -4.3653,3.5821 -3.582,4.3652 -2.6621,4.9785 -1.6387,5.4043 -0.5527,5.6153 0.5527,5.6211 1.6387,5.4003 2.6621,4.9825 3.582,4.3613 4.3653,3.582 4.9785,2.6621 5.4004,1.6407 5.6211,0.5507 5.6191,-0.5507 5.4004,-1.6407 4.9785,-2.6621 4.3652,-3.582 3.584,-4.3613 2.6602,-4.9825 1.6406,-5.4003 0.5508,-5.6211 -0.5508,-5.6153 -1.6406,-5.4043 -2.6602,-4.9785 -3.584,-4.3652 -4.3652,-3.5821 -4.9785,-2.6621 -5.4004,-1.6367 z"
     id="path4536" />
  <path
     style="fill:#d3d3d3;stroke:#000000;stroke-width:1.88976383"
     d="m 566.54914,534.89729 -5.6191,0.5547 -5.4004,1.6367 -4.9786,2.6621 -4.3652,3.5821 -3.582,4.3652 -2.6621,4.9785 -1.6407,5.4043 -0.5507,5.6153 0.5507,5.6211 1.6407,5.4003 2.6621,4.9825 3.582,4.3613 4.3652,3.582 4.9786,2.6621 5.4004,1.6407 5.6191,0.5507 5.6211,-0.5507 5.4004,-1.6407 4.9785,-2.6621 4.3652,-3.582 3.5821,-4.3613 2.6621,-4.9825 1.6406,-5.4003 0.5508,-5.6211 -0.5508,-5.6153 -1.6406,-5.4043 -2.6621,-4.9785 -3.5821,-4.3652 -4.3652,-3.5821 -4.9785,-2.6621 -5.4004,-1.6367 z"
     id="path4534" />
  <path
     style="fill:#d3d3d3;stroke:#000000;stroke-width:1.88976383"
     d="m 652.94954,534.89729 -5.6192,0.5547 -5.4023,1.6367 -4.9766,2.6621 -4.3652,3.5821 -3.584,4.3652 -2.6601,4.9785 -1.6407,5.4043 -0.5507,5.6153 0.5507,5.6211 1.6407,5.4003 2.6601,4.9825 3.584,4.3613 4.3652,3.582 4.9766,2.6621 5.4023,1.6407 5.6192,0.5507 5.6211,-0.5507 5.4004,-1.6407 4.9785,-2.6621 4.3652,-3.582 3.582,-4.3613 2.6602,-4.9825 1.6406,-5.4003 0.5528,-5.6211 -0.5528,-5.6153 -1.6406,-5.4043 -2.6602,-4.9785 -3.582,-4.3652 -4.3652,-3.5821 -4.9785,-2.6621 -5.4004,-1.6367 z"
     id="path4532" />
  <path
     style="fill:#d3d3d3;stroke:#000000;stroke-width:1.88976383"
     d="m 739.34994,534.89729 -5.6192,0.5547 -5.4023,1.6367 -4.9766,2.6621 -4.3652,3.5821 -3.584,4.3652 -2.6601,4.9785 -1.6407,5.4043 -0.5527,5.6153 0.5527,5.6211 1.6407,5.4003 2.6601,4.9825 3.584,4.3613 4.3652,3.582 4.9766,2.6621 5.4023,1.6407 5.6192,0.5507 5.6211,-0.5507 5.4004,-1.6407 4.9765,-2.6621 4.3653,-3.582 3.5839,-4.3613 2.6602,-4.9825 1.6406,-5.4003 0.5528,-5.6211 -0.5528,-5.6153 -1.6406,-5.4043 -2.6602,-4.9785 -3.5839,-4.3652 -4.3653,-3.5821 -4.9765,-2.6621 -5.4004,-1.6367 z"
     id="path4530" />
  <path
     style="fill:#d3d3d3;stroke:#000000;stroke-width:1.88976383"
     d="m 825.75034,534.89729 -5.6211,0.5547 -5.4004,1.6367 -4.9785,2.6621 -4.3653,3.5821 -3.582,4.3652 -2.6602,4.9785 -1.6406,5.4043 -0.5527,5.6153 0.5527,5.6211 1.6406,5.4003 2.6602,4.9825 3.582,4.3613 4.3653,3.582 4.9785,2.6621 5.4004,1.6407 5.6211,0.5507 5.6191,-0.5507 5.4023,-1.6407 4.9766,-2.6621 4.3652,-3.582 3.584,-4.3613 2.6602,-4.9825 1.6406,-5.4003 0.5508,-5.6211 -0.5508,-5.6153 -1.6406,-5.4043 -2.6602,-4.9785 -3.584,-4.3652 -4.3652,-3.5821 -4.9766,-2.6621 -5.4023,-1.6367 z"
     id="path4528" />
  <path
     style="fill:#d3d3d3;stroke:#000000;stroke-width:1.88976383"
     d="m 177.75034,609.72349 -5.6211,0.5527 -5.4004,1.6407 -4.9785,2.6601 -4.3653,3.5801 -3.582,4.3652 -2.6602,4.9805 -1.6406,5.4004 -0.5527,5.6211 0.5527,5.6172 1.6406,5.4043 2.6602,4.9765 3.582,4.3653 4.3653,3.58 4.9785,2.6641 5.4004,1.6367 5.6211,0.5567 5.6191,-0.5567 5.4023,-1.6367 4.9766,-2.6641 4.3652,-3.58 3.584,-4.3653 2.6602,-4.9765 1.6406,-5.4043 0.5508,-5.6172 -0.5508,-5.6211 -1.6406,-5.4004 -2.6602,-4.9805 -3.584,-4.3652 -4.3652,-3.5801 -4.9766,-2.6601 -5.4023,-1.6407 z"
     id="path4526" />
  <path
     style="fill:#d3d3d3;stroke:#000000;stroke-width:1.88976383"
     d="m 264.15074,609.72349 -5.6211,0.5527 -5.4004,1.6407 -4.9785,2.6601 -4.3653,3.5801 -3.582,4.3652 -2.6621,4.9805 -1.6387,5.4004 -0.5527,5.6211 0.5527,5.6172 1.6387,5.4043 2.6621,4.9765 3.582,4.3653 4.3653,3.58 4.9785,2.6641 5.4004,1.6367 5.6211,0.5567 5.6191,-0.5567 5.4004,-1.6367 4.9785,-2.6641 4.3652,-3.58 3.584,-4.3653 2.6602,-4.9765 1.6406,-5.4043 0.5508,-5.6172 -0.5508,-5.6211 -1.6406,-5.4004 -2.6602,-4.9805 -3.584,-4.3652 -4.3652,-3.5801 -4.9785,-2.6601 -5.4004,-1.6407 z"
     id="path4524" />
  <path
     style="fill:#d3d3d3;stroke:#000000;stroke-width:1.88976383"
     d="m 350.54914,609.72349 -5.6191,0.5527 -5.4004,1.6407 -4.9786,2.6601 -4.3652,3.5801 -3.582,4.3652 -2.6621,4.9805 -1.6407,5.4004 -0.5507,5.6211 0.5507,5.6172 1.6407,5.4043 2.6621,4.9765 3.582,4.3653 4.3652,3.58 4.9786,2.6641 5.4004,1.6367 5.6191,0.5567 5.6211,-0.5567 5.4004,-1.6367 4.9785,-2.6641 4.3652,-3.58 3.5821,-4.3653 2.6621,-4.9765 1.6406,-5.4043 0.5508,-5.6172 -0.5508,-5.6211 -1.6406,-5.4004 -2.6621,-4.9805 -3.5821,-4.3652 -4.3652,-3.5801 -4.9785,-2.6601 -5.4004,-1.6407 z"
     id="path4522" />
  <path
     style="fill:#d3d3d3;stroke:#000000;stroke-width:1.88976383"
     d="m 436.94954,609.72349 -5.6192,0.5527 -5.4023,1.6407 -4.9766,2.6601 -4.3652,3.5801 -3.584,4.3652 -2.6601,4.9805 -1.6407,5.4004 -0.5507,5.6211 0.5507,5.6172 1.6407,5.4043 2.6601,4.9765 3.584,4.3653 4.3652,3.58 4.9766,2.6641 5.4023,1.6367 5.6192,0.5567 5.6211,-0.5567 5.4004,-1.6367 4.9785,-2.6641 4.3652,-3.58 3.582,-4.3653 2.6602,-4.9765 1.6406,-5.4043 0.5528,-5.6172 -0.5528,-5.6211 -1.6406,-5.4004 -2.6602,-4.9805 -3.582,-4.3652 -4.3652,-3.5801 -4.9785,-2.6601 -5.4004,-1.6407 z"
     id="path4520" />
  <path
     style="fill:#d3d3d3;stroke:#000000;stroke-width:1.88976383"
     d="m 523.34994,609.72349 -5.6192,0.5527 -5.4023,1.6407 -4.9766,2.6601 -4.3652,3.5801 -3.584,4.3652 -2.6601,4.9805 -1.6407,5.4004 -0.5527,5.6211 0.5527,5.6172 1.6407,5.4043 2.6601,4.9765 3.584,4.3653 4.3652,3.58 4.9766,2.6641 5.4023,1.6367 5.6192,0.5567 5.6211,-0.5567 5.4004,-1.6367 4.9765,-2.6641 4.3653,-3.58 3.5839,-4.3653 2.6602,-4.9765 1.6406,-5.4043 0.5528,-5.6172 -0.5528,-5.6211 -1.6406,-5.4004 -2.6602,-4.9805 -3.5839,-4.3652 -4.3653,-3.5801 -4.9765,-2.6601 -5.4004,-1.6407 z"
     id="path4518" />
  <path
     style="fill:#d3d3d3;stroke:#000000;stroke-width:1.88976383"
     d="m 609.75034,609.72349 -5.6211,0.5527 -5.4004,1.6407 -4.9785,2.6601 -4.3653,3.5801 -3.582,4.3652 -2.6602,4.9805 -1.6406,5.4004 -0.5527,5.6211 0.5527,5.6172 1.6406,5.4043 2.6602,4.9765 3.582,4.3653 4.3653,3.58 4.9785,2.6641 5.4004,1.6367 5.6211,0.5567 5.6191,-0.5567 5.4023,-1.6367 4.9766,-2.6641 4.3652,-3.58 3.584,-4.3653 2.6602,-4.9765 1.6406,-5.4043 0.5508,-5.6172 -0.5508,-5.6211 -1.6406,-5.4004 -2.6602,-4.9805 -3.584,-4.3652 -4.3652,-3.5801 -4.9766,-2.6601 -5.4023,-1.6407 z"
     id="path4516" />
  <path
     style="fill:#d3d3d3;stroke:#000000;stroke-width:1.88976383"
     d="m 696.15074,609.72349 -5.6211,0.5527 -5.4004,1.6407 -4.9785,2.6601 -4.3653,3.5801 -3.582,4.3652 -2.6621,4.9805 -1.6387,5.4004 -0.5527,5.6211 0.5527,5.6172 1.6387,5.4043 2.6621,4.9765 3.582,4.3653 4.3653,3.58 4.9785,2.6641 5.4004,1.6367 5.6211,0.5567 5.6191,-0.5567 5.4004,-1.6367 4.9785,-2.6641 4.3652,-3.58 3.584,-4.3653 2.6602,-4.9765 1.6406,-5.4043 0.5508,-5.6172 -0.5508,-5.6211 -1.6406,-5.4004 -2.6602,-4.9805 -3.584,-4.3652 -4.3652,-3.5801 -4.9785,-2.6601 -5.4004,-1.6407 z"
     id="path4514" />
  <path
     style="fill:#d3d3d3;stroke:#000000;stroke-width:1.88976383"
     d="m 307.34994,684.54769 -5.6192,0.5508 -5.4023,1.6406 -4.9766,2.6621 -4.3652,3.5821 -3.584,4.3652 -2.6601,4.9785 -1.6407,5.4004 -0.5527,5.6191 0.5527,5.6211 1.6407,5.4004 2.6601,4.9785 3.584,4.3653 4.3652,3.582 4.9766,2.6621 5.4023,1.6406 5.6192,0.5508 5.6211,-0.5508 5.4004,-1.6406 4.9765,-2.6621 4.3653,-3.582 3.5839,-4.3653 2.6602,-4.9785 1.6406,-5.4004 0.5528,-5.6211 -0.5528,-5.6191 -1.6406,-5.4004 -2.6602,-4.9785 -3.5839,-4.3652 -4.3653,-3.5821 -4.9765,-2.6621 -5.4004,-1.6406 z"
     id="path4512" />
  <path
     style="fill:#d3d3d3;stroke:#000000;stroke-width:1.88976383"
     d="m 393.75034,684.54769 -5.6211,0.5508 -5.4004,1.6406 -4.9785,2.6621 -4.3653,3.5821 -3.582,4.3652 -2.6602,4.9785 -1.6406,5.4004 -0.5527,5.6191 0.5527,5.6211 1.6406,5.4004 2.6602,4.9785 3.582,4.3653 4.3653,3.582 4.9785,2.6621 5.4004,1.6406 5.6211,0.5508 5.6191,-0.5508 5.4023,-1.6406 4.9766,-2.6621 4.3652,-3.582 3.584,-4.3653 2.6602,-4.9785 1.6406,-5.4004 0.5508,-5.6211 -0.5508,-5.6191 -1.6406,-5.4004 -2.6602,-4.9785 -3.584,-4.3652 -4.3652,-3.5821 -4.9766,-2.6621 -5.4023,-1.6406 z"
     id="path4510" />
  <path
     style="fill:#d3d3d3;stroke:#000000;stroke-width:1.88976383"
     d="m 480.15074,684.54769 -5.6211,0.5508 -5.4004,1.6406 -4.9785,2.6621 -4.3653,3.5821 -3.582,4.3652 -2.6621,4.9785 -1.6387,5.4004 -0.5527,5.6191 0.5527,5.6211 1.6387,5.4004 2.6621,4.9785 3.582,4.3653 4.3653,3.582 4.9785,2.6621 5.4004,1.6406 5.6211,0.5508 5.6191,-0.5508 5.4004,-1.6406 4.9785,-2.6621 4.3652,-3.582 3.584,-4.3653 2.6602,-4.9785 1.6406,-5.4004 0.5508,-5.6211 -0.5508,-5.6191 -1.6406,-5.4004 -2.6602,-4.9785 -3.584,-4.3652 -4.3652,-3.5821 -4.9785,-2.6621 -5.4004,-1.6406 z"
     id="path4508" />
  <path
     style="fill:#d3d3d3;stroke:#000000;stroke-width:1.88976383"
     d="m 566.54914,684.54769 -5.6191,0.5508 -5.4004,1.6406 -4.9786,2.6621 -4.3652,3.5821 -3.582,4.3652 -2.6621,4.9785 -1.6407,5.4004 -0.5507,5.6191 0.5507,5.6211 1.6407,5.4004 2.6621,4.9785 3.582,4.3653 4.3652,3.582 4.9786,2.6621 5.4004,1.6406 5.6191,0.5508 5.6211,-0.5508 5.4004,-1.6406 4.9785,-2.6621 4.3652,-3.582 3.5821,-4.3653 2.6621,-4.9785 1.6406,-5.4004 0.5508,-5.6211 -0.5508,-5.6191 -1.6406,-5.4004 -2.6621,-4.9785 -3.5821,-4.3652 -4.3652,-3.5821 -4.9785,-2.6621 -5.4004,-1.6406 z"
     id="path6302" />
  <text
     id="text6532"
     y="-863.97021"
     x="3.6786194">
    <tspan
       id="tspan6530"
       dy="12"
       style="font-style:normal;font-weight:normal;font-size:12px;text-align:center;text-anchor:start;fill:#000000;fill-opacity:1;stroke:none"
       sodipodi:role="line"
       x="3.6786194"
       y="-863.97021">49.24 in<tspan
   id="tspan6528"
   style="font-size:64.99999762%;baseline-shift:super">2</tspan>
</tspan>
  </text>
  <path
     style="fill:none;stroke:#000000;stroke-width:1px;stroke-linecap:butt;stroke-linejoin:miter;stroke-opacity:1"
     d="m 134.54914,385.25079 v 57.5997"
     id="path6569"
     inkscape:connector-curvature="0" />
  <path
     style="fill:none;stroke:#000000;stroke-width:1px;stroke-linecap:butt;stroke-linejoin:miter;stroke-opacity:1"
     d="m 105.75034,414.04969 h 57.5996"
     id="path6571"
     inkscape:connector-curvature="0" />
  <path
     style="fill:none;stroke:#000000;stroke-width:1px;stroke-linecap:butt;stroke-linejoin:miter;stroke-opacity:1"
     d="m 883.34994,414.04969 h 57.5996"
     id="path6573"
     inkscape:connector-curvature="0" />
  <path
     style="fill:none;stroke:#000000;stroke-width:1px;stroke-linecap:butt;stroke-linejoin:miter;stroke-opacity:1"
     d="m 912.15074,385.25079 v 57.5997"
     id="path6575"
     inkscape:connector-curvature="0" />
  <path
     id="path4646"
     d="m 307.34994,100.34998 -2.8096,0.2773 -2.70115,0.8184 -2.4883,1.33005 -2.1826,1.792 -1.792,2.1826 -1.33005,2.4893 -0.82035,2.70215 -0.27635,2.8076 0.27635,2.81055 0.82035,2.7002 1.33005,2.4912 1.792,2.18065 2.1826,1.79105 2.4883,1.33105 2.70115,0.8193 2.8096,0.2764 2.81055,-0.2764 2.7002,-0.8193 2.48825,-1.33105 2.18265,-1.79105 1.79195,-2.18065 1.3301,-2.4912 0.8203,-2.7002 0.2764,-2.81055 -0.2764,-2.8076 -0.8203,-2.70215 -1.3301,-2.4893 -1.79195,-2.1826 -2.18265,-1.792 -2.48825,-1.33005 -2.7002,-0.8184 z"
     style="fill:#d3d3d3;stroke:#000000;stroke-width:0.94488192"
     inkscape:connector-curvature="0" />
  <path
     id="path4648"
     d="m 393.74983,100.34998 -2.81055,0.2773 -2.7002,0.8184 -2.48925,1.33005 -2.18265,1.792 -1.791,2.1826 -1.3301,2.4893 -0.8203,2.70215 -0.27635,2.8076 0.27635,2.81055 0.8203,2.7002 1.3301,2.4912 1.791,2.18065 2.18265,1.79105 2.48925,1.33105 2.7002,0.8193 2.81055,0.2764 2.80955,-0.2764 2.70115,-0.8193 2.4883,-1.33105 2.1826,-1.79105 1.792,-2.18065 1.3301,-2.4912 0.8203,-2.7002 0.2754,-2.81055 -0.2754,-2.8076 -0.8203,-2.70215 -1.3301,-2.4893 -1.792,-2.1826 -2.1826,-1.792 -2.4883,-1.33005 -2.70115,-0.8184 z"
     style="fill:#d3d3d3;stroke:#000000;stroke-width:0.94488192"
     inkscape:connector-curvature="0" />
  <path
     id="path4650"
     d="m 480.15023,100.34998 -2.81055,0.2773 -2.7002,0.8184 -2.48925,1.33005 -2.18265,1.792 -1.791,2.1826 -1.33105,2.4893 -0.81935,2.70215 -0.27635,2.8076 0.27635,2.81055 0.81935,2.7002 1.33105,2.4912 1.791,2.18065 2.18265,1.79105 2.48925,1.33105 2.7002,0.8193 2.81055,0.2764 2.80955,-0.2764 2.7002,-0.8193 2.48925,-1.33105 2.1826,-1.79105 1.792,-2.18065 1.3301,-2.4912 0.8203,-2.7002 0.2754,-2.81055 -0.2754,-2.8076 -0.8203,-2.70215 -1.3301,-2.4893 -1.792,-2.1826 -2.1826,-1.792 -2.48925,-1.33005 -2.7002,-0.8184 z"
     style="fill:#d3d3d3;stroke:#000000;stroke-width:0.94488192"
     inkscape:connector-curvature="0" />
  <path
     id="path4652"
     d="m 566.54964,100.34998 -2.80955,0.2773 -2.7002,0.8184 -2.4893,1.33005 -2.1826,1.792 -1.791,2.1826 -1.33105,2.4893 -0.82035,2.70215 -0.27535,2.8076 0.27535,2.81055 0.82035,2.7002 1.33105,2.4912 1.791,2.18065 2.1826,1.79105 2.4893,1.33105 2.7002,0.8193 2.80955,0.2764 2.81055,-0.2764 2.7002,-0.8193 2.48925,-1.33105 2.1826,-1.79105 1.79105,-2.18065 1.33105,-2.4912 0.8203,-2.7002 0.2754,-2.81055 -0.2754,-2.8076 -0.8203,-2.70215 -1.33105,-2.4893 -1.79105,-2.1826 -2.1826,-1.792 -2.48925,-1.33005 -2.7002,-0.8184 z"
     style="fill:#d3d3d3;stroke:#000000;stroke-width:0.94488192"
     inkscape:connector-curvature="0" />
  <path
     id="path4654"
     d="m 177.74983,175.1761 -2.81055,0.2764 -2.7002,0.8203 -2.48925,1.33005 -2.18265,1.79005 -1.791,2.18265 -1.3301,2.4902 -0.8203,2.7002 -0.27635,2.81055 0.27635,2.80765 0.8203,2.7031 1.3301,2.4883 1.791,2.1826 2.18265,1.79005 2.48925,1.332 2.7002,0.8184 2.81055,0.2773 2.80955,-0.2773 2.70115,-0.8184 2.4883,-1.332 2.1826,-1.79005 1.792,-2.1826 1.3301,-2.4883 0.8203,-2.7031 0.2754,-2.80765 -0.2754,-2.81055 -0.8203,-2.7002 -1.3301,-2.4902 -1.792,-2.18265 -2.1826,-1.79005 -2.4883,-1.33005 -2.70115,-0.8203 z"
     style="fill:#d3d3d3;stroke:#000000;stroke-width:0.94488192"
     inkscape:connector-curvature="0" />
  <path
     id="path4656"
     d="m 264.15023,175.1761 -2.81055,0.2764 -2.7002,0.8203 -2.48925,1.33005 -2.18265,1.79005 -1.791,2.18265 -1.33105,2.4902 -0.81935,2.7002 -0.27635,2.81055 0.27635,2.80765 0.81935,2.7031 1.33105,2.4883 1.791,2.1826 2.18265,1.79005 2.48925,1.332 2.7002,0.8184 2.81055,0.2773 2.80955,-0.2773 2.7002,-0.8184 2.48925,-1.332 2.1826,-1.79005 1.792,-2.1826 1.3301,-2.4883 0.8203,-2.7031 0.2754,-2.80765 -0.2754,-2.81055 -0.8203,-2.7002 -1.3301,-2.4902 -1.792,-2.18265 -2.1826,-1.79005 -2.48925,-1.33005 -2.7002,-0.8203 z"
     style="fill:#d3d3d3;stroke:#000000;stroke-width:0.94488192"
     inkscape:connector-curvature="0" />
  <path
     id="path4658"
     d="m 350.54964,175.1761 -2.80955,0.2764 -2.7002,0.8203 -2.4893,1.33005 -2.1826,1.79005 -1.791,2.18265 -1.33105,2.4902 -0.82035,2.7002 -0.27535,2.81055 0.27535,2.80765 0.82035,2.7031 1.33105,2.4883 1.791,2.1826 2.1826,1.79005 2.4893,1.332 2.7002,0.8184 2.80955,0.2773 2.81055,-0.2773 2.7002,-0.8184 2.48925,-1.332 2.1826,-1.79005 1.79105,-2.1826 1.33105,-2.4883 0.8203,-2.7031 0.2754,-2.80765 -0.2754,-2.81055 -0.8203,-2.7002 -1.33105,-2.4902 -1.79105,-2.18265 -2.1826,-1.79005 -2.48925,-1.33005 -2.7002,-0.8203 z"
     style="fill:#d3d3d3;stroke:#000000;stroke-width:0.94488192"
     inkscape:connector-curvature="0" />
  <path
     id="path4660"
     d="m 436.95005,175.1761 -2.8096,0.2764 -2.70115,0.8203 -2.4883,1.33005 -2.1826,1.79005 -1.792,2.18265 -1.33005,2.4902 -0.82035,2.7002 -0.27535,2.81055 0.27535,2.80765 0.82035,2.7031 1.33005,2.4883 1.792,2.1826 2.1826,1.79005 2.4883,1.332 2.70115,0.8184 2.8096,0.2773 2.81055,-0.2773 2.7002,-0.8184 2.48925,-1.332 2.1826,-1.79005 1.791,-2.1826 1.3301,-2.4883 0.8203,-2.7031 0.2764,-2.80765 -0.2764,-2.81055 -0.8203,-2.7002 -1.3301,-2.4902 -1.791,-2.18265 -2.1826,-1.79005 -2.48925,-1.33005 -2.7002,-0.8203 z"
     style="fill:#d3d3d3;stroke:#000000;stroke-width:0.94488192"
     inkscape:connector-curvature="0" />
  <path
     id="path4662"
     d="m 523.34994,175.1761 -2.8096,0.2764 -2.70115,0.8203 -2.4883,1.33005 -2.1826,1.79005 -1.792,2.18265 -1.33005,2.4902 -0.82035,2.7002 -0.27635,2.81055 0.27635,2.80765 0.82035,2.7031 1.33005,2.4883 1.792,2.1826 2.1826,1.79005 2.4883,1.332 2.70115,0.8184 2.8096,0.2773 2.81055,-0.2773 2.7002,-0.8184 2.48825,-1.332 2.18265,-1.79005 1.79195,-2.1826 1.3301,-2.4883 0.8203,-2.7031 0.2764,-2.80765 -0.2764,-2.81055 -0.8203,-2.7002 -1.3301,-2.4902 -1.79195,-2.18265 -2.18265,-1.79005 -2.48825,-1.33005 -2.7002,-0.8203 z"
     style="fill:#d3d3d3;stroke:#000000;stroke-width:0.94488192"
     inkscape:connector-curvature="0" />
  <path
     id="path4664"
     d="m 609.74983,175.1761 -2.81055,0.2764 -2.7002,0.8203 -2.48925,1.33005 -2.18265,1.79005 -1.791,2.18265 -1.3301,2.4902 -0.8203,2.7002 -0.27635,2.81055 0.27635,2.80765 0.8203,2.7031 1.3301,2.4883 1.791,2.1826 2.18265,1.79005 2.48925,1.332 2.7002,0.8184 2.81055,0.2773 2.80955,-0.2773 2.70115,-0.8184 2.4883,-1.332 2.1826,-1.79005 1.792,-2.1826 1.3301,-2.4883 0.8203,-2.7031 0.2754,-2.80765 -0.2754,-2.81055 -0.8203,-2.7002 -1.3301,-2.4902 -1.792,-2.18265 -2.1826,-1.79005 -2.4883,-1.33005 -2.70115,-0.8203 z"
     style="fill:#d3d3d3;stroke:#000000;stroke-width:0.94488192"
     inkscape:connector-curvature="0" />
  <path
     id="path4666"
     d="m 696.15023,175.1761 -2.81055,0.2764 -2.7002,0.8203 -2.48925,1.33005 -2.18265,1.79005 -1.791,2.18265 -1.33105,2.4902 -0.81935,2.7002 -0.27635,2.81055 0.27635,2.80765 0.81935,2.7031 1.33105,2.4883 1.791,2.1826 2.18265,1.79005 2.48925,1.332 2.7002,0.8184 2.81055,0.2773 2.80955,-0.2773 2.7002,-0.8184 2.48925,-1.332 2.1826,-1.79005 1.792,-2.1826 1.3301,-2.4883 0.8203,-2.7031 0.2754,-2.80765 -0.2754,-2.81055 -0.8203,-2.7002 -1.3301,-2.4902 -1.792,-2.18265 -2.1826,-1.79005 -2.48925,-1.33005 -2.7002,-0.8203 z"
     style="fill:#d3d3d3;stroke:#000000;stroke-width:0.94488192"
     inkscape:connector-curvature="0" />
  <path
     id="path4668"
     d="m 825.74983,250.00041 -2.81055,0.27535 -2.7002,0.82035 -2.48925,1.33105 -2.18265,1.791 -1.791,2.18065 -1.3301,2.4912 -0.8203,2.7002 -0.27635,2.8096 0.27635,2.81055 0.8203,2.7002 1.3301,2.48925 1.791,2.1826 2.18265,1.791 2.48925,1.3311 2.7002,0.81835 2.81055,0.27735 2.80955,-0.27735 2.70115,-0.81835 2.4883,-1.3311 2.1826,-1.791 1.792,-2.1826 1.3301,-2.48925 0.8203,-2.7002 0.2754,-2.81055 -0.2754,-2.8096 -0.8203,-2.7002 -1.3301,-2.4912 -1.792,-2.18065 -2.1826,-1.791 -2.4883,-1.33105 -2.70115,-0.82035 z"
     style="fill:#d3d3d3;stroke:#000000;stroke-width:0.94488192"
     inkscape:connector-curvature="0" />
  <path
     id="path4670"
     d="m 739.34994,250.00041 -2.8096,0.27535 -2.70115,0.82035 -2.4883,1.33105 -2.1826,1.791 -1.792,2.18065 -1.33005,2.4912 -0.82035,2.7002 -0.27635,2.8096 0.27635,2.81055 0.82035,2.7002 1.33005,2.48925 1.792,2.1826 2.1826,1.791 2.4883,1.3311 2.70115,0.81835 2.8096,0.27735 2.81055,-0.27735 2.7002,-0.81835 2.48825,-1.3311 2.18265,-1.791 1.79195,-2.1826 1.3301,-2.48925 0.8203,-2.7002 0.2764,-2.81055 -0.2764,-2.8096 -0.8203,-2.7002 -1.3301,-2.4912 -1.79195,-2.18065 -2.18265,-1.791 -2.48825,-1.33105 -2.7002,-0.82035 z"
     style="fill:#d3d3d3;stroke:#000000;stroke-width:0.94488192"
     inkscape:connector-curvature="0" />
  <path
     id="path4672"
     d="m 652.95005,250.00041 -2.8096,0.27535 -2.70115,0.82035 -2.4883,1.33105 -2.1826,1.791 -1.792,2.18065 -1.33005,2.4912 -0.82035,2.7002 -0.27535,2.8096 0.27535,2.81055 0.82035,2.7002 1.33005,2.48925 1.792,2.1826 2.1826,1.791 2.4883,1.3311 2.70115,0.81835 2.8096,0.27735 2.81055,-0.27735 2.7002,-0.81835 2.48925,-1.3311 2.1826,-1.791 1.791,-2.1826 1.3301,-2.48925 0.8203,-2.7002 0.2764,-2.81055 -0.2764,-2.8096 -0.8203,-2.7002 -1.3301,-2.4912 -1.791,-2.18065 -2.1826,-1.791 -2.48925,-1.33105 -2.7002,-0.82035 z"
     style="fill:#d3d3d3;stroke:#000000;stroke-width:0.94488192"
     inkscape:connector-curvature="0" />
  <path
     id="path4674"
     d="m 566.54964,250.00041 -2.80955,0.27535 -2.7002,0.82035 -2.4893,1.33105 -2.1826,1.791 -1.791,2.18065 -1.33105,2.4912 -0.82035,2.7002 -0.27535,2.8096 0.27535,2.81055 0.82035,2.7002 1.33105,2.48925 1.791,2.1826 2.1826,1.791 2.4893,1.3311 2.7002,0.81835 2.80955,0.27735 2.81055,-0.27735 2.7002,-0.81835 2.48925,-1.3311 2.1826,-1.791 1.79105,-2.1826 1.33105,-2.48925 0.8203,-2.7002 0.2754,-2.81055 -0.2754,-2.8096 -0.8203,-2.7002 -1.33105,-2.4912 -1.79105,-2.18065 -2.1826,-1.791 -2.48925,-1.33105 -2.7002,-0.82035 z"
     style="fill:#d3d3d3;stroke:#000000;stroke-width:0.94488192"
     inkscape:connector-curvature="0" />
  <path
     id="path4676"
     d="m 480.15023,250.00041 -2.81055,0.27535 -2.7002,0.82035 -2.48925,1.33105 -2.18265,1.791 -1.791,2.18065 -1.33105,2.4912 -0.81935,2.7002 -0.27635,2.8096 0.27635,2.81055 0.81935,2.7002 1.33105,2.48925 1.791,2.1826 2.18265,1.791 2.48925,1.3311 2.7002,0.81835 2.81055,0.27735 2.80955,-0.27735 2.7002,-0.81835 2.48925,-1.3311 2.1826,-1.791 1.792,-2.1826 1.3301,-2.48925 0.8203,-2.7002 0.2754,-2.81055 -0.2754,-2.8096 -0.8203,-2.7002 -1.3301,-2.4912 -1.792,-2.18065 -2.1826,-1.791 -2.48925,-1.33105 -2.7002,-0.82035 z"
     style="fill:#d3d3d3;stroke:#000000;stroke-width:0.94488192"
     inkscape:connector-curvature="0" />
  <path
     id="path4678"
     d="m 393.74983,250.00041 -2.81055,0.27535 -2.7002,0.82035 -2.48925,1.33105 -2.18265,1.791 -1.791,2.18065 -1.3301,2.4912 -0.8203,2.7002 -0.27635,2.8096 0.27635,2.81055 0.8203,2.7002 1.3301,2.48925 1.791,2.1826 2.18265,1.791 2.48925,1.3311 2.7002,0.81835 2.81055,0.27735 2.80955,-0.27735 2.70115,-0.81835 2.4883,-1.3311 2.1826,-1.791 1.792,-2.1826 1.3301,-2.48925 0.8203,-2.7002 0.2754,-2.81055 -0.2754,-2.8096 -0.8203,-2.7002 -1.3301,-2.4912 -1.792,-2.18065 -2.1826,-1.791 -2.4883,-1.33105 -2.70115,-0.82035 z"
     style="fill:#d3d3d3;stroke:#000000;stroke-width:0.94488192"
     inkscape:connector-curvature="0" />
  <path
     id="path4680"
     d="m 307.34994,250.00041 -2.8096,0.27535 -2.70115,0.82035 -2.4883,1.33105 -2.1826,1.791 -1.792,2.18065 -1.33005,2.4912 -0.82035,2.7002 -0.27635,2.8096 0.27635,2.81055 0.82035,2.7002 1.33005,2.48925 1.792,2.1826 2.1826,1.791 2.4883,1.3311 2.70115,0.81835 2.8096,0.27735 2.81055,-0.27735 2.7002,-0.81835 2.48825,-1.3311 2.18265,-1.791 1.79195,-2.1826 1.3301,-2.48925 0.8203,-2.7002 0.2764,-2.81055 -0.2764,-2.8096 -0.8203,-2.7002 -1.3301,-2.4912 -1.79195,-2.18065 -2.18265,-1.791 -2.48825,-1.33105 -2.7002,-0.82035 z"
     style="fill:#d3d3d3;stroke:#000000;stroke-width:0.94488192"
     inkscape:connector-curvature="0" />
  <path
     id="path4682"
     d="m 220.95005,250.00041 -2.8096,0.27535 -2.70115,0.82035 -2.4883,1.33105 -2.1826,1.791 -1.792,2.18065 -1.33005,2.4912 -0.82035,2.7002 -0.27535,2.8096 0.27535,2.81055 0.82035,2.7002 1.33005,2.48925 1.792,2.1826 2.1826,1.791 2.4883,1.3311 2.70115,0.81835 2.8096,0.27735 2.81055,-0.27735 2.7002,-0.81835 2.48925,-1.3311 2.1826,-1.791 1.791,-2.1826 1.3301,-2.48925 0.8203,-2.7002 0.2764,-2.81055 -0.2764,-2.8096 -0.8203,-2.7002 -1.3301,-2.4912 -1.791,-2.18065 -2.1826,-1.791 -2.48925,-1.33105 -2.7002,-0.82035 z"
     style="fill:#d3d3d3;stroke:#000000;stroke-width:0.94488192"
     inkscape:connector-curvature="0" />
  <path
     id="path4684"
     d="m 134.54965,250.00041 -2.80955,0.27535 -2.7002,0.82035 -2.4893,1.33105 -2.1826,1.791 -1.791,2.18065 -1.33105,2.4912 -0.82035,2.7002 -0.27535,2.8096 0.27535,2.81055 0.82035,2.7002 1.33105,2.48925 1.791,2.1826 2.1826,1.791 2.4893,1.3311 2.7002,0.81835 2.80955,0.27735 2.81055,-0.27735 2.7002,-0.81835 2.48925,-1.3311 2.1826,-1.791 1.79105,-2.1826 1.33105,-2.48925 0.8193,-2.7002 0.2764,-2.81055 -0.2764,-2.8096 -0.8193,-2.7002 -1.33105,-2.4912 -1.79105,-2.18065 -2.1826,-1.791 -2.48925,-1.33105 -2.7002,-0.82035 z"
     style="fill:#d3d3d3;stroke:#000000;stroke-width:0.94488192"
     inkscape:connector-curvature="0" />
  <path
     id="path4686"
     d="m 91.349936,324.82307 -2.8096,0.27835 -2.70115,0.81835 -2.4883,1.33005 -2.1826,1.792 -1.792,2.18265 -1.33005,2.48825 -0.82035,2.70215 -0.27635,2.8086 0.27635,2.80955 0.82035,2.7012 1.33005,2.49025 1.792,2.18065 2.1826,1.792 2.4883,1.33005 2.70115,0.8203 2.8096,0.2764 2.81055,-0.2764 2.700203,-0.8203 2.48825,-1.33005 2.182651,-1.792 1.79195,-2.18065 1.3301,-2.49025 0.8203,-2.7012 0.2764,-2.80955 -0.2764,-2.8086 -0.8203,-2.70215 -1.3301,-2.48825 -1.79195,-2.18265 -2.182651,-1.792 -2.48825,-1.33005 -2.700203,-0.81835 z"
     style="fill:#d3d3d3;stroke:#000000;stroke-width:0.94488192"
     inkscape:connector-curvature="0" />
  <path
     id="path4688"
     d="m 177.74983,324.82307 -2.81055,0.27835 -2.7002,0.81835 -2.48925,1.33005 -2.18265,1.792 -1.791,2.18265 -1.3301,2.48825 -0.8203,2.70215 -0.27635,2.8086 0.27635,2.80955 0.8203,2.7012 1.3301,2.49025 1.791,2.18065 2.18265,1.792 2.48925,1.33005 2.7002,0.8203 2.81055,0.2764 2.80955,-0.2764 2.70115,-0.8203 2.4883,-1.33005 2.1826,-1.792 1.792,-2.18065 1.3301,-2.49025 0.8203,-2.7012 0.2754,-2.80955 -0.2754,-2.8086 -0.8203,-2.70215 -1.3301,-2.48825 -1.792,-2.18265 -2.1826,-1.792 -2.4883,-1.33005 -2.70115,-0.81835 z"
     style="fill:#d3d3d3;stroke:#000000;stroke-width:0.94488192"
     inkscape:connector-curvature="0" />
  <path
     id="path4690"
     d="m 264.15023,324.82307 -2.81055,0.27835 -2.7002,0.81835 -2.48925,1.33005 -2.18265,1.792 -1.791,2.18265 -1.33105,2.48825 -0.81935,2.70215 -0.27635,2.8086 0.27635,2.80955 0.81935,2.7012 1.33105,2.49025 1.791,2.18065 2.18265,1.792 2.48925,1.33005 2.7002,0.8203 2.81055,0.2764 2.80955,-0.2764 2.7002,-0.8203 2.48925,-1.33005 2.1826,-1.792 1.792,-2.18065 1.3301,-2.49025 0.8203,-2.7012 0.2754,-2.80955 -0.2754,-2.8086 -0.8203,-2.70215 -1.3301,-2.48825 -1.792,-2.18265 -2.1826,-1.792 -2.48925,-1.33005 -2.7002,-0.81835 z"
     style="fill:#d3d3d3;stroke:#000000;stroke-width:0.94488192"
     inkscape:connector-curvature="0" />
  <path
     id="path4692"
     d="m 350.54964,324.82307 -2.80955,0.27835 -2.7002,0.81835 -2.4893,1.33005 -2.1826,1.792 -1.791,2.18265 -1.33105,2.48825 -0.82035,2.70215 -0.27535,2.8086 0.27535,2.80955 0.82035,2.7012 1.33105,2.49025 1.791,2.18065 2.1826,1.792 2.4893,1.33005 2.7002,0.8203 2.80955,0.2764 2.81055,-0.2764 2.7002,-0.8203 2.48925,-1.33005 2.1826,-1.792 1.79105,-2.18065 1.33105,-2.49025 0.8203,-2.7012 0.2754,-2.80955 -0.2754,-2.8086 -0.8203,-2.70215 -1.33105,-2.48825 -1.79105,-2.18265 -2.1826,-1.792 -2.48925,-1.33005 -2.7002,-0.81835 z"
     style="fill:#d3d3d3;stroke:#000000;stroke-width:0.94488192"
     inkscape:connector-curvature="0" />
  <path
     id="path4694"
     d="m 436.95005,324.82307 -2.8096,0.27835 -2.70115,0.81835 -2.4883,1.33005 -2.1826,1.792 -1.792,2.18265 -1.33005,2.48825 -0.82035,2.70215 -0.27535,2.8086 0.27535,2.80955 0.82035,2.7012 1.33005,2.49025 1.792,2.18065 2.1826,1.792 2.4883,1.33005 2.70115,0.8203 2.8096,0.2764 2.81055,-0.2764 2.7002,-0.8203 2.48925,-1.33005 2.1826,-1.792 1.791,-2.18065 1.3301,-2.49025 0.8203,-2.7012 0.2764,-2.80955 -0.2764,-2.8086 -0.8203,-2.70215 -1.3301,-2.48825 -1.791,-2.18265 -2.1826,-1.792 -2.48925,-1.33005 -2.7002,-0.81835 z"
     style="fill:#d3d3d3;stroke:#000000;stroke-width:0.94488192"
     inkscape:connector-curvature="0" />
  <path
     id="path4696"
     d="m 523.34994,324.82307 -2.8096,0.27835 -2.70115,0.81835 -2.4883,1.33005 -2.1826,1.792 -1.792,2.18265 -1.33005,2.48825 -0.82035,2.70215 -0.27635,2.8086 0.27635,2.80955 0.82035,2.7012 1.33005,2.49025 1.792,2.18065 2.1826,1.792 2.4883,1.33005 2.70115,0.8203 2.8096,0.2764 2.81055,-0.2764 2.7002,-0.8203 2.48825,-1.33005 2.18265,-1.792 1.79195,-2.18065 1.3301,-2.49025 0.8203,-2.7012 0.2764,-2.80955 -0.2764,-2.8086 -0.8203,-2.70215 -1.3301,-2.48825 -1.79195,-2.18265 -2.18265,-1.792 -2.48825,-1.33005 -2.7002,-0.81835 z"
     style="fill:#d3d3d3;stroke:#000000;stroke-width:0.94488192"
     inkscape:connector-curvature="0" />
  <path
     id="path4698"
     d="m 609.74983,324.82307 -2.81055,0.27835 -2.7002,0.81835 -2.48925,1.33005 -2.18265,1.792 -1.791,2.18265 -1.3301,2.48825 -0.8203,2.70215 -0.27635,2.8086 0.27635,2.80955 0.8203,2.7012 1.3301,2.49025 1.791,2.18065 2.18265,1.792 2.48925,1.33005 2.7002,0.8203 2.81055,0.2764 2.80955,-0.2764 2.70115,-0.8203 2.4883,-1.33005 2.1826,-1.792 1.792,-2.18065 1.3301,-2.49025 0.8203,-2.7012 0.2754,-2.80955 -0.2754,-2.8086 -0.8203,-2.70215 -1.3301,-2.48825 -1.792,-2.18265 -2.1826,-1.792 -2.4883,-1.33005 -2.70115,-0.81835 z"
     style="fill:#d3d3d3;stroke:#000000;stroke-width:0.94488192"
     inkscape:connector-curvature="0" />
  <path
     id="path4700"
     d="m 696.15023,324.82307 -2.81055,0.27835 -2.7002,0.81835 -2.48925,1.33005 -2.18265,1.792 -1.791,2.18265 -1.33105,2.48825 -0.81935,2.70215 -0.27635,2.8086 0.27635,2.80955 0.81935,2.7012 1.33105,2.49025 1.791,2.18065 2.18265,1.792 2.48925,1.33005 2.7002,0.8203 2.81055,0.2764 2.80955,-0.2764 2.7002,-0.8203 2.48925,-1.33005 2.1826,-1.792 1.792,-2.18065 1.3301,-2.49025 0.8203,-2.7012 0.2754,-2.80955 -0.2754,-2.8086 -0.8203,-2.70215 -1.3301,-2.48825 -1.792,-2.18265 -2.1826,-1.792 -2.48925,-1.33005 -2.7002,-0.81835 z"
     style="fill:#d3d3d3;stroke:#000000;stroke-width:0.94488192"
     inkscape:connector-curvature="0" />
  <path
     id="path4702"
     d="m 782.54964,324.82307 -2.80955,0.27835 -2.7002,0.81835 -2.4893,1.33005 -2.1826,1.792 -1.791,2.18265 -1.33105,2.48825 -0.82035,2.70215 -0.27535,2.8086 0.27535,2.80955 0.82035,2.7012 1.33105,2.49025 1.791,2.18065 2.1826,1.792 2.4893,1.33005 2.7002,0.8203 2.80955,0.2764 2.81055,-0.2764 2.7002,-0.8203 2.48925,-1.33005 2.1826,-1.792 1.79105,-2.18065 1.33105,-2.49025 0.8203,-2.7012 0.2754,-2.80955 -0.2754,-2.8086 -0.8203,-2.70215 -1.33105,-2.48825 -1.79105,-2.18265 -2.1826,-1.792 -2.48925,-1.33005 -2.7002,-0.81835 z"
     style="fill:#d3d3d3;stroke:#000000;stroke-width:0.94488192"
     inkscape:connector-curvature="0" />
  <path
     id="path4704"
     d="m 868.95005,324.82307 -2.8096,0.27835 -2.70115,0.81835 -2.4883,1.33005 -2.1826,1.792 -1.792,2.18265 -1.33005,2.48825 -0.82035,2.70215 -0.27535,2.8086 0.27535,2.80955 0.82035,2.7012 1.33005,2.49025 1.792,2.18065 2.1826,1.792 2.4883,1.33005 2.70115,0.8203 2.8096,0.2764 2.81055,-0.2764 2.7002,-0.8203 2.48925,-1.33005 2.1826,-1.792 1.791,-2.18065 1.3301,-2.49025 0.8203,-2.7012 0.2764,-2.80955 -0.2764,-2.8086 -0.8203,-2.70215 -1.3301,-2.48825 -1.791,-2.18265 -2.1826,-1.792 -2.48925,-1.33005 -2.7002,-0.81835 z"
     style="fill:#d3d3d3;stroke:#000000;stroke-width:0.94488192"
     inkscape:connector-curvature="0" />
  <path
     id="path4706"
     d="m 912.15023,399.65073 -2.81055,0.2754 -2.7002,0.82035 -2.48925,1.33105 -2.18265,1.78905 -1.791,2.1826 -1.33105,2.4912 -0.81935,2.7002 -0.27635,2.8096 0.27635,2.8086 0.81935,2.70215 1.33105,2.48925 1.791,2.1826 2.18265,1.78905 2.48925,1.333 2.7002,0.8184 2.81055,0.27735 2.80955,-0.27735 2.7002,-0.8184 2.48925,-1.333 2.1826,-1.78905 1.792,-2.1826 1.3301,-2.48925 0.8203,-2.70215 0.2754,-2.8086 -0.2754,-2.8096 -0.8203,-2.7002 -1.3301,-2.4912 -1.792,-2.1826 -2.1826,-1.78905 -2.48925,-1.33105 -2.7002,-0.82035 z"
     style="fill:#d3d3d3;stroke:#000000;stroke-width:0.94488192"
     inkscape:connector-curvature="0" />
  <path
     id="path4708"
     d="m 825.74983,399.65073 -2.81055,0.2754 -2.7002,0.82035 -2.48925,1.33105 -2.18265,1.78905 -1.791,2.1826 -1.3301,2.4912 -0.8203,2.7002 -0.27635,2.8096 0.27635,2.8086 0.8203,2.70215 1.3301,2.48925 1.791,2.1826 2.18265,1.78905 2.48925,1.333 2.7002,0.8184 2.81055,0.27735 2.80955,-0.27735 2.70115,-0.8184 2.4883,-1.333 2.1826,-1.78905 1.792,-2.1826 1.3301,-2.48925 0.8203,-2.70215 0.2754,-2.8086 -0.2754,-2.8096 -0.8203,-2.7002 -1.3301,-2.4912 -1.792,-2.1826 -2.1826,-1.78905 -2.4883,-1.33105 -2.70115,-0.82035 z"
     style="fill:#d3d3d3;stroke:#000000;stroke-width:0.94488192"
     inkscape:connector-curvature="0" />
  <path
     id="path4710"
     d="m 739.34994,399.65073 -2.8096,0.2754 -2.70115,0.82035 -2.4883,1.33105 -2.1826,1.78905 -1.792,2.1826 -1.33005,2.4912 -0.82035,2.7002 -0.27635,2.8096 0.27635,2.8086 0.82035,2.70215 1.33005,2.48925 1.792,2.1826 2.1826,1.78905 2.4883,1.333 2.70115,0.8184 2.8096,0.27735 2.81055,-0.27735 2.7002,-0.8184 2.48825,-1.333 2.18265,-1.78905 1.79195,-2.1826 1.3301,-2.48925 0.8203,-2.70215 0.2764,-2.8086 -0.2764,-2.8096 -0.8203,-2.7002 -1.3301,-2.4912 -1.79195,-2.1826 -2.18265,-1.78905 -2.48825,-1.33105 -2.7002,-0.82035 z"
     style="fill:#d3d3d3;stroke:#000000;stroke-width:0.94488192"
     inkscape:connector-curvature="0" />
  <path
     id="path4712"
     d="m 652.95005,399.65073 -2.8096,0.2754 -2.70115,0.82035 -2.4883,1.33105 -2.1826,1.78905 -1.792,2.1826 -1.33005,2.4912 -0.82035,2.7002 -0.27535,2.8096 0.27535,2.8086 0.82035,2.70215 1.33005,2.48925 1.792,2.1826 2.1826,1.78905 2.4883,1.333 2.70115,0.8184 2.8096,0.27735 2.81055,-0.27735 2.7002,-0.8184 2.48925,-1.333 2.1826,-1.78905 1.791,-2.1826 1.3301,-2.48925 0.8203,-2.70215 0.2764,-2.8086 -0.2764,-2.8096 -0.8203,-2.7002 -1.3301,-2.4912 -1.791,-2.1826 -2.1826,-1.78905 -2.48925,-1.33105 -2.7002,-0.82035 z"
     style="fill:#d3d3d3;stroke:#000000;stroke-width:0.94488192"
     inkscape:connector-curvature="0" />
  <path
     id="path4714"
     d="m 566.54964,399.65073 -2.80955,0.2754 -2.7002,0.82035 -2.4893,1.33105 -2.1826,1.78905 -1.791,2.1826 -1.33105,2.4912 -0.82035,2.7002 -0.27535,2.8096 0.27535,2.8086 0.82035,2.70215 1.33105,2.48925 1.791,2.1826 2.1826,1.78905 2.4893,1.333 2.7002,0.8184 2.80955,0.27735 2.81055,-0.27735 2.7002,-0.8184 2.48925,-1.333 2.1826,-1.78905 1.79105,-2.1826 1.33105,-2.48925 0.8203,-2.70215 0.2754,-2.8086 -0.2754,-2.8096 -0.8203,-2.7002 -1.33105,-2.4912 -1.79105,-2.1826 -2.1826,-1.78905 -2.48925,-1.33105 -2.7002,-0.82035 z"
     style="fill:#d3d3d3;stroke:#000000;stroke-width:0.94488192"
     inkscape:connector-curvature="0" />
  <path
     id="path4716"
     d="m 480.15023,399.65073 -2.81055,0.2754 -2.7002,0.82035 -2.48925,1.33105 -2.18265,1.78905 -1.791,2.1826 -1.33105,2.4912 -0.81935,2.7002 -0.27635,2.8096 0.27635,2.8086 0.81935,2.70215 1.33105,2.48925 1.791,2.1826 2.18265,1.78905 2.48925,1.333 2.7002,0.8184 2.81055,0.27735 2.80955,-0.27735 2.7002,-0.8184 2.48925,-1.333 2.1826,-1.78905 1.792,-2.1826 1.3301,-2.48925 0.8203,-2.70215 0.2754,-2.8086 -0.2754,-2.8096 -0.8203,-2.7002 -1.3301,-2.4912 -1.792,-2.1826 -2.1826,-1.78905 -2.48925,-1.33105 -2.7002,-0.82035 z"
     style="fill:#d3d3d3;stroke:#000000;stroke-width:0.94488192"
     inkscape:connector-curvature="0" />
  <path
     id="path4718"
     d="m 393.74983,399.65073 -2.81055,0.2754 -2.7002,0.82035 -2.48925,1.33105 -2.18265,1.78905 -1.791,2.1826 -1.3301,2.4912 -0.8203,2.7002 -0.27635,2.8096 0.27635,2.8086 0.8203,2.70215 1.3301,2.48925 1.791,2.1826 2.18265,1.78905 2.48925,1.333 2.7002,0.8184 2.81055,0.27735 2.80955,-0.27735 2.70115,-0.8184 2.4883,-1.333 2.1826,-1.78905 1.792,-2.1826 1.3301,-2.48925 0.8203,-2.70215 0.2754,-2.8086 -0.2754,-2.8096 -0.8203,-2.7002 -1.3301,-2.4912 -1.792,-2.1826 -2.1826,-1.78905 -2.4883,-1.33105 -2.70115,-0.82035 z"
     style="fill:#d3d3d3;stroke:#000000;stroke-width:0.94488192"
     inkscape:connector-curvature="0" />
  <path
     id="path4720"
     d="m 307.34994,399.65073 -2.8096,0.2754 -2.70115,0.82035 -2.4883,1.33105 -2.1826,1.78905 -1.792,2.1826 -1.33005,2.4912 -0.82035,2.7002 -0.27635,2.8096 0.27635,2.8086 0.82035,2.70215 1.33005,2.48925 1.792,2.1826 2.1826,1.78905 2.4883,1.333 2.70115,0.8184 2.8096,0.27735 2.81055,-0.27735 2.7002,-0.8184 2.48825,-1.333 2.18265,-1.78905 1.79195,-2.1826 1.3301,-2.48925 0.8203,-2.70215 0.2764,-2.8086 -0.2764,-2.8096 -0.8203,-2.7002 -1.3301,-2.4912 -1.79195,-2.1826 -2.18265,-1.78905 -2.48825,-1.33105 -2.7002,-0.82035 z"
     style="fill:#d3d3d3;stroke:#000000;stroke-width:0.94488192"
     inkscape:connector-curvature="0" />
  <path
     id="path4722"
     d="m 220.95005,399.65073 -2.8096,0.2754 -2.70115,0.82035 -2.4883,1.33105 -2.1826,1.78905 -1.792,2.1826 -1.33005,2.4912 -0.82035,2.7002 -0.27535,2.8096 0.27535,2.8086 0.82035,2.70215 1.33005,2.48925 1.792,2.1826 2.1826,1.78905 2.4883,1.333 2.70115,0.8184 2.8096,0.27735 2.81055,-0.27735 2.7002,-0.8184 2.48925,-1.333 2.1826,-1.78905 1.791,-2.1826 1.3301,-2.48925 0.8203,-2.70215 0.2764,-2.8086 -0.2764,-2.8096 -0.8203,-2.7002 -1.3301,-2.4912 -1.791,-2.1826 -2.1826,-1.78905 -2.48925,-1.33105 -2.7002,-0.82035 z"
     style="fill:#d3d3d3;stroke:#000000;stroke-width:0.94488192"
     inkscape:connector-curvature="0" />
  <path
     id="path4724"
     d="m 134.54965,399.65073 -2.80955,0.2754 -2.7002,0.82035 -2.4893,1.33105 -2.1826,1.78905 -1.791,2.1826 -1.33105,2.4912 -0.82035,2.7002 -0.27535,2.8096 0.27535,2.8086 0.82035,2.70215 1.33105,2.48925 1.791,2.1826 2.1826,1.78905 2.4893,1.333 2.7002,0.8184 2.80955,0.27735 2.81055,-0.27735 2.7002,-0.8184 2.48925,-1.333 2.1826,-1.78905 1.79105,-2.1826 1.33105,-2.48925 0.8193,-2.70215 0.2764,-2.8086 -0.2764,-2.8096 -0.8193,-2.7002 -1.33105,-2.4912 -1.79105,-2.1826 -2.1826,-1.78905 -2.48925,-1.33105 -2.7002,-0.82035 z"
     style="fill:#d3d3d3;stroke:#000000;stroke-width:0.94488192"
     inkscape:connector-curvature="0" />
  <path
     id="path4726"
     d="m 91.349936,474.47349 -2.8096,0.27635 -2.70115,0.82035 -2.4883,1.33005 -2.1826,1.792 -1.792,2.18065 -1.33005,2.49025 -0.82035,2.7002 -0.27635,2.81055 0.27635,2.80955 0.82035,2.7012 1.33005,2.48825 1.792,2.18265 2.1826,1.792 2.4883,1.33005 2.70115,0.8203 2.8096,0.2764 2.81055,-0.2764 2.700203,-0.8203 2.48825,-1.33005 2.182651,-1.792 1.79195,-2.18265 1.3301,-2.48825 0.8203,-2.7012 0.2764,-2.80955 -0.2764,-2.81055 -0.8203,-2.7002 -1.3301,-2.49025 -1.79195,-2.18065 -2.182651,-1.792 -2.48825,-1.33005 -2.700203,-0.82035 z"
     style="fill:#d3d3d3;stroke:#000000;stroke-width:0.94488192"
     inkscape:connector-curvature="0" />
  <path
     id="path4728"
     d="m 177.74983,474.47349 -2.81055,0.27635 -2.7002,0.82035 -2.48925,1.33005 -2.18265,1.792 -1.791,2.18065 -1.3301,2.49025 -0.8203,2.7002 -0.27635,2.81055 0.27635,2.80955 0.8203,2.7012 1.3301,2.48825 1.791,2.18265 2.18265,1.792 2.48925,1.33005 2.7002,0.8203 2.81055,0.2764 2.80955,-0.2764 2.70115,-0.8203 2.4883,-1.33005 2.1826,-1.792 1.792,-2.18265 1.3301,-2.48825 0.8203,-2.7012 0.2754,-2.80955 -0.2754,-2.81055 -0.8203,-2.7002 -1.3301,-2.49025 -1.792,-2.18065 -2.1826,-1.792 -2.4883,-1.33005 -2.70115,-0.82035 z"
     style="fill:#d3d3d3;stroke:#000000;stroke-width:0.94488192"
     inkscape:connector-curvature="0" />
  <path
     id="path4730"
     d="m 264.15023,474.47349 -2.81055,0.27635 -2.7002,0.82035 -2.48925,1.33005 -2.18265,1.792 -1.791,2.18065 -1.33105,2.49025 -0.81935,2.7002 -0.27635,2.81055 0.27635,2.80955 0.81935,2.7012 1.33105,2.48825 1.791,2.18265 2.18265,1.792 2.48925,1.33005 2.7002,0.8203 2.81055,0.2764 2.80955,-0.2764 2.7002,-0.8203 2.48925,-1.33005 2.1826,-1.792 1.792,-2.18265 1.3301,-2.48825 0.8203,-2.7012 0.2754,-2.80955 -0.2754,-2.81055 -0.8203,-2.7002 -1.3301,-2.49025 -1.792,-2.18065 -2.1826,-1.792 -2.48925,-1.33005 -2.7002,-0.82035 z"
     style="fill:#d3d3d3;stroke:#000000;stroke-width:0.94488192"
     inkscape:connector-curvature="0" />
  <path
     id="path4732"
     d="m 350.54964,474.47349 -2.80955,0.27635 -2.7002,0.82035 -2.4893,1.33005 -2.1826,1.792 -1.791,2.18065 -1.33105,2.49025 -0.82035,2.7002 -0.27535,2.81055 0.27535,2.80955 0.82035,2.7012 1.33105,2.48825 1.791,2.18265 2.1826,1.792 2.4893,1.33005 2.7002,0.8203 2.80955,0.2764 2.81055,-0.2764 2.7002,-0.8203 2.48925,-1.33005 2.1826,-1.792 1.79105,-2.18265 1.33105,-2.48825 0.8203,-2.7012 0.2754,-2.80955 -0.2754,-2.81055 -0.8203,-2.7002 -1.33105,-2.49025 -1.79105,-2.18065 -2.1826,-1.792 -2.48925,-1.33005 -2.7002,-0.82035 z"
     style="fill:#d3d3d3;stroke:#000000;stroke-width:0.94488192"
     inkscape:connector-curvature="0" />
  <path
     id="path4734"
     d="m 436.95005,474.47349 -2.8096,0.27635 -2.70115,0.82035 -2.4883,1.33005 -2.1826,1.792 -1.792,2.18065 -1.33005,2.49025 -0.82035,2.7002 -0.27535,2.81055 0.27535,2.80955 0.82035,2.7012 1.33005,2.48825 1.792,2.18265 2.1826,1.792 2.4883,1.33005 2.70115,0.8203 2.8096,0.2764 2.81055,-0.2764 2.7002,-0.8203 2.48925,-1.33005 2.1826,-1.792 1.791,-2.18265 1.3301,-2.48825 0.8203,-2.7012 0.2764,-2.80955 -0.2764,-2.81055 -0.8203,-2.7002 -1.3301,-2.49025 -1.791,-2.18065 -2.1826,-1.792 -2.48925,-1.33005 -2.7002,-0.82035 z"
     style="fill:#d3d3d3;stroke:#000000;stroke-width:0.94488192"
     inkscape:connector-curvature="0" />
  <path
     id="path4736"
     d="m 523.34994,474.47349 -2.8096,0.27635 -2.70115,0.82035 -2.4883,1.33005 -2.1826,1.792 -1.792,2.18065 -1.33005,2.49025 -0.82035,2.7002 -0.27635,2.81055 0.27635,2.80955 0.82035,2.7012 1.33005,2.48825 1.792,2.18265 2.1826,1.792 2.4883,1.33005 2.70115,0.8203 2.8096,0.2764 2.81055,-0.2764 2.7002,-0.8203 2.48825,-1.33005 2.18265,-1.792 1.79195,-2.18265 1.3301,-2.48825 0.8203,-2.7012 0.2764,-2.80955 -0.2764,-2.81055 -0.8203,-2.7002 -1.3301,-2.49025 -1.79195,-2.18065 -2.18265,-1.792 -2.48825,-1.33005 -2.7002,-0.82035 z"
     style="fill:#d3d3d3;stroke:#000000;stroke-width:0.94488192"
     inkscape:connector-curvature="0" />
  <path
     id="path4738"
     d="m 609.74983,474.47349 -2.81055,0.27635 -2.7002,0.82035 -2.48925,1.33005 -2.18265,1.792 -1.791,2.18065 -1.3301,2.49025 -0.8203,2.7002 -0.27635,2.81055 0.27635,2.80955 0.8203,2.7012 1.3301,2.48825 1.791,2.18265 2.18265,1.792 2.48925,1.33005 2.7002,0.8203 2.81055,0.2764 2.80955,-0.2764 2.70115,-0.8203 2.4883,-1.33005 2.1826,-1.792 1.792,-2.18265 1.3301,-2.48825 0.8203,-2.7012 0.2754,-2.80955 -0.2754,-2.81055 -0.8203,-2.7002 -1.3301,-2.49025 -1.792,-2.18065 -2.1826,-1.792 -2.4883,-1.33005 -2.70115,-0.82035 z"
     style="fill:#d3d3d3;stroke:#000000;stroke-width:0.94488192"
     inkscape:connector-curvature="0" />
  <path
     id="path4740"
     d="m 696.15023,474.47349 -2.81055,0.27635 -2.7002,0.82035 -2.48925,1.33005 -2.18265,1.792 -1.791,2.18065 -1.33105,2.49025 -0.81935,2.7002 -0.27635,2.81055 0.27635,2.80955 0.81935,2.7012 1.33105,2.48825 1.791,2.18265 2.18265,1.792 2.48925,1.33005 2.7002,0.8203 2.81055,0.2764 2.80955,-0.2764 2.7002,-0.8203 2.48925,-1.33005 2.1826,-1.792 1.792,-2.18265 1.3301,-2.48825 0.8203,-2.7012 0.2754,-2.80955 -0.2754,-2.81055 -0.8203,-2.7002 -1.3301,-2.49025 -1.792,-2.18065 -2.1826,-1.792 -2.48925,-1.33005 -2.7002,-0.82035 z"
     style="fill:#d3d3d3;stroke:#000000;stroke-width:0.94488192"
     inkscape:connector-curvature="0" />
  <path
     id="path4742"
     d="m 782.54964,474.47349 -2.80955,0.27635 -2.7002,0.82035 -2.4893,1.33005 -2.1826,1.792 -1.791,2.18065 -1.33105,2.49025 -0.82035,2.7002 -0.27535,2.81055 0.27535,2.80955 0.82035,2.7012 1.33105,2.48825 1.791,2.18265 2.1826,1.792 2.4893,1.33005 2.7002,0.8203 2.80955,0.2764 2.81055,-0.2764 2.7002,-0.8203 2.48925,-1.33005 2.1826,-1.792 1.79105,-2.18265 1.33105,-2.48825 0.8203,-2.7012 0.2754,-2.80955 -0.2754,-2.81055 -0.8203,-2.7002 -1.33105,-2.49025 -1.79105,-2.18065 -2.1826,-1.792 -2.48925,-1.33005 -2.7002,-0.82035 z"
     style="fill:#d3d3d3;stroke:#000000;stroke-width:0.94488192"
     inkscape:connector-curvature="0" />
  <path
     id="path4744"
     d="m 868.95005,474.47349 -2.8096,0.27635 -2.70115,0.82035 -2.4883,1.33005 -2.1826,1.792 -1.792,2.18065 -1.33005,2.49025 -0.82035,2.7002 -0.27535,2.81055 0.27535,2.80955 0.82035,2.7012 1.33005,2.48825 1.792,2.18265 2.1826,1.792 2.4883,1.33005 2.70115,0.8203 2.8096,0.2764 2.81055,-0.2764 2.7002,-0.8203 2.48925,-1.33005 2.1826,-1.792 1.791,-2.18265 1.3301,-2.48825 0.8203,-2.7012 0.2764,-2.80955 -0.2764,-2.81055 -0.8203,-2.7002 -1.3301,-2.49025 -1.791,-2.18065 -2.1826,-1.792 -2.48925,-1.33005 -2.7002,-0.82035 z"
     style="fill:#d3d3d3;stroke:#000000;stroke-width:0.94488192"
     inkscape:connector-curvature="0" />
  <path
     id="path4746"
     d="m 825.74983,549.29717 -2.81055,0.27735 -2.7002,0.81835 -2.48925,1.33105 -2.18265,1.79105 -1.791,2.1826 -1.3301,2.48925 -0.8203,2.70215 -0.27635,2.80765 0.27635,2.81055 0.8203,2.70015 1.3301,2.49125 1.791,2.18065 2.18265,1.791 2.48925,1.33105 2.7002,0.82035 2.81055,0.27535 2.80955,-0.27535 2.70115,-0.82035 2.4883,-1.33105 2.1826,-1.791 1.792,-2.18065 1.3301,-2.49125 0.8203,-2.70015 0.2754,-2.81055 -0.2754,-2.80765 -0.8203,-2.70215 -1.3301,-2.48925 -1.792,-2.1826 -2.1826,-1.79105 -2.4883,-1.33105 -2.70115,-0.81835 z"
     style="fill:#d3d3d3;stroke:#000000;stroke-width:0.94488192"
     inkscape:connector-curvature="0" />
  <path
     id="path4748"
     d="m 739.34994,549.29717 -2.8096,0.27735 -2.70115,0.81835 -2.4883,1.33105 -2.1826,1.79105 -1.792,2.1826 -1.33005,2.48925 -0.82035,2.70215 -0.27635,2.80765 0.27635,2.81055 0.82035,2.70015 1.33005,2.49125 1.792,2.18065 2.1826,1.791 2.4883,1.33105 2.70115,0.82035 2.8096,0.27535 2.81055,-0.27535 2.7002,-0.82035 2.48825,-1.33105 2.18265,-1.791 1.79195,-2.18065 1.3301,-2.49125 0.8203,-2.70015 0.2764,-2.81055 -0.2764,-2.80765 -0.8203,-2.70215 -1.3301,-2.48925 -1.79195,-2.1826 -2.18265,-1.79105 -2.48825,-1.33105 -2.7002,-0.81835 z"
     style="fill:#d3d3d3;stroke:#000000;stroke-width:0.94488192"
     inkscape:connector-curvature="0" />
  <path
     id="path4750"
     d="m 652.95005,549.29717 -2.8096,0.27735 -2.70115,0.81835 -2.4883,1.33105 -2.1826,1.79105 -1.792,2.1826 -1.33005,2.48925 -0.82035,2.70215 -0.27535,2.80765 0.27535,2.81055 0.82035,2.70015 1.33005,2.49125 1.792,2.18065 2.1826,1.791 2.4883,1.33105 2.70115,0.82035 2.8096,0.27535 2.81055,-0.27535 2.7002,-0.82035 2.48925,-1.33105 2.1826,-1.791 1.791,-2.18065 1.3301,-2.49125 0.8203,-2.70015 0.2764,-2.81055 -0.2764,-2.80765 -0.8203,-2.70215 -1.3301,-2.48925 -1.791,-2.1826 -2.1826,-1.79105 -2.48925,-1.33105 -2.7002,-0.81835 z"
     style="fill:#d3d3d3;stroke:#000000;stroke-width:0.94488192"
     inkscape:connector-curvature="0" />
  <path
     id="path4752"
     d="m 566.54964,549.29717 -2.80955,0.27735 -2.7002,0.81835 -2.4893,1.33105 -2.1826,1.79105 -1.791,2.1826 -1.33105,2.48925 -0.82035,2.70215 -0.27535,2.80765 0.27535,2.81055 0.82035,2.70015 1.33105,2.49125 1.791,2.18065 2.1826,1.791 2.4893,1.33105 2.7002,0.82035 2.80955,0.27535 2.81055,-0.27535 2.7002,-0.82035 2.48925,-1.33105 2.1826,-1.791 1.79105,-2.18065 1.33105,-2.49125 0.8203,-2.70015 0.2754,-2.81055 -0.2754,-2.80765 -0.8203,-2.70215 -1.33105,-2.48925 -1.79105,-2.1826 -2.1826,-1.79105 -2.48925,-1.33105 -2.7002,-0.81835 z"
     style="fill:#d3d3d3;stroke:#000000;stroke-width:0.94488192"
     inkscape:connector-curvature="0" />
  <path
     id="path4754"
     d="m 480.15023,549.29717 -2.81055,0.27735 -2.7002,0.81835 -2.48925,1.33105 -2.18265,1.79105 -1.791,2.1826 -1.33105,2.48925 -0.81935,2.70215 -0.27635,2.80765 0.27635,2.81055 0.81935,2.70015 1.33105,2.49125 1.791,2.18065 2.18265,1.791 2.48925,1.33105 2.7002,0.82035 2.81055,0.27535 2.80955,-0.27535 2.7002,-0.82035 2.48925,-1.33105 2.1826,-1.791 1.792,-2.18065 1.3301,-2.49125 0.8203,-2.70015 0.2754,-2.81055 -0.2754,-2.80765 -0.8203,-2.70215 -1.3301,-2.48925 -1.792,-2.1826 -2.1826,-1.79105 -2.48925,-1.33105 -2.7002,-0.81835 z"
     style="fill:#d3d3d3;stroke:#000000;stroke-width:0.94488192"
     inkscape:connector-curvature="0" />
  <path
     id="path4756"
     d="m 393.74983,549.29717 -2.81055,0.27735 -2.7002,0.81835 -2.48925,1.33105 -2.18265,1.79105 -1.791,2.1826 -1.3301,2.48925 -0.8203,2.70215 -0.27635,2.80765 0.27635,2.81055 0.8203,2.70015 1.3301,2.49125 1.791,2.18065 2.18265,1.791 2.48925,1.33105 2.7002,0.82035 2.81055,0.27535 2.80955,-0.27535 2.70115,-0.82035 2.4883,-1.33105 2.1826,-1.791 1.792,-2.18065 1.3301,-2.49125 0.8203,-2.70015 0.2754,-2.81055 -0.2754,-2.80765 -0.8203,-2.70215 -1.3301,-2.48925 -1.792,-2.1826 -2.1826,-1.79105 -2.4883,-1.33105 -2.70115,-0.81835 z"
     style="fill:#d3d3d3;stroke:#000000;stroke-width:0.94488192"
     inkscape:connector-curvature="0" />
  <path
     id="path4758"
     d="m 307.34994,549.29717 -2.8096,0.27735 -2.70115,0.81835 -2.4883,1.33105 -2.1826,1.79105 -1.792,2.1826 -1.33005,2.48925 -0.82035,2.70215 -0.27635,2.80765 0.27635,2.81055 0.82035,2.70015 1.33005,2.49125 1.792,2.18065 2.1826,1.791 2.4883,1.33105 2.70115,0.82035 2.8096,0.27535 2.81055,-0.27535 2.7002,-0.82035 2.48825,-1.33105 2.18265,-1.791 1.79195,-2.18065 1.3301,-2.49125 0.8203,-2.70015 0.2764,-2.81055 -0.2764,-2.80765 -0.8203,-2.70215 -1.3301,-2.48925 -1.79195,-2.1826 -2.18265,-1.79105 -2.48825,-1.33105 -2.7002,-0.81835 z"
     style="fill:#d3d3d3;stroke:#000000;stroke-width:0.94488192"
     inkscape:connector-curvature="0" />
  <path
     id="path4760"
     d="m 220.95005,549.29717 -2.8096,0.27735 -2.70115,0.81835 -2.4883,1.33105 -2.1826,1.79105 -1.792,2.1826 -1.33005,2.48925 -0.82035,2.70215 -0.27535,2.80765 0.27535,2.81055 0.82035,2.70015 1.33005,2.49125 1.792,2.18065 2.1826,1.791 2.4883,1.33105 2.70115,0.82035 2.8096,0.27535 2.81055,-0.27535 2.7002,-0.82035 2.48925,-1.33105 2.1826,-1.791 1.791,-2.18065 1.3301,-2.49125 0.8203,-2.70015 0.2764,-2.81055 -0.2764,-2.80765 -0.8203,-2.70215 -1.3301,-2.48925 -1.791,-2.1826 -2.1826,-1.79105 -2.48925,-1.33105 -2.7002,-0.81835 z"
     style="fill:#d3d3d3;stroke:#000000;stroke-width:0.94488192"
     inkscape:connector-curvature="0" />
  <path
     id="path4762"
     d="m 134.54965,549.29717 -2.80955,0.27735 -2.7002,0.81835 -2.4893,1.33105 -2.1826,1.79105 -1.791,2.1826 -1.33105,2.48925 -0.82035,2.70215 -0.27535,2.80765 0.27535,2.81055 0.82035,2.70015 1.33105,2.49125 1.791,2.18065 2.1826,1.791 2.4893,1.33105 2.7002,0.82035 2.80955,0.27535 2.81055,-0.27535 2.7002,-0.82035 2.48925,-1.33105 2.1826,-1.791 1.79105,-2.18065 1.33105,-2.49125 0.8193,-2.70015 0.2764,-2.81055 -0.2764,-2.80765 -0.8193,-2.70215 -1.33105,-2.48925 -1.79105,-2.1826 -2.1826,-1.79105 -2.48925,-1.33105 -2.7002,-0.81835 z"
     style="fill:#d3d3d3;stroke:#000000;stroke-width:0.94488192"
     inkscape:connector-curvature="0" />
  <path
     id="path4764"
     d="m 696.15023,624.12391 -2.81055,0.27635 -2.7002,0.82035 -2.48925,1.33005 -2.18265,1.79005 -1.791,2.1826 -1.33105,2.49025 -0.81935,2.7002 -0.27635,2.81055 0.27635,2.8086 0.81935,2.70215 1.33105,2.48825 1.791,2.18265 2.18265,1.79 2.48925,1.33205 2.7002,0.81835 2.81055,0.27835 2.80955,-0.27835 2.7002,-0.81835 2.48925,-1.33205 2.1826,-1.79 1.792,-2.18265 1.3301,-2.48825 0.8203,-2.70215 0.2754,-2.8086 -0.2754,-2.81055 -0.8203,-2.7002 -1.3301,-2.49025 -1.792,-2.1826 -2.1826,-1.79005 -2.48925,-1.33005 -2.7002,-0.82035 z"
     style="fill:#d3d3d3;stroke:#000000;stroke-width:0.94488192"
     inkscape:connector-curvature="0" />
  <path
     id="path4766"
     d="m 609.74983,624.12391 -2.81055,0.27635 -2.7002,0.82035 -2.48925,1.33005 -2.18265,1.79005 -1.791,2.1826 -1.3301,2.49025 -0.8203,2.7002 -0.27635,2.81055 0.27635,2.8086 0.8203,2.70215 1.3301,2.48825 1.791,2.18265 2.18265,1.79 2.48925,1.33205 2.7002,0.81835 2.81055,0.27835 2.80955,-0.27835 2.70115,-0.81835 2.4883,-1.33205 2.1826,-1.79 1.792,-2.18265 1.3301,-2.48825 0.8203,-2.70215 0.2754,-2.8086 -0.2754,-2.81055 -0.8203,-2.7002 -1.3301,-2.49025 -1.792,-2.1826 -2.1826,-1.79005 -2.4883,-1.33005 -2.70115,-0.82035 z"
     style="fill:#d3d3d3;stroke:#000000;stroke-width:0.94488192"
     inkscape:connector-curvature="0" />
  <path
     id="path4768"
     d="m 523.34994,624.12391 -2.8096,0.27635 -2.70115,0.82035 -2.4883,1.33005 -2.1826,1.79005 -1.792,2.1826 -1.33005,2.49025 -0.82035,2.7002 -0.27635,2.81055 0.27635,2.8086 0.82035,2.70215 1.33005,2.48825 1.792,2.18265 2.1826,1.79 2.4883,1.33205 2.70115,0.81835 2.8096,0.27835 2.81055,-0.27835 2.7002,-0.81835 2.48825,-1.33205 2.18265,-1.79 1.79195,-2.18265 1.3301,-2.48825 0.8203,-2.70215 0.2764,-2.8086 -0.2764,-2.81055 -0.8203,-2.7002 -1.3301,-2.49025 -1.79195,-2.1826 -2.18265,-1.79005 -2.48825,-1.33005 -2.7002,-0.82035 z"
     style="fill:#d3d3d3;stroke:#000000;stroke-width:0.94488192"
     inkscape:connector-curvature="0" />
  <path
     id="path4770"
     d="m 436.95005,624.12391 -2.8096,0.27635 -2.70115,0.82035 -2.4883,1.33005 -2.1826,1.79005 -1.792,2.1826 -1.33005,2.49025 -0.82035,2.7002 -0.27535,2.81055 0.27535,2.8086 0.82035,2.70215 1.33005,2.48825 1.792,2.18265 2.1826,1.79 2.4883,1.33205 2.70115,0.81835 2.8096,0.27835 2.81055,-0.27835 2.7002,-0.81835 2.48925,-1.33205 2.1826,-1.79 1.791,-2.18265 1.3301,-2.48825 0.8203,-2.70215 0.2764,-2.8086 -0.2764,-2.81055 -0.8203,-2.7002 -1.3301,-2.49025 -1.791,-2.1826 -2.1826,-1.79005 -2.48925,-1.33005 -2.7002,-0.82035 z"
     style="fill:#d3d3d3;stroke:#000000;stroke-width:0.94488192"
     inkscape:connector-curvature="0" />
  <path
     id="path4772"
     d="m 350.54964,624.12391 -2.80955,0.27635 -2.7002,0.82035 -2.4893,1.33005 -2.1826,1.79005 -1.791,2.1826 -1.33105,2.49025 -0.82035,2.7002 -0.27535,2.81055 0.27535,2.8086 0.82035,2.70215 1.33105,2.48825 1.791,2.18265 2.1826,1.79 2.4893,1.33205 2.7002,0.81835 2.80955,0.27835 2.81055,-0.27835 2.7002,-0.81835 2.48925,-1.33205 2.1826,-1.79 1.79105,-2.18265 1.33105,-2.48825 0.8203,-2.70215 0.2754,-2.8086 -0.2754,-2.81055 -0.8203,-2.7002 -1.33105,-2.49025 -1.79105,-2.1826 -2.1826,-1.79005 -2.48925,-1.33005 -2.7002,-0.82035 z"
     style="fill:#d3d3d3;stroke:#000000;stroke-width:0.94488192"
     inkscape:connector-curvature="0" />
  <path
     id="path4774"
     d="m 264.15023,624.12391 -2.81055,0.27635 -2.7002,0.82035 -2.48925,1.33005 -2.18265,1.79005 -1.791,2.1826 -1.33105,2.49025 -0.81935,2.7002 -0.27635,2.81055 0.27635,2.8086 0.81935,2.70215 1.33105,2.48825 1.791,2.18265 2.18265,1.79 2.48925,1.33205 2.7002,0.81835 2.81055,0.27835 2.80955,-0.27835 2.7002,-0.81835 2.48925,-1.33205 2.1826,-1.79 1.792,-2.18265 1.3301,-2.48825 0.8203,-2.70215 0.2754,-2.8086 -0.2754,-2.81055 -0.8203,-2.7002 -1.3301,-2.49025 -1.792,-2.1826 -2.1826,-1.79005 -2.48925,-1.33005 -2.7002,-0.82035 z"
     style="fill:#d3d3d3;stroke:#000000;stroke-width:0.94488192"
     inkscape:connector-curvature="0" />
  <path
     id="path4776"
     d="m 177.74983,624.12391 -2.81055,0.27635 -2.7002,0.82035 -2.48925,1.33005 -2.18265,1.79005 -1.791,2.1826 -1.3301,2.49025 -0.8203,2.7002 -0.27635,2.81055 0.27635,2.8086 0.8203,2.70215 1.3301,2.48825 1.791,2.18265 2.18265,1.79 2.48925,1.33205 2.7002,0.81835 2.81055,0.27835 2.80955,-0.27835 2.70115,-0.81835 2.4883,-1.33205 2.1826,-1.79 1.792,-2.18265 1.3301,-2.48825 0.8203,-2.70215 0.2754,-2.8086 -0.2754,-2.81055 -0.8203,-2.7002 -1.3301,-2.49025 -1.792,-2.1826 -2.1826,-1.79005 -2.4883,-1.33005 -2.70115,-0.82035 z"
     style="fill:#d3d3d3;stroke:#000000;stroke-width:0.94488192"
     inkscape:connector-curvature="0" />
  <path
     id="path4778"
     d="m 566.54964,698.94759 -2.80955,0.2754 -2.7002,0.8203 -2.4893,1.33105 -2.1826,1.79105 -1.791,2.1826 -1.33105,2.48925 -0.82035,2.7002 -0.27535,2.80955 0.27535,2.81055 0.82035,2.7002 1.33105,2.48925 1.791,2.18265 2.1826,1.791 2.4893,1.33105 2.7002,0.8203 2.80955,0.2754 2.81055,-0.2754 2.7002,-0.8203 2.48925,-1.33105 2.1826,-1.791 1.79105,-2.18265 1.33105,-2.48925 0.8203,-2.7002 0.2754,-2.81055 -0.2754,-2.80955 -0.8203,-2.7002 -1.33105,-2.48925 -1.79105,-2.1826 -2.1826,-1.79105 -2.48925,-1.33105 -2.7002,-0.8203 z"
     style="fill:#d3d3d3;stroke:#000000;stroke-width:0.94488192"
     inkscape:connector-curvature="0" />
  <path
     id="path4780"
     d="m 480.15023,698.94759 -2.81055,0.2754 -2.7002,0.8203 -2.48925,1.33105 -2.18265,1.79105 -1.791,2.1826 -1.33105,2.48925 -0.81935,2.7002 -0.27635,2.80955 0.27635,2.81055 0.81935,2.7002 1.33105,2.48925 1.791,2.18265 2.18265,1.791 2.48925,1.33105 2.7002,0.8203 2.81055,0.2754 2.80955,-0.2754 2.7002,-0.8203 2.48925,-1.33105 2.1826,-1.791 1.792,-2.18265 1.3301,-2.48925 0.8203,-2.7002 0.2754,-2.81055 -0.2754,-2.80955 -0.8203,-2.7002 -1.3301,-2.48925 -1.792,-2.1826 -2.1826,-1.79105 -2.48925,-1.33105 -2.7002,-0.8203 z"
     style="fill:#d3d3d3;stroke:#000000;stroke-width:0.94488192"
     inkscape:connector-curvature="0" />
  <path
     id="path4782"
     d="m 393.74983,698.94759 -2.81055,0.2754 -2.7002,0.8203 -2.48925,1.33105 -2.18265,1.79105 -1.791,2.1826 -1.3301,2.48925 -0.8203,2.7002 -0.27635,2.80955 0.27635,2.81055 0.8203,2.7002 1.3301,2.48925 1.791,2.18265 2.18265,1.791 2.48925,1.33105 2.7002,0.8203 2.81055,0.2754 2.80955,-0.2754 2.70115,-0.8203 2.4883,-1.33105 2.1826,-1.791 1.792,-2.18265 1.3301,-2.48925 0.8203,-2.7002 0.2754,-2.81055 -0.2754,-2.80955 -0.8203,-2.7002 -1.3301,-2.48925 -1.792,-2.1826 -2.1826,-1.79105 -2.4883,-1.33105 -2.70115,-0.8203 z"
     style="fill:#d3d3d3;stroke:#000000;stroke-width:0.94488192"
     inkscape:connector-curvature="0" />
  <path
     id="path4784"
     d="m 307.34994,698.94759 -2.8096,0.2754 -2.70115,0.8203 -2.4883,1.33105 -2.1826,1.79105 -1.792,2.1826 -1.33005,2.48925 -0.82035,2.7002 -0.27635,2.80955 0.27635,2.81055 0.82035,2.7002 1.33005,2.48925 1.792,2.18265 2.1826,1.791 2.4883,1.33105 2.70115,0.8203 2.8096,0.2754 2.81055,-0.2754 2.7002,-0.8203 2.48825,-1.33105 2.18265,-1.791 1.79195,-2.18265 1.3301,-2.48925 0.8203,-2.7002 0.2764,-2.81055 -0.2764,-2.80955 -0.8203,-2.7002 -1.3301,-2.48925 -1.79195,-2.1826 -2.18265,-1.79105 -2.48825,-1.33105 -2.7002,-0.8203 z"
     style="fill:#d3d3d3;stroke:#000000;stroke-width:0.94488192"
     inkscape:connector-curvature="0" />
</svg>
