<?xml version="1.0" encoding="UTF-8" standalone="no"?>
<!-- Created with Inkscape (http://www.inkscape.org/) -->

<svg
   xmlns:dc="http://purl.org/dc/elements/1.1/"
   xmlns:cc="http://creativecommons.org/ns#"
   xmlns:rdf="http://www.w3.org/1999/02/22-rdf-syntax-ns#"
   xmlns:svg="http://www.w3.org/2000/svg"
   xmlns="http://www.w3.org/2000/svg"
   xmlns:sodipodi="http://sodipodi.sourceforge.net/DTD/sodipodi-0.dtd"
   xmlns:inkscape="http://www.inkscape.org/namespaces/inkscape"
   inkscape:version="0.92.1 r15371"
   sodipodi:docname="pickleballpaddle.svg"
   viewBox="0 0 6208 4656"
   height="4656"
   width="6208"
   id="svg4495"
   version="1.1">
  <sodipodi:namedview
     inkscape:current-layer="svg4495"
     inkscape:window-maximized="1"
     inkscape:window-y="-8"
     inkscape:window-x="-8"
     inkscape:cy="2314.7722"
     inkscape:cx="3389.4694"
     inkscape:zoom="0.66579814"
     inkscape:snap-to-guides="true"
     inkscape:guide-bbox="true"
     showguides="true"
     showgrid="false"
     id="namedview4497"
     inkscape:window-height="715"
     inkscape:window-width="1366"
     inkscape:pageshadow="2"
     inkscape:pageopacity="0"
     guidetolerance="10"
     gridtolerance="10"
     objecttolerance="10"
     borderopacity="1"
     bordercolor="#666666"
     pagecolor="#ffffff">
    <sodipodi:guide
       inkscape:locked="false"
       id="guide4505"
       orientation="0,1"
       position="2468.1898,2264.2774" />
    <sodipodi:guide
       inkscape:locked="false"
       id="guide4509"
       orientation="0,1"
       position="2518.7815,2760.5965" />
    <sodipodi:guide
       inkscape:locked="false"
       id="guide4511"
       orientation="0,1"
       position="4564.6642,2348.1788" />
    <sodipodi:guide
       inkscape:locked="false"
       id="guide4513"
       orientation="1,0"
       position="4726.0949,2203.7409" />
  </sodipodi:namedview>
  <metadata
     id="metadata4501">
    <rdf:RDF>
      <cc:Work
         rdf:about="">
        <dc:format>image/svg+xml</dc:format>
        <dc:type
           rdf:resource="http://purl.org/dc/dcmitype/StillImage" />
        <dc:title />
      </cc:Work>
    </rdf:RDF>
  </metadata>
  <defs
     id="defs4499" />
  <path
     sodipodi:nodetypes="sscssccczcccs"
     inkscape:connector-curvature="0"
     id="path4507"
     d="m 3457.9291,2037.4127 c -40.231,0 -146.9649,0.1876 -263.0803,0.1876 -130.3103,0 -284.8754,77.1187 -283.4279,359.4563 -1.4475,282.3377 153.1176,359.4577 283.4279,359.4577 116.1154,0 222.8493,0.1863 263.0803,0.1863 215.2707,0 330.2126,-263.2151 414.6948,-277.1172 14.0666,-7.3753 72.0929,-18.9904 72.0929,-18.9904 h 476.1062 v -63.5364 -63.5363 h -476.1062 c 0,0 -58.0263,-11.6152 -72.0929,-18.9905 -84.4822,-13.9021 -199.4241,-277.1171 -414.6948,-277.1171 z"
     style="fill:#ff0000;stroke:#000000;stroke-width:0.71200114px;stroke-linecap:butt;stroke-linejoin:miter;stroke-opacity:1" />
  <text
     id="text5104"
     y="1289.7339"
     x="2977.8855">
    <tspan
       id="tspan5102"
       dy="12"
       style="font-style:normal;font-weight:normal;font-size:12px;text-align:center;text-anchor:start;fill:#000000;fill-opacity:1;stroke:none"
       sodipodi:role="line"
       x="2977.8855"
       y="1289.7339">68.90 in<tspan
   id="tspan5100"
   style="font-size:64.99999762%;baseline-shift:super">2</tspan>
</tspan>
  </text>
  <path
     style="fill:#d3d3d3;stroke:#000000;stroke-width:1.88976383"
     d="m 3188.4844,2068.9581 -5.6192,0.5546 -5.4023,1.6368 -4.9766,2.6601 -4.3652,3.584 -3.584,4.3652 -2.6601,4.9786 -1.6407,5.4043 -0.5527,5.6152 0.5527,5.6211 1.6407,5.4004 2.6601,4.9824 3.584,4.3613 4.3652,3.5821 4.9766,2.6621 5.4023,1.6386 5.6192,0.5528 5.6211,-0.5528 5.4004,-1.6386 4.9765,-2.6621 4.3653,-3.5821 3.5839,-4.3613 2.6602,-4.9824 1.6406,-5.4004 0.5528,-5.6211 -0.5528,-5.6152 -1.6406,-5.4043 -2.6602,-4.9786 -3.5839,-4.3652 -4.3653,-3.584 -4.9765,-2.6601 -5.4004,-1.6368 z m 86.4004,0 -5.6211,0.5546 -5.4004,1.6368 -4.9785,2.6601 -4.3653,3.584 -3.582,4.3652 -2.6602,4.9786 -1.6406,5.4043 -0.5527,5.6152 0.5527,5.6211 1.6406,5.4004 2.6602,4.9824 3.582,4.3613 4.3653,3.5821 4.9785,2.6621 5.4004,1.6386 5.6211,0.5528 5.6191,-0.5528 5.4023,-1.6386 4.9766,-2.6621 4.3652,-3.5821 3.584,-4.3613 2.6602,-4.9824 1.6406,-5.4004 0.5508,-5.6211 -0.5508,-5.6152 -1.6406,-5.4043 -2.6602,-4.9786 -3.584,-4.3652 -4.3652,-3.584 -4.9766,-2.6601 -5.4023,-1.6368 z m 86.4004,0 -5.6211,0.5546 -5.4004,1.6368 -4.9785,2.6601 -4.3653,3.584 -3.582,4.3652 -2.6621,4.9786 -1.6387,5.4043 -0.5527,5.6152 0.5527,5.6211 1.6387,5.4004 2.6621,4.9824 3.582,4.3613 4.3653,3.5821 4.9785,2.6621 5.4004,1.6386 5.6211,0.5528 5.6191,-0.5528 5.4004,-1.6386 4.9785,-2.6621 4.3652,-3.5821 3.584,-4.3613 2.6602,-4.9824 1.6406,-5.4004 0.5508,-5.6211 -0.5508,-5.6152 -1.6406,-5.4043 -2.6602,-4.9786 -3.584,-4.3652 -4.3652,-3.584 -4.9785,-2.6601 -5.4004,-1.6368 z m 86.3984,0 -5.6191,0.5546 -5.4004,1.6368 -4.9786,2.6601 -4.3652,3.584 -3.582,4.3652 -2.6621,4.9786 -1.6407,5.4043 -0.5507,5.6152 0.5507,5.6211 1.6407,5.4004 2.6621,4.9824 3.582,4.3613 4.3652,3.5821 4.9786,2.6621 5.4004,1.6386 5.6191,0.5528 5.6211,-0.5528 5.4004,-1.6386 4.9785,-2.6621 4.3652,-3.5821 3.5821,-4.3613 2.6621,-4.9824 1.6406,-5.4004 0.5508,-5.6211 -0.5508,-5.6152 -1.6406,-5.4043 -2.6621,-4.9786 -3.5821,-4.3652 -4.3652,-3.584 -4.9785,-2.6601 -5.4004,-1.6368 z m -388.7988,74.8261 -5.6211,0.5528 -5.4004,1.6406 -4.9785,2.6601 -4.3653,3.5801 -3.582,4.3653 -2.6602,4.9804 -1.6406,5.4004 -0.5527,5.6211 0.5527,5.6153 1.6406,5.4062 2.6602,4.9766 3.582,4.3652 4.3653,3.5801 4.9785,2.664 5.4004,1.6368 5.6211,0.5546 5.6191,-0.5546 5.4023,-1.6368 4.9766,-2.664 4.3652,-3.5801 3.584,-4.3652 2.6602,-4.9766 1.6406,-5.4062 0.5508,-5.6153 -0.5508,-5.6211 -1.6406,-5.4004 -2.6602,-4.9804 -3.584,-4.3653 -4.3652,-3.5801 -4.9766,-2.6601 -5.4023,-1.6406 z m 86.4004,0 -5.6211,0.5528 -5.4004,1.6406 -4.9785,2.6601 -4.3653,3.5801 -3.582,4.3653 -2.6621,4.9804 -1.6387,5.4004 -0.5527,5.6211 0.5527,5.6153 1.6387,5.4062 2.6621,4.9766 3.582,4.3652 4.3653,3.5801 4.9785,2.664 5.4004,1.6368 5.6211,0.5546 5.6191,-0.5546 5.4004,-1.6368 4.9785,-2.664 4.3652,-3.5801 3.584,-4.3652 2.6602,-4.9766 1.6406,-5.4062 0.5508,-5.6153 -0.5508,-5.6211 -1.6406,-5.4004 -2.6602,-4.9804 -3.584,-4.3653 -4.3652,-3.5801 -4.9785,-2.6601 -5.4004,-1.6406 z m 86.3984,0 -5.6191,0.5528 -5.4004,1.6406 -4.9786,2.6601 -4.3652,3.5801 -3.582,4.3653 -2.6621,4.9804 -1.6407,5.4004 -0.5507,5.6211 0.5507,5.6153 1.6407,5.4062 2.6621,4.9766 3.582,4.3652 4.3652,3.5801 4.9786,2.664 5.4004,1.6368 5.6191,0.5546 5.6211,-0.5546 5.4004,-1.6368 4.9785,-2.664 4.3652,-3.5801 3.5821,-4.3652 2.6621,-4.9766 1.6406,-5.4062 0.5508,-5.6153 -0.5508,-5.6211 -1.6406,-5.4004 -2.6621,-4.9804 -3.5821,-4.3653 -4.3652,-3.5801 -4.9785,-2.6601 -5.4004,-1.6406 z m 86.4004,0 -5.6192,0.5528 -5.4023,1.6406 -4.9766,2.6601 -4.3652,3.5801 -3.584,4.3653 -2.6601,4.9804 -1.6407,5.4004 -0.5507,5.6211 0.5507,5.6153 1.6407,5.4062 2.6601,4.9766 3.584,4.3652 4.3652,3.5801 4.9766,2.664 5.4023,1.6368 5.6192,0.5546 5.6211,-0.5546 5.4004,-1.6368 4.9785,-2.664 4.3652,-3.5801 3.582,-4.3652 2.6602,-4.9766 1.6406,-5.4062 0.5528,-5.6153 -0.5528,-5.6211 -1.6406,-5.4004 -2.6602,-4.9804 -3.582,-4.3653 -4.3652,-3.5801 -4.9785,-2.6601 -5.4004,-1.6406 z m 86.4004,0 -5.6192,0.5528 -5.4023,1.6406 -4.9766,2.6601 -4.3652,3.5801 -3.584,4.3653 -2.6601,4.9804 -1.6407,5.4004 -0.5527,5.6211 0.5527,5.6153 1.6407,5.4062 2.6601,4.9766 3.584,4.3652 4.3652,3.5801 4.9766,2.664 5.4023,1.6368 5.6192,0.5546 5.6211,-0.5546 5.4004,-1.6368 4.9765,-2.664 4.3653,-3.5801 3.5839,-4.3652 2.6602,-4.9766 1.6406,-5.4062 0.5528,-5.6153 -0.5528,-5.6211 -1.6406,-5.4004 -2.6602,-4.9804 -3.5839,-4.3653 -4.3653,-3.5801 -4.9765,-2.6601 -5.4004,-1.6406 z m 86.4004,0 -5.6211,0.5528 -5.4004,1.6406 -4.9785,2.6601 -4.3653,3.5801 -3.582,4.3653 -2.6602,4.9804 -1.6406,5.4004 -0.5527,5.6211 0.5527,5.6153 1.6406,5.4062 2.6602,4.9766 3.582,4.3652 4.3653,3.5801 4.9785,2.664 5.4004,1.6368 5.6211,0.5546 5.6191,-0.5546 5.4023,-1.6368 4.9766,-2.664 4.3652,-3.5801 3.584,-4.3652 2.6602,-4.9766 1.6406,-5.4062 0.5508,-5.6153 -0.5508,-5.6211 -1.6406,-5.4004 -2.6602,-4.9804 -3.584,-4.3653 -4.3652,-3.5801 -4.9766,-2.6601 -5.4023,-1.6406 z m 86.4004,0 -5.6211,0.5528 -5.4004,1.6406 -4.9785,2.6601 -4.3653,3.5801 -3.582,4.3653 -2.6621,4.9804 -1.6387,5.4004 -0.5527,5.6211 0.5527,5.6153 1.6387,5.4062 2.6621,4.9766 3.582,4.3652 4.3653,3.5801 4.9785,2.664 5.4004,1.6368 5.6211,0.5546 5.6191,-0.5546 5.4004,-1.6368 4.9785,-2.664 4.3652,-3.5801 3.584,-4.3652 2.6602,-4.9766 1.6406,-5.4062 0.5508,-5.6153 -0.5508,-5.6211 -1.6406,-5.4004 -2.6602,-4.9804 -3.584,-4.3653 -4.3652,-3.5801 -4.9785,-2.6601 -5.4004,-1.6406 z m -561.6016,74.8243 -5.6191,0.5507 -5.4004,1.6407 -4.9786,2.6621 -4.3652,3.582 -3.582,4.3613 -2.6621,4.9824 -1.6407,5.4004 -0.5507,5.6192 0.5507,5.6211 1.6407,5.4004 2.6621,4.9785 3.582,4.3652 4.3652,3.582 4.9786,2.6622 5.4004,1.6367 5.6191,0.5547 5.6211,-0.5547 5.4004,-1.6367 4.9785,-2.6622 4.3652,-3.582 3.5821,-4.3652 2.6621,-4.9785 1.6386,-5.4004 0.5528,-5.6211 -0.5528,-5.6192 -1.6386,-5.4004 -2.6621,-4.9824 -3.5821,-4.3613 -4.3652,-3.582 -4.9785,-2.6621 -5.4004,-1.6407 z m 86.4004,0 -5.6192,0.5507 -5.4023,1.6407 -4.9766,2.6621 -4.3652,3.582 -3.584,4.3613 -2.6601,4.9824 -1.6407,5.4004 -0.5507,5.6192 0.5507,5.6211 1.6407,5.4004 2.6601,4.9785 3.584,4.3652 4.3652,3.582 4.9766,2.6622 5.4023,1.6367 5.6192,0.5547 5.6211,-0.5547 5.4004,-1.6367 4.9785,-2.6622 4.3652,-3.582 3.582,-4.3652 2.6602,-4.9785 1.6406,-5.4004 0.5528,-5.6211 -0.5528,-5.6192 -1.6406,-5.4004 -2.6602,-4.9824 -3.582,-4.3613 -4.3652,-3.582 -4.9785,-2.6621 -5.4004,-1.6407 z m 86.4004,0 -5.6192,0.5507 -5.4023,1.6407 -4.9766,2.6621 -4.3652,3.582 -3.584,4.3613 -2.6601,4.9824 -1.6407,5.4004 -0.5527,5.6192 0.5527,5.6211 1.6407,5.4004 2.6601,4.9785 3.584,4.3652 4.3652,3.582 4.9766,2.6622 5.4023,1.6367 5.6192,0.5547 5.6211,-0.5547 5.4004,-1.6367 4.9765,-2.6622 4.3653,-3.582 3.5839,-4.3652 2.6602,-4.9785 1.6406,-5.4004 0.5528,-5.6211 -0.5528,-5.6192 -1.6406,-5.4004 -2.6602,-4.9824 -3.5839,-4.3613 -4.3653,-3.582 -4.9765,-2.6621 -5.4004,-1.6407 z m 86.4004,0 -5.6211,0.5507 -5.4004,1.6407 -4.9785,2.6621 -4.3653,3.582 -3.582,4.3613 -2.6602,4.9824 -1.6406,5.4004 -0.5527,5.6192 0.5527,5.6211 1.6406,5.4004 2.6602,4.9785 3.582,4.3652 4.3653,3.582 4.9785,2.6622 5.4004,1.6367 5.6211,0.5547 5.6191,-0.5547 5.4023,-1.6367 4.9766,-2.6622 4.3652,-3.582 3.584,-4.3652 2.6602,-4.9785 1.6406,-5.4004 0.5508,-5.6211 -0.5508,-5.6192 -1.6406,-5.4004 -2.6602,-4.9824 -3.584,-4.3613 -4.3652,-3.582 -4.9766,-2.6621 -5.4023,-1.6407 z m 86.4004,0 -5.6211,0.5507 -5.4004,1.6407 -4.9785,2.6621 -4.3653,3.582 -3.582,4.3613 -2.6621,4.9824 -1.6387,5.4004 -0.5527,5.6192 0.5527,5.6211 1.6387,5.4004 2.6621,4.9785 3.582,4.3652 4.3653,3.582 4.9785,2.6622 5.4004,1.6367 5.6211,0.5547 5.6191,-0.5547 5.4004,-1.6367 4.9785,-2.6622 4.3652,-3.582 3.584,-4.3652 2.6602,-4.9785 1.6406,-5.4004 0.5508,-5.6211 -0.5508,-5.6192 -1.6406,-5.4004 -2.6602,-4.9824 -3.584,-4.3613 -4.3652,-3.582 -4.9785,-2.6621 -5.4004,-1.6407 z m 86.3984,0 -5.6191,0.5507 -5.4004,1.6407 -4.9786,2.6621 -4.3652,3.582 -3.582,4.3613 -2.6621,4.9824 -1.6407,5.4004 -0.5507,5.6192 0.5507,5.6211 1.6407,5.4004 2.6621,4.9785 3.582,4.3652 4.3652,3.582 4.9786,2.6622 5.4004,1.6367 5.6191,0.5547 5.6211,-0.5547 5.4004,-1.6367 4.9785,-2.6622 4.3652,-3.582 3.5821,-4.3652 2.6621,-4.9785 1.6406,-5.4004 0.5508,-5.6211 -0.5508,-5.6192 -1.6406,-5.4004 -2.6621,-4.9824 -3.5821,-4.3613 -4.3652,-3.582 -4.9785,-2.6621 -5.4004,-1.6407 z m 86.4004,0 -5.6192,0.5507 -5.4023,1.6407 -4.9766,2.6621 -4.3652,3.582 -3.584,4.3613 -2.6601,4.9824 -1.6407,5.4004 -0.5507,5.6192 0.5507,5.6211 1.6407,5.4004 2.6601,4.9785 3.584,4.3652 4.3652,3.582 4.9766,2.6622 5.4023,1.6367 5.6192,0.5547 5.6211,-0.5547 5.4004,-1.6367 4.9785,-2.6622 4.3652,-3.582 3.582,-4.3652 2.6602,-4.9785 1.6406,-5.4004 0.5528,-5.6211 -0.5528,-5.6192 -1.6406,-5.4004 -2.6602,-4.9824 -3.582,-4.3613 -4.3652,-3.582 -4.9785,-2.6621 -5.4004,-1.6407 z m 86.4004,0 -5.6192,0.5507 -5.4023,1.6407 -4.9766,2.6621 -4.3652,3.582 -3.584,4.3613 -2.6601,4.9824 -1.6407,5.4004 -0.5527,5.6192 0.5527,5.6211 1.6407,5.4004 2.6601,4.9785 3.584,4.3652 4.3652,3.582 4.9766,2.6622 5.4023,1.6367 5.6192,0.5547 5.6211,-0.5547 5.4004,-1.6367 4.9765,-2.6622 4.3653,-3.582 3.5839,-4.3652 2.6602,-4.9785 1.6406,-5.4004 0.5528,-5.6211 -0.5528,-5.6192 -1.6406,-5.4004 -2.6602,-4.9824 -3.5839,-4.3613 -4.3653,-3.582 -4.9765,-2.6621 -5.4004,-1.6407 z m 86.4004,0 -5.6211,0.5507 -5.4004,1.6407 -4.9785,2.6621 -4.3653,3.582 -3.582,4.3613 -2.6602,4.9824 -1.6406,5.4004 -0.5527,5.6192 0.5527,5.6211 1.6406,5.4004 2.6602,4.9785 3.582,4.3652 4.3653,3.582 4.9785,2.6622 5.4004,1.6367 5.6211,0.5547 5.6191,-0.5547 5.4023,-1.6367 4.9766,-2.6622 4.3652,-3.582 3.584,-4.3652 2.6602,-4.9785 1.6406,-5.4004 0.5508,-5.6211 -0.5508,-5.6192 -1.6406,-5.4004 -2.6602,-4.9824 -3.584,-4.3613 -4.3652,-3.582 -4.9766,-2.6621 -5.4023,-1.6407 z m -734.4004,74.8222 -5.6192,0.5567 -5.4023,1.6367 -4.9766,2.6601 -4.3652,3.584 -3.584,4.3653 -2.6601,4.9765 -1.6407,5.4043 -0.5527,5.6172 0.5527,5.6191 1.6407,5.4024 2.6601,4.9805 3.584,4.3613 4.3652,3.584 4.9766,2.6601 5.4023,1.6406 5.6192,0.5528 5.6211,-0.5528 5.4004,-1.6406 4.9765,-2.6601 4.3653,-3.584 3.5839,-4.3613 2.6602,-4.9805 1.6406,-5.4024 0.5528,-5.6191 -0.5528,-5.6172 -1.6406,-5.4043 -2.6602,-4.9765 -3.5839,-4.3653 -4.3653,-3.584 -4.9765,-2.6601 -5.4004,-1.6367 z m 86.4004,0 -5.6211,0.5567 -5.4004,1.6367 -4.9785,2.6601 -4.3653,3.584 -3.582,4.3653 -2.6602,4.9765 -1.6406,5.4043 -0.5527,5.6172 0.5527,5.6191 1.6406,5.4024 2.6602,4.9805 3.582,4.3613 4.3653,3.584 4.9785,2.6601 5.4004,1.6406 5.6211,0.5528 5.6191,-0.5528 5.4023,-1.6406 4.9766,-2.6601 4.3652,-3.584 3.584,-4.3613 2.6602,-4.9805 1.6406,-5.4024 0.5508,-5.6191 -0.5508,-5.6172 -1.6406,-5.4043 -2.6602,-4.9765 -3.584,-4.3653 -4.3652,-3.584 -4.9766,-2.6601 -5.4023,-1.6367 z m 86.4004,0 -5.6211,0.5567 -5.4004,1.6367 -4.9785,2.6601 -4.3653,3.584 -3.582,4.3653 -2.6621,4.9765 -1.6387,5.4043 -0.5527,5.6172 0.5527,5.6191 1.6387,5.4024 2.6621,4.9805 3.582,4.3613 4.3653,3.584 4.9785,2.6601 5.4004,1.6406 5.6211,0.5528 5.6191,-0.5528 5.4004,-1.6406 4.9785,-2.6601 4.3652,-3.584 3.584,-4.3613 2.6602,-4.9805 1.6406,-5.4024 0.5508,-5.6191 -0.5508,-5.6172 -1.6406,-5.4043 -2.6602,-4.9765 -3.584,-4.3653 -4.3652,-3.584 -4.9785,-2.6601 -5.4004,-1.6367 z m 86.3984,0 -5.6191,0.5567 -5.4004,1.6367 -4.9786,2.6601 -4.3652,3.584 -3.582,4.3653 -2.6621,4.9765 -1.6407,5.4043 -0.5507,5.6172 0.5507,5.6191 1.6407,5.4024 2.6621,4.9805 3.582,4.3613 4.3652,3.584 4.9786,2.6601 5.4004,1.6406 5.6191,0.5528 5.6211,-0.5528 5.4004,-1.6406 4.9785,-2.6601 4.3652,-3.584 3.5821,-4.3613 2.6621,-4.9805 1.6406,-5.4024 0.5508,-5.6191 -0.5508,-5.6172 -1.6406,-5.4043 -2.6621,-4.9765 -3.5821,-4.3653 -4.3652,-3.584 -4.9785,-2.6601 -5.4004,-1.6367 z m 86.4004,0 -5.6192,0.5567 -5.4023,1.6367 -4.9766,2.6601 -4.3652,3.584 -3.584,4.3653 -2.6601,4.9765 -1.6407,5.4043 -0.5507,5.6172 0.5507,5.6191 1.6407,5.4024 2.6601,4.9805 3.584,4.3613 4.3652,3.584 4.9766,2.6601 5.4023,1.6406 5.6192,0.5528 5.6211,-0.5528 5.4004,-1.6406 4.9785,-2.6601 4.3652,-3.584 3.582,-4.3613 2.6602,-4.9805 1.6406,-5.4024 0.5528,-5.6191 -0.5528,-5.6172 -1.6406,-5.4043 -2.6602,-4.9765 -3.582,-4.3653 -4.3652,-3.584 -4.9785,-2.6601 -5.4004,-1.6367 z m 86.4004,0 -5.6192,0.5567 -5.4023,1.6367 -4.9766,2.6601 -4.3652,3.584 -3.584,4.3653 -2.6601,4.9765 -1.6407,5.4043 -0.5527,5.6172 0.5527,5.6191 1.6407,5.4024 2.6601,4.9805 3.584,4.3613 4.3652,3.584 4.9766,2.6601 5.4023,1.6406 5.6192,0.5528 5.6211,-0.5528 5.4004,-1.6406 4.9765,-2.6601 4.3653,-3.584 3.5839,-4.3613 2.6602,-4.9805 1.6406,-5.4024 0.5528,-5.6191 -0.5528,-5.6172 -1.6406,-5.4043 -2.6602,-4.9765 -3.5839,-4.3653 -4.3653,-3.584 -4.9765,-2.6601 -5.4004,-1.6367 z m 86.4004,0 -5.6211,0.5567 -5.4004,1.6367 -4.9785,2.6601 -4.3653,3.584 -3.582,4.3653 -2.6602,4.9765 -1.6406,5.4043 -0.5527,5.6172 0.5527,5.6191 1.6406,5.4024 2.6602,4.9805 3.582,4.3613 4.3653,3.584 4.9785,2.6601 5.4004,1.6406 5.6211,0.5528 5.6191,-0.5528 5.4023,-1.6406 4.9766,-2.6601 4.3652,-3.584 3.584,-4.3613 2.6602,-4.9805 1.6406,-5.4024 0.5508,-5.6191 -0.5508,-5.6172 -1.6406,-5.4043 -2.6602,-4.9765 -3.584,-4.3653 -4.3652,-3.584 -4.9766,-2.6601 -5.4023,-1.6367 z m 86.4004,0 -5.6211,0.5567 -5.4004,1.6367 -4.9785,2.6601 -4.3653,3.584 -3.582,4.3653 -2.6621,4.9765 -1.6387,5.4043 -0.5527,5.6172 0.5527,5.6191 1.6387,5.4024 2.6621,4.9805 3.582,4.3613 4.3653,3.584 4.9785,2.6601 5.4004,1.6406 5.6211,0.5528 5.6191,-0.5528 5.4004,-1.6406 4.9785,-2.6601 4.3652,-3.584 3.584,-4.3613 2.6602,-4.9805 1.6406,-5.4024 0.5508,-5.6191 -0.5508,-5.6172 -1.6406,-5.4043 -2.6602,-4.9765 -3.584,-4.3653 -4.3652,-3.584 -4.9785,-2.6601 -5.4004,-1.6367 z m 86.3984,0 -5.6191,0.5567 -5.4004,1.6367 -4.9786,2.6601 -4.3652,3.584 -3.582,4.3653 -2.6621,4.9765 -1.6407,5.4043 -0.5507,5.6172 0.5507,5.6191 1.6407,5.4024 2.6621,4.9805 3.582,4.3613 4.3652,3.584 4.9786,2.6601 5.4004,1.6406 5.6191,0.5528 5.6211,-0.5528 5.4004,-1.6406 4.9785,-2.6601 4.3652,-3.584 3.5821,-4.3613 2.6621,-4.9805 1.6406,-5.4024 0.5508,-5.6191 -0.5508,-5.6172 -1.6406,-5.4043 -2.6621,-4.9765 -3.5821,-4.3653 -4.3652,-3.584 -4.9785,-2.6601 -5.4004,-1.6367 z m 86.4004,0 -5.6192,0.5567 -5.4023,1.6367 -4.9766,2.6601 -4.3652,3.584 -3.584,4.3653 -2.6601,4.9765 -1.6407,5.4043 -0.5507,5.6172 0.5507,5.6191 1.6407,5.4024 2.6601,4.9805 3.584,4.3613 4.3652,3.584 4.9766,2.6601 5.4023,1.6406 5.6192,0.5528 5.6211,-0.5528 5.4004,-1.6406 4.9785,-2.6601 4.3652,-3.584 3.582,-4.3613 2.6602,-4.9805 1.6406,-5.4024 0.5528,-5.6191 -0.5528,-5.6172 -1.6406,-5.4043 -2.6602,-4.9765 -3.582,-4.3653 -4.3652,-3.584 -4.9785,-2.6601 -5.4004,-1.6367 z m -734.4004,74.8281 -5.6191,0.5508 -5.4004,1.6407 -4.9786,2.6621 -4.3652,3.5781 -3.582,4.3652 -2.6621,4.9824 -1.6407,5.4004 -0.5507,5.6192 0.5507,5.6172 1.6407,5.4043 2.6621,4.9785 3.582,4.3652 4.3652,3.5781 4.9786,2.666 5.4004,1.6368 5.6191,0.5547 5.6211,-0.5547 5.4004,-1.6368 4.9785,-2.666 4.3652,-3.5781 3.5821,-4.3652 2.6621,-4.9785 1.6386,-5.4043 0.5528,-5.6172 -0.5528,-5.6192 -1.6386,-5.4004 -2.6621,-4.9824 -3.5821,-4.3652 -4.3652,-3.5781 -4.9785,-2.6621 -5.4004,-1.6407 z m 86.4004,0 -5.6192,0.5508 -5.4023,1.6407 -4.9766,2.6621 -4.3652,3.5781 -3.584,4.3652 -2.6601,4.9824 -1.6407,5.4004 -0.5507,5.6192 0.5507,5.6172 1.6407,5.4043 2.6601,4.9785 3.584,4.3652 4.3652,3.5781 4.9766,2.666 5.4023,1.6368 5.6192,0.5547 5.6211,-0.5547 5.4004,-1.6368 4.9785,-2.666 4.3652,-3.5781 3.582,-4.3652 2.6602,-4.9785 1.6406,-5.4043 0.5528,-5.6172 -0.5528,-5.6192 -1.6406,-5.4004 -2.6602,-4.9824 -3.582,-4.3652 -4.3652,-3.5781 -4.9785,-2.6621 -5.4004,-1.6407 z m 86.4004,0 -5.6192,0.5508 -5.4023,1.6407 -4.9766,2.6621 -4.3652,3.5781 -3.584,4.3652 -2.6601,4.9824 -1.6407,5.4004 -0.5527,5.6192 0.5527,5.6172 1.6407,5.4043 2.6601,4.9785 3.584,4.3652 4.3652,3.5781 4.9766,2.666 5.4023,1.6368 5.6192,0.5547 5.6211,-0.5547 5.4004,-1.6368 4.9765,-2.666 4.3653,-3.5781 3.5839,-4.3652 2.6602,-4.9785 1.6406,-5.4043 0.5528,-5.6172 -0.5528,-5.6192 -1.6406,-5.4004 -2.6602,-4.9824 -3.5839,-4.3652 -4.3653,-3.5781 -4.9765,-2.6621 -5.4004,-1.6407 z m 86.4004,0 -5.6211,0.5508 -5.4004,1.6407 -4.9785,2.6621 -4.3653,3.5781 -3.582,4.3652 -2.6602,4.9824 -1.6406,5.4004 -0.5527,5.6192 0.5527,5.6172 1.6406,5.4043 2.6602,4.9785 3.582,4.3652 4.3653,3.5781 4.9785,2.666 5.4004,1.6368 5.6211,0.5547 5.6191,-0.5547 5.4023,-1.6368 4.9766,-2.666 4.3652,-3.5781 3.584,-4.3652 2.6602,-4.9785 1.6406,-5.4043 0.5508,-5.6172 -0.5508,-5.6192 -1.6406,-5.4004 -2.6602,-4.9824 -3.584,-4.3652 -4.3652,-3.5781 -4.9766,-2.6621 -5.4023,-1.6407 z m 86.4004,0 -5.6211,0.5508 -5.4004,1.6407 -4.9785,2.6621 -4.3653,3.5781 -3.582,4.3652 -2.6621,4.9824 -1.6387,5.4004 -0.5527,5.6192 0.5527,5.6172 1.6387,5.4043 2.6621,4.9785 3.582,4.3652 4.3653,3.5781 4.9785,2.666 5.4004,1.6368 5.6211,0.5547 5.6191,-0.5547 5.4004,-1.6368 4.9785,-2.666 4.3652,-3.5781 3.584,-4.3652 2.6602,-4.9785 1.6406,-5.4043 0.5508,-5.6172 -0.5508,-5.6192 -1.6406,-5.4004 -2.6602,-4.9824 -3.584,-4.3652 -4.3652,-3.5781 -4.9785,-2.6621 -5.4004,-1.6407 z m 86.3984,0 -5.6191,0.5508 -5.4004,1.6407 -4.9786,2.6621 -4.3652,3.5781 -3.582,4.3652 -2.6621,4.9824 -1.6407,5.4004 -0.5507,5.6192 0.5507,5.6172 1.6407,5.4043 2.6621,4.9785 3.582,4.3652 4.3652,3.5781 4.9786,2.666 5.4004,1.6368 5.6191,0.5547 5.6211,-0.5547 5.4004,-1.6368 4.9785,-2.666 4.3652,-3.5781 3.5821,-4.3652 2.6621,-4.9785 1.6406,-5.4043 0.5508,-5.6172 -0.5508,-5.6192 -1.6406,-5.4004 -2.6621,-4.9824 -3.5821,-4.3652 -4.3652,-3.5781 -4.9785,-2.6621 -5.4004,-1.6407 z m 86.4004,0 -5.6192,0.5508 -5.4023,1.6407 -4.9766,2.6621 -4.3652,3.5781 -3.584,4.3652 -2.6601,4.9824 -1.6407,5.4004 -0.5507,5.6192 0.5507,5.6172 1.6407,5.4043 2.6601,4.9785 3.584,4.3652 4.3652,3.5781 4.9766,2.666 5.4023,1.6368 5.6192,0.5547 5.6211,-0.5547 5.4004,-1.6368 4.9785,-2.666 4.3652,-3.5781 3.582,-4.3652 2.6602,-4.9785 1.6406,-5.4043 0.5528,-5.6172 -0.5528,-5.6192 -1.6406,-5.4004 -2.6602,-4.9824 -3.582,-4.3652 -4.3652,-3.5781 -4.9785,-2.6621 -5.4004,-1.6407 z m 86.4004,0 -5.6192,0.5508 -5.4023,1.6407 -4.9766,2.6621 -4.3652,3.5781 -3.584,4.3652 -2.6601,4.9824 -1.6407,5.4004 -0.5527,5.6192 0.5527,5.6172 1.6407,5.4043 2.6601,4.9785 3.584,4.3652 4.3652,3.5781 4.9766,2.666 5.4023,1.6368 5.6192,0.5547 5.6211,-0.5547 5.4004,-1.6368 4.9765,-2.666 4.3653,-3.5781 3.5839,-4.3652 2.6602,-4.9785 1.6406,-5.4043 0.5528,-5.6172 -0.5528,-5.6192 -1.6406,-5.4004 -2.6602,-4.9824 -3.5839,-4.3652 -4.3653,-3.5781 -4.9765,-2.6621 -5.4004,-1.6407 z m 86.4004,0 -5.6211,0.5508 -5.4004,1.6407 -4.9785,2.6621 -4.3653,3.5781 -3.582,4.3652 -2.6602,4.9824 -1.6406,5.4004 -0.5527,5.6192 0.5527,5.6172 1.6406,5.4043 2.6602,4.9785 3.582,4.3652 4.3653,3.5781 4.9785,2.666 5.4004,1.6368 5.6211,0.5547 5.6191,-0.5547 5.4023,-1.6368 4.9766,-2.666 4.3652,-3.5781 3.584,-4.3652 2.6602,-4.9785 1.6406,-5.4043 0.5508,-5.6172 -0.5508,-5.6192 -1.6406,-5.4004 -2.6602,-4.9824 -3.584,-4.3652 -4.3652,-3.5781 -4.9766,-2.6621 -5.4023,-1.6407 z m 86.4004,0 -5.6211,0.5508 -5.4004,1.6407 -4.9785,2.6621 -4.3653,3.5781 -3.582,4.3652 -2.6621,4.9824 -1.6387,5.4004 -0.5527,5.6192 0.5527,5.6172 1.6387,5.4043 2.6621,4.9785 3.582,4.3652 4.3653,3.5781 4.9785,2.666 5.4004,1.6368 5.6211,0.5547 5.6191,-0.5547 5.4004,-1.6368 4.9785,-2.666 4.3652,-3.5781 3.584,-4.3652 2.6602,-4.9785 1.6406,-5.4043 0.5508,-5.6172 -0.5508,-5.6192 -1.6406,-5.4004 -2.6602,-4.9824 -3.584,-4.3652 -4.3652,-3.5781 -4.9785,-2.6621 -5.4004,-1.6407 z m -820.8008,74.8223 -5.6192,0.5527 -5.4023,1.6407 -4.9766,2.6601 -4.3652,3.584 -3.584,4.3613 -2.6601,4.9805 -1.6407,5.4004 -0.5527,5.6211 0.5527,5.6191 1.6407,5.4024 2.6601,4.9765 3.584,4.3653 4.3652,3.584 4.9766,2.6601 5.4023,1.6406 5.6192,0.5528 5.6211,-0.5528 5.4004,-1.6406 4.9765,-2.6601 4.3653,-3.584 3.5839,-4.3653 2.6602,-4.9765 1.6406,-5.4024 0.5528,-5.6191 -0.5528,-5.6211 -1.6406,-5.4004 -2.6602,-4.9805 -3.5839,-4.3613 -4.3653,-3.584 -4.9765,-2.6601 -5.4004,-1.6407 z m 86.4004,0 -5.6211,0.5527 -5.4004,1.6407 -4.9785,2.6601 -4.3653,3.584 -3.582,4.3613 -2.6602,4.9805 -1.6406,5.4004 -0.5527,5.6211 0.5527,5.6191 1.6406,5.4024 2.6602,4.9765 3.582,4.3653 4.3653,3.584 4.9785,2.6601 5.4004,1.6406 5.6211,0.5528 5.6191,-0.5528 5.4023,-1.6406 4.9766,-2.6601 4.3652,-3.584 3.584,-4.3653 2.6602,-4.9765 1.6406,-5.4024 0.5508,-5.6191 -0.5508,-5.6211 -1.6406,-5.4004 -2.6602,-4.9805 -3.584,-4.3613 -4.3652,-3.584 -4.9766,-2.6601 -5.4023,-1.6407 z m 86.4004,0 -5.6211,0.5527 -5.4004,1.6407 -4.9785,2.6601 -4.3653,3.584 -3.582,4.3613 -2.6621,4.9805 -1.6387,5.4004 -0.5527,5.6211 0.5527,5.6191 1.6387,5.4024 2.6621,4.9765 3.582,4.3653 4.3653,3.584 4.9785,2.6601 5.4004,1.6406 5.6211,0.5528 5.6191,-0.5528 5.4004,-1.6406 4.9785,-2.6601 4.3652,-3.584 3.584,-4.3653 2.6602,-4.9765 1.6406,-5.4024 0.5508,-5.6191 -0.5508,-5.6211 -1.6406,-5.4004 -2.6602,-4.9805 -3.584,-4.3613 -4.3652,-3.584 -4.9785,-2.6601 -5.4004,-1.6407 z m 86.3984,0 -5.6191,0.5527 -5.4004,1.6407 -4.9786,2.6601 -4.3652,3.584 -3.582,4.3613 -2.6621,4.9805 -1.6407,5.4004 -0.5507,5.6211 0.5507,5.6191 1.6407,5.4024 2.6621,4.9765 3.582,4.3653 4.3652,3.584 4.9786,2.6601 5.4004,1.6406 5.6191,0.5528 5.6211,-0.5528 5.4004,-1.6406 4.9785,-2.6601 4.3652,-3.584 3.5821,-4.3653 2.6621,-4.9765 1.6406,-5.4024 0.5508,-5.6191 -0.5508,-5.6211 -1.6406,-5.4004 -2.6621,-4.9805 -3.5821,-4.3613 -4.3652,-3.584 -4.9785,-2.6601 -5.4004,-1.6407 z m 86.4004,0 -5.6192,0.5527 -5.4023,1.6407 -4.9766,2.6601 -4.3652,3.584 -3.584,4.3613 -2.6601,4.9805 -1.6407,5.4004 -0.5507,5.6211 0.5507,5.6191 1.6407,5.4024 2.6601,4.9765 3.584,4.3653 4.3652,3.584 4.9766,2.6601 5.4023,1.6406 5.6192,0.5528 5.6211,-0.5528 5.4004,-1.6406 4.9785,-2.6601 4.3652,-3.584 3.582,-4.3653 2.6602,-4.9765 1.6406,-5.4024 0.5528,-5.6191 -0.5528,-5.6211 -1.6406,-5.4004 -2.6602,-4.9805 -3.582,-4.3613 -4.3652,-3.584 -4.9785,-2.6601 -5.4004,-1.6407 z m 86.4004,0 -5.6192,0.5527 -5.4023,1.6407 -4.9766,2.6601 -4.3652,3.584 -3.584,4.3613 -2.6601,4.9805 -1.6407,5.4004 -0.5527,5.6211 0.5527,5.6191 1.6407,5.4024 2.6601,4.9765 3.584,4.3653 4.3652,3.584 4.9766,2.6601 5.4023,1.6406 5.6192,0.5528 5.6211,-0.5528 5.4004,-1.6406 4.9765,-2.6601 4.3653,-3.584 3.5839,-4.3653 2.6602,-4.9765 1.6406,-5.4024 0.5528,-5.6191 -0.5528,-5.6211 -1.6406,-5.4004 -2.6602,-4.9805 -3.5839,-4.3613 -4.3653,-3.584 -4.9765,-2.6601 -5.4004,-1.6407 z m 86.4004,0 -5.6211,0.5527 -5.4004,1.6407 -4.9785,2.6601 -4.3653,3.584 -3.582,4.3613 -2.6602,4.9805 -1.6406,5.4004 -0.5527,5.6211 0.5527,5.6191 1.6406,5.4024 2.6602,4.9765 3.582,4.3653 4.3653,3.584 4.9785,2.6601 5.4004,1.6406 5.6211,0.5528 5.6191,-0.5528 5.4023,-1.6406 4.9766,-2.6601 4.3652,-3.584 3.584,-4.3653 2.6602,-4.9765 1.6406,-5.4024 0.5508,-5.6191 -0.5508,-5.6211 -1.6406,-5.4004 -2.6602,-4.9805 -3.584,-4.3613 -4.3652,-3.584 -4.9766,-2.6601 -5.4023,-1.6407 z m 86.4004,0 -5.6211,0.5527 -5.4004,1.6407 -4.9785,2.6601 -4.3653,3.584 -3.582,4.3613 -2.6621,4.9805 -1.6387,5.4004 -0.5527,5.6211 0.5527,5.6191 1.6387,5.4024 2.6621,4.9765 3.582,4.3653 4.3653,3.584 4.9785,2.6601 5.4004,1.6406 5.6211,0.5528 5.6191,-0.5528 5.4004,-1.6406 4.9785,-2.6601 4.3652,-3.584 3.584,-4.3653 2.6602,-4.9765 1.6406,-5.4024 0.5508,-5.6191 -0.5508,-5.6211 -1.6406,-5.4004 -2.6602,-4.9805 -3.584,-4.3613 -4.3652,-3.584 -4.9785,-2.6601 -5.4004,-1.6407 z m 86.3984,0 -5.6191,0.5527 -5.4004,1.6407 -4.9786,2.6601 -4.3652,3.584 -3.582,4.3613 -2.6621,4.9805 -1.6407,5.4004 -0.5507,5.6211 0.5507,5.6191 1.6407,5.4024 2.6621,4.9765 3.582,4.3653 4.3652,3.584 4.9786,2.6601 5.4004,1.6406 5.6191,0.5528 5.6211,-0.5528 5.4004,-1.6406 4.9785,-2.6601 4.3652,-3.584 3.5821,-4.3653 2.6621,-4.9765 1.6406,-5.4024 0.5508,-5.6191 -0.5508,-5.6211 -1.6406,-5.4004 -2.6621,-4.9805 -3.5821,-4.3613 -4.3652,-3.584 -4.9785,-2.6601 -5.4004,-1.6407 z m 86.4004,0 -5.6192,0.5527 -5.4023,1.6407 -4.9766,2.6601 -4.3652,3.584 -3.584,4.3613 -2.6601,4.9805 -1.6407,5.4004 -0.5507,5.6211 0.5507,5.6191 1.6407,5.4024 2.6601,4.9765 3.584,4.3653 4.3652,3.584 4.9766,2.6601 5.4023,1.6406 5.6192,0.5528 5.6211,-0.5528 5.4004,-1.6406 4.9785,-2.6601 4.3652,-3.584 3.582,-4.3653 2.6602,-4.9765 1.6406,-5.4024 0.5528,-5.6191 -0.5528,-5.6211 -1.6406,-5.4004 -2.6602,-4.9805 -3.582,-4.3613 -4.3652,-3.584 -4.9785,-2.6601 -5.4004,-1.6407 z m -734.4004,74.8242 -5.6191,0.5547 -5.4004,1.6367 -4.9786,2.6621 -4.3652,3.5821 -3.582,4.3652 -2.6621,4.9785 -1.6407,5.4043 -0.5507,5.6153 0.5507,5.6211 1.6407,5.4003 2.6621,4.9825 3.582,4.3613 4.3652,3.582 4.9786,2.6621 5.4004,1.6407 5.6191,0.5507 5.6211,-0.5507 5.4004,-1.6407 4.9785,-2.6621 4.3652,-3.582 3.5821,-4.3613 2.6621,-4.9825 1.6386,-5.4003 0.5528,-5.6211 -0.5528,-5.6153 -1.6386,-5.4043 -2.6621,-4.9785 -3.5821,-4.3652 -4.3652,-3.5821 -4.9785,-2.6621 -5.4004,-1.6367 z m 86.4004,0 -5.6192,0.5547 -5.4023,1.6367 -4.9766,2.6621 -4.3652,3.5821 -3.584,4.3652 -2.6601,4.9785 -1.6407,5.4043 -0.5507,5.6153 0.5507,5.6211 1.6407,5.4003 2.6601,4.9825 3.584,4.3613 4.3652,3.582 4.9766,2.6621 5.4023,1.6407 5.6192,0.5507 5.6211,-0.5507 5.4004,-1.6407 4.9785,-2.6621 4.3652,-3.582 3.582,-4.3613 2.6602,-4.9825 1.6406,-5.4003 0.5528,-5.6211 -0.5528,-5.6153 -1.6406,-5.4043 -2.6602,-4.9785 -3.582,-4.3652 -4.3652,-3.5821 -4.9785,-2.6621 -5.4004,-1.6367 z m 86.4004,0 -5.6192,0.5547 -5.4023,1.6367 -4.9766,2.6621 -4.3652,3.5821 -3.584,4.3652 -2.6601,4.9785 -1.6407,5.4043 -0.5527,5.6153 0.5527,5.6211 1.6407,5.4003 2.6601,4.9825 3.584,4.3613 4.3652,3.582 4.9766,2.6621 5.4023,1.6407 5.6192,0.5507 5.6211,-0.5507 5.4004,-1.6407 4.9765,-2.6621 4.3653,-3.582 3.5839,-4.3613 2.6602,-4.9825 1.6406,-5.4003 0.5528,-5.6211 -0.5528,-5.6153 -1.6406,-5.4043 -2.6602,-4.9785 -3.5839,-4.3652 -4.3653,-3.5821 -4.9765,-2.6621 -5.4004,-1.6367 z m 86.4004,0 -5.6211,0.5547 -5.4004,1.6367 -4.9785,2.6621 -4.3653,3.5821 -3.582,4.3652 -2.6602,4.9785 -1.6406,5.4043 -0.5527,5.6153 0.5527,5.6211 1.6406,5.4003 2.6602,4.9825 3.582,4.3613 4.3653,3.582 4.9785,2.6621 5.4004,1.6407 5.6211,0.5507 5.6191,-0.5507 5.4023,-1.6407 4.9766,-2.6621 4.3652,-3.582 3.584,-4.3613 2.6602,-4.9825 1.6406,-5.4003 0.5508,-5.6211 -0.5508,-5.6153 -1.6406,-5.4043 -2.6602,-4.9785 -3.584,-4.3652 -4.3652,-3.5821 -4.9766,-2.6621 -5.4023,-1.6367 z m 86.4004,0 -5.6211,0.5547 -5.4004,1.6367 -4.9785,2.6621 -4.3653,3.5821 -3.582,4.3652 -2.6621,4.9785 -1.6387,5.4043 -0.5527,5.6153 0.5527,5.6211 1.6387,5.4003 2.6621,4.9825 3.582,4.3613 4.3653,3.582 4.9785,2.6621 5.4004,1.6407 5.6211,0.5507 5.6191,-0.5507 5.4004,-1.6407 4.9785,-2.6621 4.3652,-3.582 3.584,-4.3613 2.6602,-4.9825 1.6406,-5.4003 0.5508,-5.6211 -0.5508,-5.6153 -1.6406,-5.4043 -2.6602,-4.9785 -3.584,-4.3652 -4.3652,-3.5821 -4.9785,-2.6621 -5.4004,-1.6367 z m 86.3984,0 -5.6191,0.5547 -5.4004,1.6367 -4.9786,2.6621 -4.3652,3.5821 -3.582,4.3652 -2.6621,4.9785 -1.6407,5.4043 -0.5507,5.6153 0.5507,5.6211 1.6407,5.4003 2.6621,4.9825 3.582,4.3613 4.3652,3.582 4.9786,2.6621 5.4004,1.6407 5.6191,0.5507 5.6211,-0.5507 5.4004,-1.6407 4.9785,-2.6621 4.3652,-3.582 3.5821,-4.3613 2.6621,-4.9825 1.6406,-5.4003 0.5508,-5.6211 -0.5508,-5.6153 -1.6406,-5.4043 -2.6621,-4.9785 -3.5821,-4.3652 -4.3652,-3.5821 -4.9785,-2.6621 -5.4004,-1.6367 z m 86.4004,0 -5.6192,0.5547 -5.4023,1.6367 -4.9766,2.6621 -4.3652,3.5821 -3.584,4.3652 -2.6601,4.9785 -1.6407,5.4043 -0.5507,5.6153 0.5507,5.6211 1.6407,5.4003 2.6601,4.9825 3.584,4.3613 4.3652,3.582 4.9766,2.6621 5.4023,1.6407 5.6192,0.5507 5.6211,-0.5507 5.4004,-1.6407 4.9785,-2.6621 4.3652,-3.582 3.582,-4.3613 2.6602,-4.9825 1.6406,-5.4003 0.5528,-5.6211 -0.5528,-5.6153 -1.6406,-5.4043 -2.6602,-4.9785 -3.582,-4.3652 -4.3652,-3.5821 -4.9785,-2.6621 -5.4004,-1.6367 z m 86.4004,0 -5.6192,0.5547 -5.4023,1.6367 -4.9766,2.6621 -4.3652,3.5821 -3.584,4.3652 -2.6601,4.9785 -1.6407,5.4043 -0.5527,5.6153 0.5527,5.6211 1.6407,5.4003 2.6601,4.9825 3.584,4.3613 4.3652,3.582 4.9766,2.6621 5.4023,1.6407 5.6192,0.5507 5.6211,-0.5507 5.4004,-1.6407 4.9765,-2.6621 4.3653,-3.582 3.5839,-4.3613 2.6602,-4.9825 1.6406,-5.4003 0.5528,-5.6211 -0.5528,-5.6153 -1.6406,-5.4043 -2.6602,-4.9785 -3.5839,-4.3652 -4.3653,-3.5821 -4.9765,-2.6621 -5.4004,-1.6367 z m 86.4004,0 -5.6211,0.5547 -5.4004,1.6367 -4.9785,2.6621 -4.3653,3.5821 -3.582,4.3652 -2.6602,4.9785 -1.6406,5.4043 -0.5527,5.6153 0.5527,5.6211 1.6406,5.4003 2.6602,4.9825 3.582,4.3613 4.3653,3.582 4.9785,2.6621 5.4004,1.6407 5.6211,0.5507 5.6191,-0.5507 5.4023,-1.6407 4.9766,-2.6621 4.3652,-3.582 3.584,-4.3613 2.6602,-4.9825 1.6406,-5.4003 0.5508,-5.6211 -0.5508,-5.6153 -1.6406,-5.4043 -2.6602,-4.9785 -3.584,-4.3652 -4.3652,-3.5821 -4.9766,-2.6621 -5.4023,-1.6367 z m -648,74.8262 -5.6211,0.5527 -5.4004,1.6407 -4.9785,2.6601 -4.3653,3.5801 -3.582,4.3652 -2.6602,4.9805 -1.6406,5.4004 -0.5527,5.6211 0.5527,5.6172 1.6406,5.4043 2.6602,4.9765 3.582,4.3653 4.3653,3.58 4.9785,2.6641 5.4004,1.6367 5.6211,0.5567 5.6191,-0.5567 5.4023,-1.6367 4.9766,-2.6641 4.3652,-3.58 3.584,-4.3653 2.6602,-4.9765 1.6406,-5.4043 0.5508,-5.6172 -0.5508,-5.6211 -1.6406,-5.4004 -2.6602,-4.9805 -3.584,-4.3652 -4.3652,-3.5801 -4.9766,-2.6601 -5.4023,-1.6407 z m 86.4004,0 -5.6211,0.5527 -5.4004,1.6407 -4.9785,2.6601 -4.3653,3.5801 -3.582,4.3652 -2.6621,4.9805 -1.6387,5.4004 -0.5527,5.6211 0.5527,5.6172 1.6387,5.4043 2.6621,4.9765 3.582,4.3653 4.3653,3.58 4.9785,2.6641 5.4004,1.6367 5.6211,0.5567 5.6191,-0.5567 5.4004,-1.6367 4.9785,-2.6641 4.3652,-3.58 3.584,-4.3653 2.6602,-4.9765 1.6406,-5.4043 0.5508,-5.6172 -0.5508,-5.6211 -1.6406,-5.4004 -2.6602,-4.9805 -3.584,-4.3652 -4.3652,-3.5801 -4.9785,-2.6601 -5.4004,-1.6407 z m 86.3984,0 -5.6191,0.5527 -5.4004,1.6407 -4.9786,2.6601 -4.3652,3.5801 -3.582,4.3652 -2.6621,4.9805 -1.6407,5.4004 -0.5507,5.6211 0.5507,5.6172 1.6407,5.4043 2.6621,4.9765 3.582,4.3653 4.3652,3.58 4.9786,2.6641 5.4004,1.6367 5.6191,0.5567 5.6211,-0.5567 5.4004,-1.6367 4.9785,-2.6641 4.3652,-3.58 3.5821,-4.3653 2.6621,-4.9765 1.6406,-5.4043 0.5508,-5.6172 -0.5508,-5.6211 -1.6406,-5.4004 -2.6621,-4.9805 -3.5821,-4.3652 -4.3652,-3.5801 -4.9785,-2.6601 -5.4004,-1.6407 z m 86.4004,0 -5.6192,0.5527 -5.4023,1.6407 -4.9766,2.6601 -4.3652,3.5801 -3.584,4.3652 -2.6601,4.9805 -1.6407,5.4004 -0.5507,5.6211 0.5507,5.6172 1.6407,5.4043 2.6601,4.9765 3.584,4.3653 4.3652,3.58 4.9766,2.6641 5.4023,1.6367 5.6192,0.5567 5.6211,-0.5567 5.4004,-1.6367 4.9785,-2.6641 4.3652,-3.58 3.582,-4.3653 2.6602,-4.9765 1.6406,-5.4043 0.5528,-5.6172 -0.5528,-5.6211 -1.6406,-5.4004 -2.6602,-4.9805 -3.582,-4.3652 -4.3652,-3.5801 -4.9785,-2.6601 -5.4004,-1.6407 z m 86.4004,0 -5.6192,0.5527 -5.4023,1.6407 -4.9766,2.6601 -4.3652,3.5801 -3.584,4.3652 -2.6601,4.9805 -1.6407,5.4004 -0.5527,5.6211 0.5527,5.6172 1.6407,5.4043 2.6601,4.9765 3.584,4.3653 4.3652,3.58 4.9766,2.6641 5.4023,1.6367 5.6192,0.5567 5.6211,-0.5567 5.4004,-1.6367 4.9765,-2.6641 4.3653,-3.58 3.5839,-4.3653 2.6602,-4.9765 1.6406,-5.4043 0.5528,-5.6172 -0.5528,-5.6211 -1.6406,-5.4004 -2.6602,-4.9805 -3.5839,-4.3652 -4.3653,-3.5801 -4.9765,-2.6601 -5.4004,-1.6407 z m 86.4004,0 -5.6211,0.5527 -5.4004,1.6407 -4.9785,2.6601 -4.3653,3.5801 -3.582,4.3652 -2.6602,4.9805 -1.6406,5.4004 -0.5527,5.6211 0.5527,5.6172 1.6406,5.4043 2.6602,4.9765 3.582,4.3653 4.3653,3.58 4.9785,2.6641 5.4004,1.6367 5.6211,0.5567 5.6191,-0.5567 5.4023,-1.6367 4.9766,-2.6641 4.3652,-3.58 3.584,-4.3653 2.6602,-4.9765 1.6406,-5.4043 0.5508,-5.6172 -0.5508,-5.6211 -1.6406,-5.4004 -2.6602,-4.9805 -3.584,-4.3652 -4.3652,-3.5801 -4.9766,-2.6601 -5.4023,-1.6407 z m 86.4004,0 -5.6211,0.5527 -5.4004,1.6407 -4.9785,2.6601 -4.3653,3.5801 -3.582,4.3652 -2.6621,4.9805 -1.6387,5.4004 -0.5527,5.6211 0.5527,5.6172 1.6387,5.4043 2.6621,4.9765 3.582,4.3653 4.3653,3.58 4.9785,2.6641 5.4004,1.6367 5.6211,0.5567 5.6191,-0.5567 5.4004,-1.6367 4.9785,-2.6641 4.3652,-3.58 3.584,-4.3653 2.6602,-4.9765 1.6406,-5.4043 0.5508,-5.6172 -0.5508,-5.6211 -1.6406,-5.4004 -2.6602,-4.9805 -3.584,-4.3652 -4.3652,-3.5801 -4.9785,-2.6601 -5.4004,-1.6407 z m -388.8008,74.8242 -5.6192,0.5508 -5.4023,1.6406 -4.9766,2.6621 -4.3652,3.5821 -3.584,4.3652 -2.6601,4.9785 -1.6407,5.4004 -0.5527,5.6191 0.5527,5.6211 1.6407,5.4004 2.6601,4.9785 3.584,4.3653 4.3652,3.582 4.9766,2.6621 5.4023,1.6406 5.6192,0.5508 5.6211,-0.5508 5.4004,-1.6406 4.9765,-2.6621 4.3653,-3.582 3.5839,-4.3653 2.6602,-4.9785 1.6406,-5.4004 0.5528,-5.6211 -0.5528,-5.6191 -1.6406,-5.4004 -2.6602,-4.9785 -3.5839,-4.3652 -4.3653,-3.5821 -4.9765,-2.6621 -5.4004,-1.6406 z m 86.4004,0 -5.6211,0.5508 -5.4004,1.6406 -4.9785,2.6621 -4.3653,3.5821 -3.582,4.3652 -2.6602,4.9785 -1.6406,5.4004 -0.5527,5.6191 0.5527,5.6211 1.6406,5.4004 2.6602,4.9785 3.582,4.3653 4.3653,3.582 4.9785,2.6621 5.4004,1.6406 5.6211,0.5508 5.6191,-0.5508 5.4023,-1.6406 4.9766,-2.6621 4.3652,-3.582 3.584,-4.3653 2.6602,-4.9785 1.6406,-5.4004 0.5508,-5.6211 -0.5508,-5.6191 -1.6406,-5.4004 -2.6602,-4.9785 -3.584,-4.3652 -4.3652,-3.5821 -4.9766,-2.6621 -5.4023,-1.6406 z m 86.4004,0 -5.6211,0.5508 -5.4004,1.6406 -4.9785,2.6621 -4.3653,3.5821 -3.582,4.3652 -2.6621,4.9785 -1.6387,5.4004 -0.5527,5.6191 0.5527,5.6211 1.6387,5.4004 2.6621,4.9785 3.582,4.3653 4.3653,3.582 4.9785,2.6621 5.4004,1.6406 5.6211,0.5508 5.6191,-0.5508 5.4004,-1.6406 4.9785,-2.6621 4.3652,-3.582 3.584,-4.3653 2.6602,-4.9785 1.6406,-5.4004 0.5508,-5.6211 -0.5508,-5.6191 -1.6406,-5.4004 -2.6602,-4.9785 -3.584,-4.3652 -4.3652,-3.5821 -4.9785,-2.6621 -5.4004,-1.6406 z m 86.3984,0 -5.6191,0.5508 -5.4004,1.6406 -4.9786,2.6621 -4.3652,3.5821 -3.582,4.3652 -2.6621,4.9785 -1.6407,5.4004 -0.5507,5.6191 0.5507,5.6211 1.6407,5.4004 2.6621,4.9785 3.582,4.3653 4.3652,3.582 4.9786,2.6621 5.4004,1.6406 5.6191,0.5508 5.6211,-0.5508 5.4004,-1.6406 4.9785,-2.6621 4.3652,-3.582 3.5821,-4.3653 2.6621,-4.9785 1.6406,-5.4004 0.5508,-5.6211 -0.5508,-5.6191 -1.6406,-5.4004 -2.6621,-4.9785 -3.5821,-4.3652 -4.3652,-3.5821 -4.9785,-2.6621 -5.4004,-1.6406 z"
     id="path6302"
     inkscape:connector-curvature="0" />
  <text
     id="text6532"
     y="1654.3079"
     x="2727.6306">
    <tspan
       id="tspan6530"
       dy="12"
       style="font-style:normal;font-weight:normal;font-size:12px;text-align:center;text-anchor:start;fill:#000000;fill-opacity:1;stroke:none"
       sodipodi:role="line"
       x="2727.6306"
       y="1654.3079">49.24 in<tspan
   id="tspan6528"
   style="font-size:64.99999762%;baseline-shift:super">2</tspan>
</tspan>
  </text>
</svg>
