<?xml version="1.0" standalone="no"?>
<!DOCTYPE svg PUBLIC "-//W3C//DTD SVG 1.1//EN" "http://www.w3.org/Graphics/SVG/1.1/DTD/svg11.dtd">
<svg width="183mm" height="88mm" viewBox="-45 -44 183 88" xmlns="http://www.w3.org/2000/svg" version="1.1">
<title>OpenSCAD Model</title>
<path d="
M 8.68152,43.6449 L 10.8126,43.1664 L 12.9177,42.5838 L 14.9916,41.8987 L 17.0294,41.1126 L 19.0262,40.2275
 L 20.9771,39.2455 L 22.8776,38.1689 L 24.7229,37.0004 L 26.5086,35.7427 L 28.2305,34.399 L 29.8844,32.9723
 L 31.4662,31.4662 L 32.9723,29.8844 L 34.399,28.2305 L 35.7427,26.5086 L 37.0004,24.7229 L 38.1689,22.8776
 L 39.2455,20.9771 L 40.2275,19.0262 L 41.1126,17.0294 L 41.8987,14.9916 L 42.5838,12.9177 L 43.1664,10.8126
 L 43.6449,8.68152 L 44.0183,6.5295 L 44.2857,4.36176 L 44.4464,2.1835 L 44.5,-0 L 44.4464,-2.1835
 L 44.2857,-4.36176 L 44.0183,-6.5295 L 43.6449,-8.68152 L 43.1664,-10.8126 L 42.5838,-12.9177 L 41.8987,-14.9916
 L 41.1126,-17.0294 L 40.2275,-19.0262 L 39.2455,-20.9771 L 38.1689,-22.8776 L 37.0004,-24.7229 L 35.7427,-26.5086
 L 34.399,-28.2305 L 32.9723,-29.8844 L 31.4662,-31.4662 L 29.8844,-32.9723 L 28.2305,-34.399 L 26.5086,-35.7427
 L 24.7229,-37.0004 L 22.8776,-38.1689 L 20.9771,-39.2455 L 19.0262,-40.2275 L 17.0294,-41.1126 L 14.9916,-41.8987
 L 12.9177,-42.5838 L 10.8126,-43.1664 L 8.68152,-43.6449 L 7.47054,-43.8551 L 7.46388,-43.7649 L 7.41882,-43.3995
 L 7.35588,-43.0368 L 7.27522,-42.6776 L 7.17705,-42.3229 L 7.06157,-41.9733 L 6.92909,-41.6299 L 6.77991,-41.2933
 L 6.6144,-40.9645 L 6.43295,-40.6442 L 6.23601,-40.3332 L 6.02405,-40.0322 L 5.79758,-39.7421 L 5.55713,-39.4633
 L 5.3033,-39.1967 L 5.03668,-38.9429 L 4.75793,-38.7024 L 4.46774,-38.4759 L 4.16676,-38.264 L 3.85576,-38.067
 L 3.53546,-37.8856 L 3.20665,-37.7201 L 2.87012,-37.5709 L 2.52667,-37.4384 L 2.17712,-37.3229 L 1.82234,-37.2248
 L 1.46317,-37.1441 L 1.10046,-37.0812 L 0.735123,-37.0361 L 0.367996,-37.009 L 0,-37 L -0.367996,-37.009
 L -0.735123,-37.0361 L -1.10046,-37.0812 L -1.46317,-37.1441 L -1.82234,-37.2248 L -2.17712,-37.3229 L -2.52667,-37.4384
 L -2.87012,-37.5709 L -3.20665,-37.7201 L -3.53546,-37.8856 L -3.85576,-38.067 L -4.16676,-38.264 L -4.46774,-38.4759
 L -4.75793,-38.7024 L -5.03668,-38.9429 L -5.3033,-39.1967 L -5.55713,-39.4633 L -5.79758,-39.7421 L -6.02405,-40.0322
 L -6.23601,-40.3332 L -6.43295,-40.6442 L -6.6144,-40.9645 L -6.77991,-41.2933 L -6.92909,-41.6299 L -7.06157,-41.9733
 L -7.17705,-42.3229 L -7.27522,-42.6776 L -7.35588,-43.0368 L -7.41882,-43.3995 L -7.46388,-43.7649 L -7.47054,-43.8551
 L -8.68152,-43.6449 L -10.8126,-43.1664 L -12.9177,-42.5838 L -14.9916,-41.8987 L -17.0294,-41.1126 L -19.0262,-40.2275
 L -20.9771,-39.2455 L -22.8776,-38.1689 L -24.7229,-37.0004 L -26.5086,-35.7427 L -28.2305,-34.399 L -29.8844,-32.9723
 L -31.4662,-31.4662 L -32.9723,-29.8844 L -34.399,-28.2305 L -35.7427,-26.5086 L -37.0004,-24.7229 L -38.1689,-22.8776
 L -39.2455,-20.9771 L -40.2275,-19.0262 L -41.1126,-17.0294 L -41.8987,-14.9916 L -42.5838,-12.9177 L -43.1664,-10.8126
 L -43.6449,-8.68152 L -44.0183,-6.5295 L -44.2857,-4.36176 L -44.4464,-2.1835 L -44.5,-0 L -44.4464,2.1835
 L -44.2857,4.36176 L -44.0183,6.5295 L -43.6449,8.68152 L -43.1664,10.8126 L -42.5838,12.9177 L -41.8987,14.9916
 L -41.1126,17.0294 L -40.2275,19.0262 L -39.2455,20.9771 L -38.1689,22.8776 L -37.0004,24.7229 L -35.7427,26.5086
 L -34.399,28.2305 L -32.9723,29.8844 L -31.4662,31.4662 L -29.8844,32.9723 L -28.2305,34.399 L -26.5086,35.7427
 L -24.7229,37.0004 L -22.8776,38.1689 L -20.9771,39.2455 L -19.0262,40.2275 L -17.0294,41.1126 L -14.9916,41.8987
 L -12.9177,42.5838 L -10.8126,43.1664 L -8.68152,43.6449 L -7.47054,43.8551 L -7.46388,43.7649 L -7.41882,43.3995
 L -7.35588,43.0368 L -7.27522,42.6776 L -7.17705,42.3229 L -7.06157,41.9733 L -6.92909,41.6299 L -6.77991,41.2933
 L -6.6144,40.9645 L -6.43295,40.6442 L -6.23601,40.3332 L -6.02405,40.0322 L -5.79758,39.7421 L -5.55713,39.4633
 L -5.3033,39.1967 L -5.03668,38.9429 L -4.75793,38.7024 L -4.46774,38.4759 L -4.16676,38.264 L -3.85576,38.067
 L -3.53546,37.8856 L -3.20665,37.7201 L -2.87012,37.5709 L -2.52667,37.4384 L -2.17712,37.3229 L -1.82234,37.2248
 L -1.46317,37.1441 L -1.10046,37.0812 L -0.735123,37.0361 L -0.367996,37.009 L 0,37 L 0.367996,37.009
 L 0.735123,37.0361 L 1.10046,37.0812 L 1.46317,37.1441 L 1.82234,37.2248 L 2.17712,37.3229 L 2.52667,37.4384
 L 2.87012,37.5709 L 3.20665,37.7201 L 3.53546,37.8856 L 3.85576,38.067 L 4.16676,38.264 L 4.46774,38.4759
 L 4.75793,38.7024 L 5.03668,38.9429 L 5.3033,39.1967 L 5.55713,39.4633 L 5.79758,39.7421 L 6.02405,40.0322
 L 6.23601,40.3332 L 6.43295,40.6442 L 6.6144,40.9645 L 6.77991,41.2933 L 6.92909,41.6299 L 7.06157,41.9733
 L 7.17705,42.3229 L 7.27522,42.6776 L 7.35588,43.0368 L 7.41882,43.3995 L 7.46388,43.7649 L 7.47054,43.8551
 z
M -30.5,29.5 L -30.5,17.5 L -38.5,17.5 L -38.5,-17.5 L -30.5,-17.5 L -30.5,-29.5
 L 30.5,-29.5 L 30.5,-17.5 L 38.5,-17.5 L 38.5,17.5 L 30.5,17.5 L 30.5,29.5
 z
M 101.682,43.6449 L 103.813,43.1664 L 105.918,42.5838 L 107.992,41.8987 L 110.029,41.1126 L 112.026,40.2275
 L 113.977,39.2455 L 115.878,38.1689 L 117.723,37.0004 L 119.509,35.7427 L 121.23,34.399 L 122.884,32.9723
 L 124.466,31.4662 L 125.972,29.8844 L 127.399,28.2305 L 128.743,26.5086 L 130,24.7229 L 131.169,22.8776
 L 132.245,20.9771 L 133.228,19.0262 L 134.113,17.0294 L 134.899,14.9916 L 135.584,12.9177 L 136.166,10.8126
 L 136.645,8.68152 L 137.018,6.5295 L 137.286,4.36176 L 137.446,2.1835 L 137.5,-0 L 137.446,-2.1835
 L 137.286,-4.36176 L 137.018,-6.5295 L 136.645,-8.68152 L 136.166,-10.8126 L 135.584,-12.9177 L 134.899,-14.9916
 L 134.113,-17.0294 L 133.228,-19.0262 L 132.245,-20.9771 L 131.169,-22.8776 L 130,-24.7229 L 128.743,-26.5086
 L 127.399,-28.2305 L 125.972,-29.8844 L 124.466,-31.4662 L 122.884,-32.9723 L 121.23,-34.399 L 119.509,-35.7427
 L 117.723,-37.0004 L 115.878,-38.1689 L 113.977,-39.2455 L 112.026,-40.2275 L 110.029,-41.1126 L 107.992,-41.8987
 L 105.918,-42.5838 L 103.813,-43.1664 L 101.682,-43.6449 L 100.471,-43.8551 L 100.464,-43.7649 L 100.419,-43.3995
 L 100.356,-43.0368 L 100.275,-42.6776 L 100.177,-42.3229 L 100.062,-41.9733 L 99.9291,-41.6299 L 99.7799,-41.2933
 L 99.6144,-40.9645 L 99.433,-40.6442 L 99.236,-40.3332 L 99.024,-40.0322 L 98.7976,-39.7421 L 98.5571,-39.4633
 L 98.3033,-39.1967 L 98.0367,-38.9429 L 97.7579,-38.7024 L 97.4677,-38.4759 L 97.1668,-38.264 L 96.8558,-38.067
 L 96.5355,-37.8856 L 96.2066,-37.7201 L 95.8701,-37.5709 L 95.5267,-37.4384 L 95.1771,-37.3229 L 94.8223,-37.2248
 L 94.4632,-37.1441 L 94.1005,-37.0812 L 93.7351,-37.0361 L 93.368,-37.009 L 93,-37 L 92.632,-37.009
 L 92.2649,-37.0361 L 91.8995,-37.0812 L 91.5368,-37.1441 L 91.1777,-37.2248 L 90.8229,-37.3229 L 90.4733,-37.4384
 L 90.1299,-37.5709 L 89.7934,-37.7201 L 89.4645,-37.8856 L 89.1442,-38.067 L 88.8332,-38.264 L 88.5323,-38.4759
 L 88.2421,-38.7024 L 87.9633,-38.9429 L 87.6967,-39.1967 L 87.4429,-39.4633 L 87.2024,-39.7421 L 86.976,-40.0322
 L 86.764,-40.3332 L 86.567,-40.6442 L 86.3856,-40.9645 L 86.2201,-41.2933 L 86.0709,-41.6299 L 85.9384,-41.9733
 L 85.823,-42.3229 L 85.7248,-42.6776 L 85.6441,-43.0368 L 85.5812,-43.3995 L 85.5361,-43.7649 L 85.5295,-43.8551
 L 84.3185,-43.6449 L 82.1874,-43.1664 L 80.0823,-42.5838 L 78.0084,-41.8987 L 75.9706,-41.1126 L 73.9738,-40.2275
 L 72.0229,-39.2455 L 70.1224,-38.1689 L 68.2771,-37.0004 L 66.4914,-35.7427 L 64.7695,-34.399 L 63.1156,-32.9723
 L 61.5338,-31.4662 L 60.0277,-29.8844 L 58.601,-28.2305 L 57.2573,-26.5086 L 55.9996,-24.7229 L 54.8311,-22.8776
 L 53.7545,-20.9771 L 52.7725,-19.0262 L 51.8874,-17.0294 L 51.1013,-14.9916 L 50.4162,-12.9177 L 49.8336,-10.8126
 L 49.3551,-8.68152 L 48.9817,-6.5295 L 48.7143,-4.36176 L 48.5536,-2.1835 L 48.5,-0 L 48.5536,2.1835
 L 48.7143,4.36176 L 48.9817,6.5295 L 49.3551,8.68152 L 49.8336,10.8126 L 50.4162,12.9177 L 51.1013,14.9916
 L 51.8874,17.0294 L 52.7725,19.0262 L 53.7545,20.9771 L 54.8311,22.8776 L 55.9996,24.7229 L 57.2573,26.5086
 L 58.601,28.2305 L 60.0277,29.8844 L 61.5338,31.4662 L 63.1156,32.9723 L 64.7695,34.399 L 66.4914,35.7427
 L 68.2771,37.0004 L 70.1224,38.1689 L 72.0229,39.2455 L 73.9738,40.2275 L 75.9706,41.1126 L 78.0084,41.8987
 L 80.0823,42.5838 L 82.1874,43.1664 L 84.3185,43.6449 L 85.5295,43.8551 L 85.5361,43.7649 L 85.5812,43.3995
 L 85.6441,43.0368 L 85.7248,42.6776 L 85.823,42.3229 L 85.9384,41.9733 L 86.0709,41.6299 L 86.2201,41.2933
 L 86.3856,40.9645 L 86.567,40.6442 L 86.764,40.3332 L 86.976,40.0322 L 87.2024,39.7421 L 87.4429,39.4633
 L 87.6967,39.1967 L 87.9633,38.9429 L 88.2421,38.7024 L 88.5323,38.4759 L 88.8332,38.264 L 89.1442,38.067
 L 89.4645,37.8856 L 89.7934,37.7201 L 90.1299,37.5709 L 90.4733,37.4384 L 90.8229,37.3229 L 91.1777,37.2248
 L 91.5368,37.1441 L 91.8995,37.0812 L 92.2649,37.0361 L 92.632,37.009 L 93,37 L 93.368,37.009
 L 93.7351,37.0361 L 94.1005,37.0812 L 94.4632,37.1441 L 94.8223,37.2248 L 95.1771,37.3229 L 95.5267,37.4384
 L 95.8701,37.5709 L 96.2066,37.7201 L 96.5355,37.8856 L 96.8558,38.067 L 97.1668,38.264 L 97.4677,38.4759
 L 97.7579,38.7024 L 98.0367,38.9429 L 98.3033,39.1967 L 98.5571,39.4633 L 98.7976,39.7421 L 99.024,40.0322
 L 99.236,40.3332 L 99.433,40.6442 L 99.6144,40.9645 L 99.7799,41.2933 L 99.9291,41.6299 L 100.062,41.9733
 L 100.177,42.3229 L 100.275,42.6776 L 100.356,43.0368 L 100.419,43.3995 L 100.464,43.7649 L 100.471,43.8551
 z
" stroke="black" fill="lightgray" stroke-width="0.5"/>
</svg>
