<?xml version="1.0" encoding="UTF-8" standalone="no"?>
<!-- Created with Inkscape (http://www.inkscape.org/) -->

<svg
   xmlns:dc="http://purl.org/dc/elements/1.1/"
   xmlns:cc="http://creativecommons.org/ns#"
   xmlns:rdf="http://www.w3.org/1999/02/22-rdf-syntax-ns#"
   xmlns:svg="http://www.w3.org/2000/svg"
   xmlns="http://www.w3.org/2000/svg"
   xmlns:sodipodi="http://sodipodi.sourceforge.net/DTD/sodipodi-0.dtd"
   xmlns:inkscape="http://www.inkscape.org/namespaces/inkscape"
   version="1.1"
   id="svg4485"
   width="8.5in"
   height="11in"
   viewBox="0 0 816 1056"
   sodipodi:docname="retina-adapter-shim-bigholex3.svg"
   inkscape:version="0.92.1 r15371">
  <metadata
     id="metadata4491">
    <rdf:RDF>
      <cc:Work
         rdf:about="">
        <dc:format>image/svg+xml</dc:format>
        <dc:type
           rdf:resource="http://purl.org/dc/dcmitype/StillImage" />
        <dc:title></dc:title>
      </cc:Work>
    </rdf:RDF>
  </metadata>
  <defs
     id="defs4489" />
  <sodipodi:namedview
     pagecolor="#ffffff"
     bordercolor="#666666"
     borderopacity="1"
     objecttolerance="10"
     gridtolerance="10"
     guidetolerance="10"
     inkscape:pageopacity="0"
     inkscape:pageshadow="2"
     inkscape:window-width="1920"
     inkscape:window-height="986"
     id="namedview4487"
     showgrid="false"
     inkscape:measure-start="461.64,321.763"
     inkscape:measure-end="621.089,368.071"
     inkscape:snap-object-midpoints="true"
     inkscape:zoom="0.52367673"
     inkscape:cx="541.19859"
     inkscape:cy="340.37227"
     inkscape:window-x="-11"
     inkscape:window-y="3"
     inkscape:window-maximized="1"
     inkscape:current-layer="svg4485"
     units="in" />
  <path
     style="opacity:0.25;fill:#ffffff;fill-opacity:1;stroke:#000000;stroke-width:0.99534738;stroke-linecap:round;stroke-linejoin:round;stroke-miterlimit:4;stroke-dasharray:none;stroke-dashoffset:0"
     d="m 147.63281,55.14407 a 107.68663,108.0242 0 0 0 -33.17382,5.31836 l 7.55468,18.75977 a 5.7386622,4.9791336 0 0 1 2.75,-0.61329 5.7386622,4.9791336 0 0 1 0.32227,0.0137 5.728725,5.728725 0 0 1 5.24219,-3.42774 5.728725,5.728725 0 0 1 5.72851,5.72852 5.728725,5.728725 0 0 1 -0.99609,3.22851 79.884102,80.134514 0 0 1 12.57226,-1.11718 79.884102,80.134514 0 0 1 77.62696,61.61523 5.728725,5.728725 0 0 1 5.08203,-3.09766 5.728725,5.728725 0 0 1 5.72851,5.72852 5.728725,5.728725 0 0 1 -5.72851,5.72852 5.728725,5.728725 0 0 1 -3.73633,-1.39063 79.884102,80.134514 0 0 1 0.91211,11.55078 79.884102,80.134514 0 0 1 -45.18555,72.05469 5.728725,5.728725 0 0 1 2.41992,4.67187 5.728725,5.728725 0 0 1 -5.72851,5.72852 5.728725,5.728725 0 0 1 -5.73047,-5.72852 5.728725,5.728725 0 0 1 0.0937,-1.00195 79.884102,80.134514 0 0 1 -25.75391,4.41016 79.884102,80.134514 0 0 1 -72.230461,-46.19336 5.728725,5.728725 0 0 1 -4.50976,2.20703 5.728725,5.728725 0 0 1 -5.72852,-5.73047 5.728725,5.728725 0 0 1 0.01758,-0.35742 l -3.48437,-5.29297 c -2.92718,-1.02278 -6.07114,-3.56087 -6.5918,-3.93359 10e-4,0.0183 0.0019,0.0364 0.0039,0.0547 -0.14129,-0.14128 -0.11066,-0.13115 -0.0039,-0.0547 -2.07407,-26.53784 -3.53667,-51.50663 20.80078,-80.64258 7.6383,-10.50266 19.334026,-19.09571 19.333976,-19.09571 l -5.251946,-11.45703 0.15625,-0.83398 A 107.68663,108.0242 0 0 0 39.947279,163.16946 107.68663,108.0242 0 0 0 147.63281,271.1929 107.68663,108.0242 0 0 0 255.32031,163.16946 107.68663,108.0242 0 0 0 147.63281,55.14407 Z"
     id="path4495"
     inkscape:connector-curvature="0" />
  <path
     inkscape:connector-curvature="0"
     id="path16"
     d="m 403.51586,60.872795 a 107.68663,108.0242 0 0 0 -33.17382,5.31836 l 7.55468,18.75977 a 5.7386622,4.9791336 0 0 1 2.75,-0.61329 5.7386622,4.9791336 0 0 1 0.32227,0.0137 5.728725,5.728725 0 0 1 5.24219,-3.42774 5.728725,5.728725 0 0 1 5.72851,5.72852 5.728725,5.728725 0 0 1 -0.99609,3.22851 79.884102,80.134514 0 0 1 12.57226,-1.11718 79.884102,80.134514 0 0 1 77.62696,61.615235 5.728725,5.728725 0 0 1 5.08203,-3.09766 5.728725,5.728725 0 0 1 5.72851,5.72852 5.728725,5.728725 0 0 1 -5.72851,5.72852 5.728725,5.728725 0 0 1 -3.73633,-1.39063 79.884102,80.134514 0 0 1 0.91211,11.55078 79.884102,80.134514 0 0 1 -45.18555,72.05469 5.728725,5.728725 0 0 1 2.41992,4.67187 5.728725,5.728725 0 0 1 -5.72851,5.72852 5.728725,5.728725 0 0 1 -5.73047,-5.72852 5.728725,5.728725 0 0 1 0.0937,-1.00195 79.884102,80.134514 0 0 1 -25.75391,4.41016 79.884102,80.134514 0 0 1 -72.23046,-46.19336 5.728725,5.728725 0 0 1 -4.50976,2.20703 5.728725,5.728725 0 0 1 -5.72852,-5.73047 5.728725,5.728725 0 0 1 0.0176,-0.35742 l -3.48437,-5.29297 c -2.92718,-1.02278 -6.07114,-3.56087 -6.5918,-3.93359 0.001,0.0183 0.002,0.0364 0.004,0.0547 -0.14129,-0.14128 -0.11066,-0.13115 -0.004,-0.0547 -2.07407,-26.53784 -3.53667,-51.50663 20.80078,-80.64258 7.6383,-10.502665 19.33403,-19.095715 19.33398,-19.095715 l -5.25195,-11.45703 0.15625,-0.83398 A 107.68663,108.0242 0 0 0 295.83033,168.89819 107.68663,108.0242 0 0 0 403.51586,276.92163 107.68663,108.0242 0 0 0 511.20336,168.89819 107.68663,108.0242 0 0 0 403.51586,60.872795 Z"
     style="opacity:0.25;fill:#ffffff;fill-opacity:1;stroke:#000000;stroke-width:0.99534738;stroke-linecap:round;stroke-linejoin:round;stroke-miterlimit:4;stroke-dasharray:none;stroke-dashoffset:0" />
  <path
     style="opacity:0.25;fill:#ffffff;fill-opacity:1;stroke:#000000;stroke-width:0.99534738;stroke-linecap:round;stroke-linejoin:round;stroke-miterlimit:4;stroke-dasharray:none;stroke-dashoffset:0"
     d="m 649.85104,64.691945 a 107.68663,108.0242 0 0 0 -33.17382,5.31836 l 7.55468,18.75977 a 5.7386622,4.9791336 0 0 1 2.75,-0.61329 5.7386622,4.9791336 0 0 1 0.32227,0.0137 5.728725,5.728725 0 0 1 5.24219,-3.42774 5.728725,5.728725 0 0 1 5.72851,5.72852 5.728725,5.728725 0 0 1 -0.99609,3.22851 79.884102,80.134514 0 0 1 12.57226,-1.11718 79.884102,80.134514 0 0 1 77.62696,61.615235 5.728725,5.728725 0 0 1 5.08203,-3.09766 5.728725,5.728725 0 0 1 5.72851,5.72852 5.728725,5.728725 0 0 1 -5.72851,5.72852 5.728725,5.728725 0 0 1 -3.73633,-1.39063 79.884102,80.134514 0 0 1 0.91211,11.55078 79.884102,80.134514 0 0 1 -45.18555,72.05469 5.728725,5.728725 0 0 1 2.41992,4.67187 5.728725,5.728725 0 0 1 -5.72851,5.72852 5.728725,5.728725 0 0 1 -5.73047,-5.72852 5.728725,5.728725 0 0 1 0.0937,-1.00195 79.884102,80.134514 0 0 1 -25.75391,4.41016 79.884102,80.134514 0 0 1 -72.23046,-46.19336 5.728725,5.728725 0 0 1 -4.50976,2.20703 5.728725,5.728725 0 0 1 -5.72852,-5.73047 5.728725,5.728725 0 0 1 0.0176,-0.35742 l -3.48437,-5.29297 c -2.92718,-1.02278 -6.07114,-3.56087 -6.5918,-3.93359 10e-4,0.0183 0.002,0.0364 0.004,0.0547 -0.14129,-0.14128 -0.11066,-0.13115 -0.004,-0.0547 -2.07407,-26.53784 -3.53667,-51.50663 20.80078,-80.64258 7.6383,-10.50266 19.33403,-19.095715 19.33398,-19.095715 l -5.25195,-11.45703 0.15625,-0.83398 A 107.68663,108.0242 0 0 0 542.16551,172.71734 107.68663,108.0242 0 0 0 649.85104,280.74078 107.68663,108.0242 0 0 0 757.53854,172.71734 107.68663,108.0242 0 0 0 649.85104,64.691945 Z"
     id="path18"
     inkscape:connector-curvature="0" />
</svg>
