solid OpenSCAD_Model
  facet normal 0.998796 0.0490664 0
    outer loop
      vertex 6.6 0 6
      vertex 6.56822 0.646913 0
      vertex 6.56822 0.646913 6
    endloop
  endfacet
  facet normal 0.998796 0.0490664 0
    outer loop
      vertex 6.56822 0.646913 0
      vertex 6.6 0 6
      vertex 6.6 0 0
    endloop
  endfacet
  facet normal -0.998796 0.0490664 0
    outer loop
      vertex -6.6 0 0
      vertex -6.56822 0.646913 6
      vertex -6.56822 0.646913 0
    endloop
  endfacet
  facet normal -0.998796 0.0490664 0
    outer loop
      vertex -6.56822 0.646913 6
      vertex -6.6 0 0
      vertex -6.6 0 6
    endloop
  endfacet
  facet normal -0.0490664 0.998796 0
    outer loop
      vertex 0 6.6 0
      vertex -0.646913 6.56822 6
      vertex 0 6.6 6
    endloop
  endfacet
  facet normal -0.0490664 0.998796 0
    outer loop
      vertex -0.646913 6.56822 6
      vertex 0 6.6 0
      vertex -0.646913 6.56822 0
    endloop
  endfacet
  facet normal 0.0490664 -0.998796 0
    outer loop
      vertex 0 -6.6 0
      vertex 0.646913 -6.56822 6
      vertex 0 -6.6 6
    endloop
  endfacet
  facet normal 0.0490664 -0.998796 0
    outer loop
      vertex 0.646913 -6.56822 6
      vertex 0 -6.6 0
      vertex 0.646913 -6.56822 0
    endloop
  endfacet
  facet normal 0.671571 0.74094 -0
    outer loop
      vertex 4.6669 4.6669 0
      vertex 4.187 5.10187 6
      vertex 4.6669 4.6669 6
    endloop
  endfacet
  facet normal 0.671571 0.74094 0
    outer loop
      vertex 4.187 5.10187 6
      vertex 4.6669 4.6669 0
      vertex 4.187 5.10187 0
    endloop
  endfacet
  facet normal -0.74094 0.671571 0
    outer loop
      vertex -5.10187 4.187 0
      vertex -4.6669 4.6669 6
      vertex -4.6669 4.6669 0
    endloop
  endfacet
  facet normal -0.74094 0.671571 0
    outer loop
      vertex -4.6669 4.6669 6
      vertex -5.10187 4.187 0
      vertex -5.10187 4.187 6
    endloop
  endfacet
  facet normal -0.427548 0.903993 0
    outer loop
      vertex -2.52571 6.0976 0
      vertex -3.11122 5.82068 6
      vertex -2.52571 6.0976 6
    endloop
  endfacet
  facet normal -0.427548 0.903993 0
    outer loop
      vertex -3.11122 5.82068 6
      vertex -2.52571 6.0976 0
      vertex -3.11122 5.82068 0
    endloop
  endfacet
  facet normal 0.903993 0.427548 0
    outer loop
      vertex 6.0976 2.52571 6
      vertex 5.82068 3.11122 0
      vertex 5.82068 3.11122 6
    endloop
  endfacet
  facet normal 0.903993 0.427548 0
    outer loop
      vertex 5.82068 3.11122 0
      vertex 6.0976 2.52571 6
      vertex 6.0976 2.52571 0
    endloop
  endfacet
  facet normal 0.336903 0.941539 -0
    outer loop
      vertex 2.52571 6.0976 0
      vertex 1.91588 6.31581 6
      vertex 2.52571 6.0976 6
    endloop
  endfacet
  facet normal 0.336903 0.941539 0
    outer loop
      vertex 1.91588 6.31581 6
      vertex 2.52571 6.0976 0
      vertex 1.91588 6.31581 0
    endloop
  endfacet
  facet normal 0.514105 0.857727 -0
    outer loop
      vertex 3.66676 5.4877 0
      vertex 3.11122 5.82068 6
      vertex 3.66676 5.4877 6
    endloop
  endfacet
  facet normal 0.514105 0.857727 0
    outer loop
      vertex 3.11122 5.82068 6
      vertex 3.66676 5.4877 0
      vertex 3.11122 5.82068 0
    endloop
  endfacet
  facet normal -0.903993 0.427548 0
    outer loop
      vertex -6.0976 2.52571 0
      vertex -5.82068 3.11122 6
      vertex -5.82068 3.11122 0
    endloop
  endfacet
  facet normal -0.903993 0.427548 0
    outer loop
      vertex -5.82068 3.11122 6
      vertex -6.0976 2.52571 0
      vertex -6.0976 2.52571 6
    endloop
  endfacet
  facet normal -0.242972 0.970033 0
    outer loop
      vertex -1.2876 6.47318 0
      vertex -1.91588 6.31581 6
      vertex -1.2876 6.47318 6
    endloop
  endfacet
  facet normal -0.242972 0.970033 0
    outer loop
      vertex -1.91588 6.31581 6
      vertex -1.2876 6.47318 0
      vertex -1.91588 6.31581 0
    endloop
  endfacet
  facet normal 0.970033 -0.242972 0
    outer loop
      vertex 6.31581 -1.91588 6
      vertex 6.47318 -1.2876 0
      vertex 6.47318 -1.2876 6
    endloop
  endfacet
  facet normal 0.970033 -0.242972 0
    outer loop
      vertex 6.47318 -1.2876 0
      vertex 6.31581 -1.91588 6
      vertex 6.31581 -1.91588 0
    endloop
  endfacet
  facet normal 0.146735 -0.989176 0
    outer loop
      vertex 0.646913 -6.56822 0
      vertex 1.2876 -6.47318 6
      vertex 0.646913 -6.56822 6
    endloop
  endfacet
  facet normal 0.146735 -0.989176 0
    outer loop
      vertex 1.2876 -6.47318 6
      vertex 0.646913 -6.56822 0
      vertex 1.2876 -6.47318 0
    endloop
  endfacet
  facet normal 0.970033 0.242972 0
    outer loop
      vertex 6.47318 1.2876 6
      vertex 6.31581 1.91588 0
      vertex 6.31581 1.91588 6
    endloop
  endfacet
  facet normal 0.970033 0.242972 0
    outer loop
      vertex 6.31581 1.91588 0
      vertex 6.47318 1.2876 6
      vertex 6.47318 1.2876 0
    endloop
  endfacet
  facet normal 0.989176 0.146735 0
    outer loop
      vertex 6.56822 0.646913 6
      vertex 6.47318 1.2876 0
      vertex 6.47318 1.2876 6
    endloop
  endfacet
  facet normal 0.989176 0.146735 0
    outer loop
      vertex 6.47318 1.2876 0
      vertex 6.56822 0.646913 6
      vertex 6.56822 0.646913 0
    endloop
  endfacet
  facet normal 0.941539 0.336903 0
    outer loop
      vertex 6.31581 1.91588 6
      vertex 6.0976 2.52571 0
      vertex 6.0976 2.52571 6
    endloop
  endfacet
  facet normal 0.941539 0.336903 0
    outer loop
      vertex 6.0976 2.52571 0
      vertex 6.31581 1.91588 6
      vertex 6.31581 1.91588 0
    endloop
  endfacet
  facet normal 0.803212 0.595693 0
    outer loop
      vertex 5.4877 3.66676 6
      vertex 5.10187 4.187 0
      vertex 5.10187 4.187 6
    endloop
  endfacet
  facet normal 0.803212 0.595693 0
    outer loop
      vertex 5.10187 4.187 0
      vertex 5.4877 3.66676 6
      vertex 5.4877 3.66676 0
    endloop
  endfacet
  facet normal 0.74094 0.671571 0
    outer loop
      vertex 5.10187 4.187 6
      vertex 4.6669 4.6669 0
      vertex 4.6669 4.6669 6
    endloop
  endfacet
  facet normal 0.74094 0.671571 0
    outer loop
      vertex 4.6669 4.6669 0
      vertex 5.10187 4.187 6
      vertex 5.10187 4.187 0
    endloop
  endfacet
  facet normal 0.857727 0.514105 0
    outer loop
      vertex 5.82068 3.11122 6
      vertex 5.4877 3.66676 0
      vertex 5.4877 3.66676 6
    endloop
  endfacet
  facet normal 0.857727 0.514105 0
    outer loop
      vertex 5.4877 3.66676 0
      vertex 5.82068 3.11122 6
      vertex 5.82068 3.11122 0
    endloop
  endfacet
  facet normal 0.146735 0.989176 -0
    outer loop
      vertex 1.2876 6.47318 0
      vertex 0.646913 6.56822 6
      vertex 1.2876 6.47318 6
    endloop
  endfacet
  facet normal 0.146735 0.989176 0
    outer loop
      vertex 0.646913 6.56822 6
      vertex 1.2876 6.47318 0
      vertex 0.646913 6.56822 0
    endloop
  endfacet
  facet normal 0.242972 0.970033 -0
    outer loop
      vertex 1.91588 6.31581 0
      vertex 1.2876 6.47318 6
      vertex 1.91588 6.31581 6
    endloop
  endfacet
  facet normal 0.242972 0.970033 0
    outer loop
      vertex 1.2876 6.47318 6
      vertex 1.91588 6.31581 0
      vertex 1.2876 6.47318 0
    endloop
  endfacet
  facet normal 0.0490664 0.998796 -0
    outer loop
      vertex 0.646913 6.56822 0
      vertex 0 6.6 6
      vertex 0.646913 6.56822 6
    endloop
  endfacet
  facet normal 0.0490664 0.998796 0
    outer loop
      vertex 0 6.6 6
      vertex 0.646913 6.56822 0
      vertex 0 6.6 0
    endloop
  endfacet
  facet normal 0.427548 0.903993 -0
    outer loop
      vertex 3.11122 5.82068 0
      vertex 2.52571 6.0976 6
      vertex 3.11122 5.82068 6
    endloop
  endfacet
  facet normal 0.427548 0.903993 0
    outer loop
      vertex 2.52571 6.0976 6
      vertex 3.11122 5.82068 0
      vertex 2.52571 6.0976 0
    endloop
  endfacet
  facet normal 0.595693 0.803212 -0
    outer loop
      vertex 4.187 5.10187 0
      vertex 3.66676 5.4877 6
      vertex 4.187 5.10187 6
    endloop
  endfacet
  facet normal 0.595693 0.803212 0
    outer loop
      vertex 3.66676 5.4877 6
      vertex 4.187 5.10187 0
      vertex 3.66676 5.4877 0
    endloop
  endfacet
  facet normal -0.970033 0.242972 0
    outer loop
      vertex -6.47318 1.2876 0
      vertex -6.31581 1.91588 6
      vertex -6.31581 1.91588 0
    endloop
  endfacet
  facet normal -0.970033 0.242972 0
    outer loop
      vertex -6.31581 1.91588 6
      vertex -6.47318 1.2876 0
      vertex -6.47318 1.2876 6
    endloop
  endfacet
  facet normal -0.857727 0.514105 0
    outer loop
      vertex -5.82068 3.11122 0
      vertex -5.4877 3.66676 6
      vertex -5.4877 3.66676 0
    endloop
  endfacet
  facet normal -0.857727 0.514105 0
    outer loop
      vertex -5.4877 3.66676 6
      vertex -5.82068 3.11122 0
      vertex -5.82068 3.11122 6
    endloop
  endfacet
  facet normal -0.803212 0.595693 0
    outer loop
      vertex -5.4877 3.66676 0
      vertex -5.10187 4.187 6
      vertex -5.10187 4.187 0
    endloop
  endfacet
  facet normal -0.803212 0.595693 0
    outer loop
      vertex -5.10187 4.187 6
      vertex -5.4877 3.66676 0
      vertex -5.4877 3.66676 6
    endloop
  endfacet
  facet normal -0.941539 0.336903 0
    outer loop
      vertex -6.31581 1.91588 0
      vertex -6.0976 2.52571 6
      vertex -6.0976 2.52571 0
    endloop
  endfacet
  facet normal -0.941539 0.336903 0
    outer loop
      vertex -6.0976 2.52571 6
      vertex -6.31581 1.91588 0
      vertex -6.31581 1.91588 6
    endloop
  endfacet
  facet normal -0.989176 0.146735 0
    outer loop
      vertex -6.56822 0.646913 0
      vertex -6.47318 1.2876 6
      vertex -6.47318 1.2876 0
    endloop
  endfacet
  facet normal -0.989176 0.146735 0
    outer loop
      vertex -6.47318 1.2876 6
      vertex -6.56822 0.646913 0
      vertex -6.56822 0.646913 6
    endloop
  endfacet
  facet normal 0 0 1
    outer loop
      vertex 5.9 0 6
      vertex 6.6 0 6
      vertex 6.56822 0.646913 6
    endloop
  endfacet
  facet normal 0 0 1
    outer loop
      vertex 5.87159 0.5783 6
      vertex 6.56822 0.646913 6
      vertex 6.47318 1.2876 6
    endloop
  endfacet
  facet normal 0 0 1
    outer loop
      vertex 6.6 0 6
      vertex 5.9 0 6
      vertex 6.56822 -0.646913 6
    endloop
  endfacet
  facet normal 0 0 1
    outer loop
      vertex 5.78663 1.15103 6
      vertex 6.47318 1.2876 6
      vertex 6.31581 1.91588 6
    endloop
  endfacet
  facet normal -0 0 1
    outer loop
      vertex 5.87159 -0.5783 6
      vertex 6.56822 -0.646913 6
      vertex 5.9 0 6
    endloop
  endfacet
  facet normal 0 0 1
    outer loop
      vertex 5.64595 1.71268 6
      vertex 6.31581 1.91588 6
      vertex 6.0976 2.52571 6
    endloop
  endfacet
  facet normal 0 0 1
    outer loop
      vertex 6.56822 -0.646913 6
      vertex 5.87159 -0.5783 6
      vertex 6.47318 -1.2876 6
    endloop
  endfacet
  facet normal -0 0 1
    outer loop
      vertex 5.78663 -1.15103 6
      vertex 6.47318 -1.2876 6
      vertex 5.87159 -0.5783 6
    endloop
  endfacet
  facet normal 0 0 1
    outer loop
      vertex 6.56822 0.646913 6
      vertex 5.87159 0.5783 6
      vertex 5.9 0 6
    endloop
  endfacet
  facet normal 0 0 1
    outer loop
      vertex 5.45089 2.25783 6
      vertex 6.0976 2.52571 6
      vertex 5.82068 3.11122 6
    endloop
  endfacet
  facet normal 0 0 1
    outer loop
      vertex 6.47318 1.2876 6
      vertex 5.78663 1.15103 6
      vertex 5.87159 0.5783 6
    endloop
  endfacet
  facet normal 0 0 1
    outer loop
      vertex 6.31581 1.91588 6
      vertex 5.64595 1.71268 6
      vertex 5.78663 1.15103 6
    endloop
  endfacet
  facet normal 0 0 1
    outer loop
      vertex 5.20333 2.78124 6
      vertex 5.82068 3.11122 6
      vertex 5.4877 3.66676 6
    endloop
  endfacet
  facet normal 0 0 1
    outer loop
      vertex 6.0976 2.52571 6
      vertex 5.45089 2.25783 6
      vertex 5.64595 1.71268 6
    endloop
  endfacet
  facet normal 0 0 1
    outer loop
      vertex 5.82068 3.11122 6
      vertex 5.20333 2.78124 6
      vertex 5.45089 2.25783 6
    endloop
  endfacet
  facet normal 0 0 1
    outer loop
      vertex 4.90567 3.27786 6
      vertex 5.4877 3.66676 6
      vertex 5.10187 4.187 6
    endloop
  endfacet
  facet normal 0 0 1
    outer loop
      vertex 5.4877 3.66676 6
      vertex 4.90567 3.27786 6
      vertex 5.20333 2.78124 6
    endloop
  endfacet
  facet normal 0 0 1
    outer loop
      vertex 4.56076 3.74292 6
      vertex 5.10187 4.187 6
      vertex 4.6669 4.6669 6
    endloop
  endfacet
  facet normal 0 0 1
    outer loop
      vertex 5.10187 4.187 6
      vertex 4.56076 3.74292 6
      vertex 4.90567 3.27786 6
    endloop
  endfacet
  facet normal 0 0 1
    outer loop
      vertex 4.17193 4.17193 6
      vertex 4.6669 4.6669 6
      vertex 4.187 5.10187 6
    endloop
  endfacet
  facet normal 0 0 1
    outer loop
      vertex 4.6669 4.6669 6
      vertex 4.17193 4.17193 6
      vertex 4.56076 3.74292 6
    endloop
  endfacet
  facet normal 0 0 1
    outer loop
      vertex 4.187 5.10187 6
      vertex 3.74292 4.56076 6
      vertex 4.17193 4.17193 6
    endloop
  endfacet
  facet normal 0 0 1
    outer loop
      vertex 3.66676 5.4877 6
      vertex 3.74292 4.56076 6
      vertex 4.187 5.10187 6
    endloop
  endfacet
  facet normal 0 0 1
    outer loop
      vertex 3.66676 5.4877 6
      vertex 3.27786 4.90567 6
      vertex 3.74292 4.56076 6
    endloop
  endfacet
  facet normal 0 0 1
    outer loop
      vertex 3.11122 5.82068 6
      vertex 3.27786 4.90567 6
      vertex 3.66676 5.4877 6
    endloop
  endfacet
  facet normal 0 0 1
    outer loop
      vertex 3.11122 5.82068 6
      vertex 2.78124 5.20333 6
      vertex 3.27786 4.90567 6
    endloop
  endfacet
  facet normal 0 0 1
    outer loop
      vertex 2.52571 6.0976 6
      vertex 2.78124 5.20333 6
      vertex 3.11122 5.82068 6
    endloop
  endfacet
  facet normal 0 0 1
    outer loop
      vertex 2.52571 6.0976 6
      vertex 2.25783 5.45089 6
      vertex 2.78124 5.20333 6
    endloop
  endfacet
  facet normal 0 0 1
    outer loop
      vertex 1.91588 6.31581 6
      vertex 2.25783 5.45089 6
      vertex 2.52571 6.0976 6
    endloop
  endfacet
  facet normal 0 0 1
    outer loop
      vertex 1.91588 6.31581 6
      vertex 1.71268 5.64595 6
      vertex 2.25783 5.45089 6
    endloop
  endfacet
  facet normal 0 0 1
    outer loop
      vertex 1.2876 6.47318 6
      vertex 1.71268 5.64595 6
      vertex 1.91588 6.31581 6
    endloop
  endfacet
  facet normal 0 0 1
    outer loop
      vertex 1.2876 6.47318 6
      vertex 1.15103 5.78663 6
      vertex 1.71268 5.64595 6
    endloop
  endfacet
  facet normal 0 0 1
    outer loop
      vertex 0.646913 6.56822 6
      vertex 1.15103 5.78663 6
      vertex 1.2876 6.47318 6
    endloop
  endfacet
  facet normal 0 0 1
    outer loop
      vertex 0.646913 6.56822 6
      vertex 0.5783 5.87159 6
      vertex 1.15103 5.78663 6
    endloop
  endfacet
  facet normal 0 0 1
    outer loop
      vertex 0 6.6 6
      vertex 0.5783 5.87159 6
      vertex 0.646913 6.56822 6
    endloop
  endfacet
  facet normal 0 0 1
    outer loop
      vertex 0 6.6 6
      vertex 0 5.9 6
      vertex 0.5783 5.87159 6
    endloop
  endfacet
  facet normal 0 0 1
    outer loop
      vertex 0 6.6 6
      vertex -0.5783 5.87159 6
      vertex 0 5.9 6
    endloop
  endfacet
  facet normal -0 0 1
    outer loop
      vertex -0.646913 6.56822 6
      vertex -0.5783 5.87159 6
      vertex 0 6.6 6
    endloop
  endfacet
  facet normal 0 0 1
    outer loop
      vertex -0.646913 6.56822 6
      vertex -1.15103 5.78663 6
      vertex -0.5783 5.87159 6
    endloop
  endfacet
  facet normal -0 0 1
    outer loop
      vertex -1.2876 6.47318 6
      vertex -1.15103 5.78663 6
      vertex -0.646913 6.56822 6
    endloop
  endfacet
  facet normal 0 0 1
    outer loop
      vertex -1.2876 6.47318 6
      vertex -1.71268 5.64595 6
      vertex -1.15103 5.78663 6
    endloop
  endfacet
  facet normal -0 0 1
    outer loop
      vertex -1.91588 6.31581 6
      vertex -1.71268 5.64595 6
      vertex -1.2876 6.47318 6
    endloop
  endfacet
  facet normal 0 0 1
    outer loop
      vertex -1.91588 6.31581 6
      vertex -2.25783 5.45089 6
      vertex -1.71268 5.64595 6
    endloop
  endfacet
  facet normal -0 0 1
    outer loop
      vertex -2.52571 6.0976 6
      vertex -2.25783 5.45089 6
      vertex -1.91588 6.31581 6
    endloop
  endfacet
  facet normal 0 0 1
    outer loop
      vertex -2.52571 6.0976 6
      vertex -2.78124 5.20333 6
      vertex -2.25783 5.45089 6
    endloop
  endfacet
  facet normal -0 0 1
    outer loop
      vertex -3.11122 5.82068 6
      vertex -2.78124 5.20333 6
      vertex -2.52571 6.0976 6
    endloop
  endfacet
  facet normal 0 0 1
    outer loop
      vertex -3.11122 5.82068 6
      vertex -3.27786 4.90567 6
      vertex -2.78124 5.20333 6
    endloop
  endfacet
  facet normal -0 0 1
    outer loop
      vertex -3.66676 5.4877 6
      vertex -3.27786 4.90567 6
      vertex -3.11122 5.82068 6
    endloop
  endfacet
  facet normal 0 0 1
    outer loop
      vertex -3.66676 5.4877 6
      vertex -3.74292 4.56076 6
      vertex -3.27786 4.90567 6
    endloop
  endfacet
  facet normal -0 0 1
    outer loop
      vertex -4.187 5.10187 6
      vertex -3.74292 4.56076 6
      vertex -3.66676 5.4877 6
    endloop
  endfacet
  facet normal 0 0 1
    outer loop
      vertex -3.74292 4.56076 6
      vertex -4.187 5.10187 6
      vertex -4.17193 4.17193 6
    endloop
  endfacet
  facet normal -0 0 1
    outer loop
      vertex -4.6669 4.6669 6
      vertex -4.17193 4.17193 6
      vertex -4.187 5.10187 6
    endloop
  endfacet
  facet normal 0 0 1
    outer loop
      vertex -4.17193 4.17193 6
      vertex -4.6669 4.6669 6
      vertex -4.56076 3.74292 6
    endloop
  endfacet
  facet normal -0 0 1
    outer loop
      vertex -5.10187 4.187 6
      vertex -4.56076 3.74292 6
      vertex -4.6669 4.6669 6
    endloop
  endfacet
  facet normal 0 0 1
    outer loop
      vertex -4.56076 3.74292 6
      vertex -5.10187 4.187 6
      vertex -4.90567 3.27786 6
    endloop
  endfacet
  facet normal -0 0 1
    outer loop
      vertex -5.4877 3.66676 6
      vertex -4.90567 3.27786 6
      vertex -5.10187 4.187 6
    endloop
  endfacet
  facet normal 0 0 1
    outer loop
      vertex -4.90567 3.27786 6
      vertex -5.4877 3.66676 6
      vertex -5.20333 2.78124 6
    endloop
  endfacet
  facet normal -0 0 1
    outer loop
      vertex -5.82068 3.11122 6
      vertex -5.20333 2.78124 6
      vertex -5.4877 3.66676 6
    endloop
  endfacet
  facet normal 0 0 1
    outer loop
      vertex -5.20333 2.78124 6
      vertex -5.82068 3.11122 6
      vertex -5.45089 2.25783 6
    endloop
  endfacet
  facet normal -0 0 1
    outer loop
      vertex -6.0976 2.52571 6
      vertex -5.45089 2.25783 6
      vertex -5.82068 3.11122 6
    endloop
  endfacet
  facet normal 0 0 1
    outer loop
      vertex -5.45089 2.25783 6
      vertex -6.0976 2.52571 6
      vertex -5.64595 1.71268 6
    endloop
  endfacet
  facet normal -0 0 1
    outer loop
      vertex -6.31581 1.91588 6
      vertex -5.64595 1.71268 6
      vertex -6.0976 2.52571 6
    endloop
  endfacet
  facet normal 0 0 1
    outer loop
      vertex -5.64595 1.71268 6
      vertex -6.31581 1.91588 6
      vertex -5.78663 1.15103 6
    endloop
  endfacet
  facet normal -0 0 1
    outer loop
      vertex -6.47318 1.2876 6
      vertex -5.78663 1.15103 6
      vertex -6.31581 1.91588 6
    endloop
  endfacet
  facet normal 0 0 1
    outer loop
      vertex 6.47318 -1.2876 6
      vertex 5.78663 -1.15103 6
      vertex 6.31581 -1.91588 6
    endloop
  endfacet
  facet normal -0 0 1
    outer loop
      vertex 5.64595 -1.71268 6
      vertex 6.31581 -1.91588 6
      vertex 5.78663 -1.15103 6
    endloop
  endfacet
  facet normal 0 0 1
    outer loop
      vertex 6.31581 -1.91588 6
      vertex 5.64595 -1.71268 6
      vertex 6.0976 -2.52571 6
    endloop
  endfacet
  facet normal -0 0 1
    outer loop
      vertex 5.45089 -2.25783 6
      vertex 6.0976 -2.52571 6
      vertex 5.64595 -1.71268 6
    endloop
  endfacet
  facet normal 0 0 1
    outer loop
      vertex 6.0976 -2.52571 6
      vertex 5.45089 -2.25783 6
      vertex 5.82068 -3.11122 6
    endloop
  endfacet
  facet normal -0 0 1
    outer loop
      vertex 5.20333 -2.78124 6
      vertex 5.82068 -3.11122 6
      vertex 5.45089 -2.25783 6
    endloop
  endfacet
  facet normal 0 0 1
    outer loop
      vertex 5.82068 -3.11122 6
      vertex 5.20333 -2.78124 6
      vertex 5.4877 -3.66676 6
    endloop
  endfacet
  facet normal -0 0 1
    outer loop
      vertex 4.90567 -3.27786 6
      vertex 5.4877 -3.66676 6
      vertex 5.20333 -2.78124 6
    endloop
  endfacet
  facet normal 0 0 1
    outer loop
      vertex 5.4877 -3.66676 6
      vertex 4.90567 -3.27786 6
      vertex 5.10187 -4.187 6
    endloop
  endfacet
  facet normal -0 0 1
    outer loop
      vertex 4.56076 -3.74292 6
      vertex 5.10187 -4.187 6
      vertex 4.90567 -3.27786 6
    endloop
  endfacet
  facet normal 0 0 1
    outer loop
      vertex 5.10187 -4.187 6
      vertex 4.56076 -3.74292 6
      vertex 4.6669 -4.6669 6
    endloop
  endfacet
  facet normal -0 0 1
    outer loop
      vertex 4.17193 -4.17193 6
      vertex 4.6669 -4.6669 6
      vertex 4.56076 -3.74292 6
    endloop
  endfacet
  facet normal 0 0 1
    outer loop
      vertex 4.6669 -4.6669 6
      vertex 4.17193 -4.17193 6
      vertex 4.187 -5.10187 6
    endloop
  endfacet
  facet normal -0 0 1
    outer loop
      vertex 3.74292 -4.56076 6
      vertex 4.187 -5.10187 6
      vertex 4.17193 -4.17193 6
    endloop
  endfacet
  facet normal 0 0 1
    outer loop
      vertex 3.74292 -4.56076 6
      vertex 3.66676 -5.4877 6
      vertex 4.187 -5.10187 6
    endloop
  endfacet
  facet normal -0 0 1
    outer loop
      vertex 3.27786 -4.90567 6
      vertex 3.66676 -5.4877 6
      vertex 3.74292 -4.56076 6
    endloop
  endfacet
  facet normal 0 0 1
    outer loop
      vertex 3.27786 -4.90567 6
      vertex 3.11122 -5.82068 6
      vertex 3.66676 -5.4877 6
    endloop
  endfacet
  facet normal -0 0 1
    outer loop
      vertex 2.78124 -5.20333 6
      vertex 3.11122 -5.82068 6
      vertex 3.27786 -4.90567 6
    endloop
  endfacet
  facet normal 0 0 1
    outer loop
      vertex 2.78124 -5.20333 6
      vertex 2.52571 -6.0976 6
      vertex 3.11122 -5.82068 6
    endloop
  endfacet
  facet normal -0 0 1
    outer loop
      vertex 2.25783 -5.45089 6
      vertex 2.52571 -6.0976 6
      vertex 2.78124 -5.20333 6
    endloop
  endfacet
  facet normal 0 0 1
    outer loop
      vertex 2.25783 -5.45089 6
      vertex 1.91588 -6.31581 6
      vertex 2.52571 -6.0976 6
    endloop
  endfacet
  facet normal -0 0 1
    outer loop
      vertex 1.71268 -5.64595 6
      vertex 1.91588 -6.31581 6
      vertex 2.25783 -5.45089 6
    endloop
  endfacet
  facet normal 0 0 1
    outer loop
      vertex 1.71268 -5.64595 6
      vertex 1.2876 -6.47318 6
      vertex 1.91588 -6.31581 6
    endloop
  endfacet
  facet normal -0 0 1
    outer loop
      vertex 1.15103 -5.78663 6
      vertex 1.2876 -6.47318 6
      vertex 1.71268 -5.64595 6
    endloop
  endfacet
  facet normal 0 0 1
    outer loop
      vertex 1.15103 -5.78663 6
      vertex 0.646913 -6.56822 6
      vertex 1.2876 -6.47318 6
    endloop
  endfacet
  facet normal -0 0 1
    outer loop
      vertex 0.5783 -5.87159 6
      vertex 0.646913 -6.56822 6
      vertex 1.15103 -5.78663 6
    endloop
  endfacet
  facet normal -0 0 1
    outer loop
      vertex 0 -5.9 6
      vertex 0.646913 -6.56822 6
      vertex 0.5783 -5.87159 6
    endloop
  endfacet
  facet normal 0 0 1
    outer loop
      vertex 0 -5.9 6
      vertex 0 -6.6 6
      vertex 0.646913 -6.56822 6
    endloop
  endfacet
  facet normal 0 0 1
    outer loop
      vertex -0.5783 -5.87159 6
      vertex 0 -6.6 6
      vertex 0 -5.9 6
    endloop
  endfacet
  facet normal 0 0 1
    outer loop
      vertex -0.5783 -5.87159 6
      vertex -0.646913 -6.56822 6
      vertex 0 -6.6 6
    endloop
  endfacet
  facet normal 0 0 1
    outer loop
      vertex -1.15103 -5.78663 6
      vertex -0.646913 -6.56822 6
      vertex -0.5783 -5.87159 6
    endloop
  endfacet
  facet normal 0 0 1
    outer loop
      vertex -1.15103 -5.78663 6
      vertex -1.2876 -6.47318 6
      vertex -0.646913 -6.56822 6
    endloop
  endfacet
  facet normal 0 0 1
    outer loop
      vertex -1.71268 -5.64595 6
      vertex -1.2876 -6.47318 6
      vertex -1.15103 -5.78663 6
    endloop
  endfacet
  facet normal 0 0 1
    outer loop
      vertex -1.71268 -5.64595 6
      vertex -1.91588 -6.31581 6
      vertex -1.2876 -6.47318 6
    endloop
  endfacet
  facet normal 0 0 1
    outer loop
      vertex -2.25783 -5.45089 6
      vertex -1.91588 -6.31581 6
      vertex -1.71268 -5.64595 6
    endloop
  endfacet
  facet normal 0 0 1
    outer loop
      vertex -2.25783 -5.45089 6
      vertex -2.52571 -6.0976 6
      vertex -1.91588 -6.31581 6
    endloop
  endfacet
  facet normal 0 0 1
    outer loop
      vertex -2.78124 -5.20333 6
      vertex -2.52571 -6.0976 6
      vertex -2.25783 -5.45089 6
    endloop
  endfacet
  facet normal 0 0 1
    outer loop
      vertex -2.78124 -5.20333 6
      vertex -3.11122 -5.82068 6
      vertex -2.52571 -6.0976 6
    endloop
  endfacet
  facet normal 0 0 1
    outer loop
      vertex -3.27786 -4.90567 6
      vertex -3.11122 -5.82068 6
      vertex -2.78124 -5.20333 6
    endloop
  endfacet
  facet normal 0 0 1
    outer loop
      vertex -3.27786 -4.90567 6
      vertex -3.66676 -5.4877 6
      vertex -3.11122 -5.82068 6
    endloop
  endfacet
  facet normal 0 0 1
    outer loop
      vertex -3.74292 -4.56076 6
      vertex -3.66676 -5.4877 6
      vertex -3.27786 -4.90567 6
    endloop
  endfacet
  facet normal 0 0 1
    outer loop
      vertex -4.187 -5.10187 6
      vertex -3.74292 -4.56076 6
      vertex -4.17193 -4.17193 6
    endloop
  endfacet
  facet normal 0 0 1
    outer loop
      vertex -3.74292 -4.56076 6
      vertex -4.187 -5.10187 6
      vertex -3.66676 -5.4877 6
    endloop
  endfacet
  facet normal 0 0 1
    outer loop
      vertex -4.6669 -4.6669 6
      vertex -4.17193 -4.17193 6
      vertex -4.56076 -3.74292 6
    endloop
  endfacet
  facet normal 0 0 1
    outer loop
      vertex -4.17193 -4.17193 6
      vertex -4.6669 -4.6669 6
      vertex -4.187 -5.10187 6
    endloop
  endfacet
  facet normal 0 0 1
    outer loop
      vertex -5.10187 -4.187 6
      vertex -4.56076 -3.74292 6
      vertex -4.90567 -3.27786 6
    endloop
  endfacet
  facet normal 0 0 1
    outer loop
      vertex -4.56076 -3.74292 6
      vertex -5.10187 -4.187 6
      vertex -4.6669 -4.6669 6
    endloop
  endfacet
  facet normal 0 0 1
    outer loop
      vertex -5.4877 -3.66676 6
      vertex -4.90567 -3.27786 6
      vertex -5.20333 -2.78124 6
    endloop
  endfacet
  facet normal 0 0 1
    outer loop
      vertex -5.82068 -3.11122 6
      vertex -5.20333 -2.78124 6
      vertex -5.45089 -2.25783 6
    endloop
  endfacet
  facet normal 0 0 1
    outer loop
      vertex -4.90567 -3.27786 6
      vertex -5.4877 -3.66676 6
      vertex -5.10187 -4.187 6
    endloop
  endfacet
  facet normal 0 0 1
    outer loop
      vertex -6.0976 -2.52571 6
      vertex -5.45089 -2.25783 6
      vertex -5.64595 -1.71268 6
    endloop
  endfacet
  facet normal 0 0 1
    outer loop
      vertex -6.31581 -1.91588 6
      vertex -5.64595 -1.71268 6
      vertex -5.78663 -1.15103 6
    endloop
  endfacet
  facet normal 0 0 1
    outer loop
      vertex -5.20333 -2.78124 6
      vertex -5.82068 -3.11122 6
      vertex -5.4877 -3.66676 6
    endloop
  endfacet
  facet normal 0 0 1
    outer loop
      vertex -6.47318 -1.2876 6
      vertex -5.78663 -1.15103 6
      vertex -5.87159 -0.5783 6
    endloop
  endfacet
  facet normal 0 0 1
    outer loop
      vertex -6.56822 -0.646913 6
      vertex -5.87159 -0.5783 6
      vertex -5.9 0 6
    endloop
  endfacet
  facet normal 0 0 1
    outer loop
      vertex -5.78663 1.15103 6
      vertex -6.47318 1.2876 6
      vertex -5.87159 0.5783 6
    endloop
  endfacet
  facet normal 0 0 1
    outer loop
      vertex -5.45089 -2.25783 6
      vertex -6.0976 -2.52571 6
      vertex -5.82068 -3.11122 6
    endloop
  endfacet
  facet normal -0 0 1
    outer loop
      vertex -6.56822 0.646913 6
      vertex -5.87159 0.5783 6
      vertex -6.47318 1.2876 6
    endloop
  endfacet
  facet normal 0 0 1
    outer loop
      vertex -5.64595 -1.71268 6
      vertex -6.31581 -1.91588 6
      vertex -6.0976 -2.52571 6
    endloop
  endfacet
  facet normal 0 0 1
    outer loop
      vertex -5.87159 0.5783 6
      vertex -6.56822 0.646913 6
      vertex -5.9 0 6
    endloop
  endfacet
  facet normal 0 0 1
    outer loop
      vertex -5.78663 -1.15103 6
      vertex -6.47318 -1.2876 6
      vertex -6.31581 -1.91588 6
    endloop
  endfacet
  facet normal 0 0 1
    outer loop
      vertex -6.6 0 6
      vertex -5.9 0 6
      vertex -6.56822 0.646913 6
    endloop
  endfacet
  facet normal 0 0 1
    outer loop
      vertex -5.87159 -0.5783 6
      vertex -6.56822 -0.646913 6
      vertex -6.47318 -1.2876 6
    endloop
  endfacet
  facet normal 0 0 1
    outer loop
      vertex -5.9 0 6
      vertex -6.6 0 6
      vertex -6.56822 -0.646913 6
    endloop
  endfacet
  facet normal -0.595693 0.803212 0
    outer loop
      vertex -3.66676 5.4877 0
      vertex -4.187 5.10187 6
      vertex -3.66676 5.4877 6
    endloop
  endfacet
  facet normal -0.595693 0.803212 0
    outer loop
      vertex -4.187 5.10187 6
      vertex -3.66676 5.4877 0
      vertex -4.187 5.10187 0
    endloop
  endfacet
  facet normal -0.514105 0.857727 0
    outer loop
      vertex -3.11122 5.82068 0
      vertex -3.66676 5.4877 6
      vertex -3.11122 5.82068 6
    endloop
  endfacet
  facet normal -0.514105 0.857727 0
    outer loop
      vertex -3.66676 5.4877 6
      vertex -3.11122 5.82068 0
      vertex -3.66676 5.4877 0
    endloop
  endfacet
  facet normal -0.671571 0.74094 0
    outer loop
      vertex -4.187 5.10187 0
      vertex -4.6669 4.6669 6
      vertex -4.187 5.10187 6
    endloop
  endfacet
  facet normal -0.671571 0.74094 0
    outer loop
      vertex -4.6669 4.6669 6
      vertex -4.187 5.10187 0
      vertex -4.6669 4.6669 0
    endloop
  endfacet
  facet normal -0.336903 0.941539 0
    outer loop
      vertex -1.91588 6.31581 0
      vertex -2.52571 6.0976 6
      vertex -1.91588 6.31581 6
    endloop
  endfacet
  facet normal -0.336903 0.941539 0
    outer loop
      vertex -2.52571 6.0976 6
      vertex -1.91588 6.31581 0
      vertex -2.52571 6.0976 0
    endloop
  endfacet
  facet normal -0.146735 0.989176 0
    outer loop
      vertex -0.646913 6.56822 0
      vertex -1.2876 6.47318 6
      vertex -0.646913 6.56822 6
    endloop
  endfacet
  facet normal -0.146735 0.989176 0
    outer loop
      vertex -1.2876 6.47318 6
      vertex -0.646913 6.56822 0
      vertex -1.2876 6.47318 0
    endloop
  endfacet
  facet normal 0.74094 -0.671571 0
    outer loop
      vertex 4.6669 -4.6669 6
      vertex 5.10187 -4.187 0
      vertex 5.10187 -4.187 6
    endloop
  endfacet
  facet normal 0.74094 -0.671571 0
    outer loop
      vertex 5.10187 -4.187 0
      vertex 4.6669 -4.6669 6
      vertex 4.6669 -4.6669 0
    endloop
  endfacet
  facet normal -0.903993 -0.427548 0
    outer loop
      vertex -5.82068 -3.11122 0
      vertex -6.0976 -2.52571 6
      vertex -6.0976 -2.52571 0
    endloop
  endfacet
  facet normal -0.903993 -0.427548 0
    outer loop
      vertex -6.0976 -2.52571 6
      vertex -5.82068 -3.11122 0
      vertex -5.82068 -3.11122 6
    endloop
  endfacet
  facet normal 0 0 -1
    outer loop
      vertex 4.3 -1.39 0
      vertex 6.6 0 0
      vertex 6.56822 -0.646913 0
    endloop
  endfacet
  facet normal 0 0 -1
    outer loop
      vertex 4.3 -1.39 0
      vertex 6.56822 -0.646913 0
      vertex 6.47318 -1.2876 0
    endloop
  endfacet
  facet normal 0 0 -1
    outer loop
      vertex 4.3 1.39 0
      vertex 6.6 0 0
      vertex 4.3 -1.39 0
    endloop
  endfacet
  facet normal 0 0 -1
    outer loop
      vertex 4.3 -1.39 0
      vertex 6.47318 -1.2876 0
      vertex 6.31581 -1.91588 0
    endloop
  endfacet
  facet normal 0 0 -1
    outer loop
      vertex 6.6 0 0
      vertex 4.3 1.39 0
      vertex 6.56822 0.646913 0
    endloop
  endfacet
  facet normal 0 0 -1
    outer loop
      vertex 4.3 -1.39 0
      vertex 6.31581 -1.91588 0
      vertex 6.0976 -2.52571 0
    endloop
  endfacet
  facet normal 0 0 -1
    outer loop
      vertex 6.56822 0.646913 0
      vertex 4.3 1.39 0
      vertex 6.47318 1.2876 0
    endloop
  endfacet
  facet normal 0 0 -1
    outer loop
      vertex 4.3 -1.39 0
      vertex 6.0976 -2.52571 0
      vertex 5.82068 -3.11122 0
    endloop
  endfacet
  facet normal 0 0 -1
    outer loop
      vertex 6.47318 1.2876 0
      vertex 4.3 1.39 0
      vertex 6.31581 1.91588 0
    endloop
  endfacet
  facet normal 0 0 -1
    outer loop
      vertex 4.3 -1.39 0
      vertex 5.82068 -3.11122 0
      vertex 5.4877 -3.66676 0
    endloop
  endfacet
  facet normal -0 0 -1
    outer loop
      vertex 6.31581 1.91588 0
      vertex 4.3 1.39 0
      vertex 6.0976 2.52571 0
    endloop
  endfacet
  facet normal 0 0 -1
    outer loop
      vertex 4.3 -1.39 0
      vertex 5.4877 -3.66676 0
      vertex 5.10187 -4.187 0
    endloop
  endfacet
  facet normal -0 0 -1
    outer loop
      vertex 6.0976 2.52571 0
      vertex 4.3 1.39 0
      vertex 5.82068 3.11122 0
    endloop
  endfacet
  facet normal 0 0 -1
    outer loop
      vertex 4.3 -1.39 0
      vertex 5.10187 -4.187 0
      vertex 4.6669 -4.6669 0
    endloop
  endfacet
  facet normal -0 0 -1
    outer loop
      vertex 5.82068 3.11122 0
      vertex 4.3 1.39 0
      vertex 5.4877 3.66676 0
    endloop
  endfacet
  facet normal -0 0 -1
    outer loop
      vertex 5.4877 3.66676 0
      vertex 4.3 1.39 0
      vertex 5.10187 4.187 0
    endloop
  endfacet
  facet normal 0 0 -1
    outer loop
      vertex 4.187 -5.10187 0
      vertex 4.3 -1.39 0
      vertex 4.6669 -4.6669 0
    endloop
  endfacet
  facet normal 0 0 -1
    outer loop
      vertex 3.66676 -5.4877 0
      vertex 4.3 -1.39 0
      vertex 4.187 -5.10187 0
    endloop
  endfacet
  facet normal 0 0 -1
    outer loop
      vertex 3.11122 -5.82068 0
      vertex 4.3 -1.39 0
      vertex 3.66676 -5.4877 0
    endloop
  endfacet
  facet normal 0 0 -1
    outer loop
      vertex 2.52571 -6.0976 0
      vertex 4.3 -1.39 0
      vertex 3.11122 -5.82068 0
    endloop
  endfacet
  facet normal 0 0 -1
    outer loop
      vertex 1.91588 -6.31581 0
      vertex 4.3 -1.39 0
      vertex 2.52571 -6.0976 0
    endloop
  endfacet
  facet normal 0 0 -1
    outer loop
      vertex 1.2876 -6.47318 0
      vertex 4.3 -1.39 0
      vertex 1.91588 -6.31581 0
    endloop
  endfacet
  facet normal 0 0 -1
    outer loop
      vertex 0.646913 -6.56822 0
      vertex 4.3 -1.39 0
      vertex 1.2876 -6.47318 0
    endloop
  endfacet
  facet normal 0 0 -1
    outer loop
      vertex 0 -6.6 0
      vertex 4.3 -1.39 0
      vertex 0.646913 -6.56822 0
    endloop
  endfacet
  facet normal 0 0 -1
    outer loop
      vertex -4.3 -1.39 0
      vertex 0 -6.6 0
      vertex -0.646913 -6.56822 0
    endloop
  endfacet
  facet normal 0 0 -1
    outer loop
      vertex -4.3 -1.39 0
      vertex -0.646913 -6.56822 0
      vertex -1.2876 -6.47318 0
    endloop
  endfacet
  facet normal 0 0 -1
    outer loop
      vertex -4.3 -1.39 0
      vertex -1.2876 -6.47318 0
      vertex -1.91588 -6.31581 0
    endloop
  endfacet
  facet normal 0 0 -1
    outer loop
      vertex -4.3 -1.39 0
      vertex -1.91588 -6.31581 0
      vertex -2.52571 -6.0976 0
    endloop
  endfacet
  facet normal 0 0 -1
    outer loop
      vertex -4.3 -1.39 0
      vertex -2.52571 -6.0976 0
      vertex -3.11122 -5.82068 0
    endloop
  endfacet
  facet normal 0 0 -1
    outer loop
      vertex -4.3 -1.39 0
      vertex -3.11122 -5.82068 0
      vertex -3.66676 -5.4877 0
    endloop
  endfacet
  facet normal 0 0 -1
    outer loop
      vertex -4.3 -1.39 0
      vertex -3.66676 -5.4877 0
      vertex -4.187 -5.10187 0
    endloop
  endfacet
  facet normal 0 0 -1
    outer loop
      vertex 0 -6.6 0
      vertex -4.3 -1.39 0
      vertex 4.3 -1.39 0
    endloop
  endfacet
  facet normal 0 0 -1
    outer loop
      vertex -5.10187 -4.187 0
      vertex -4.3 -1.39 0
      vertex -4.6669 -4.6669 0
    endloop
  endfacet
  facet normal 0 0 -1
    outer loop
      vertex -4.6669 -4.6669 0
      vertex -4.3 -1.39 0
      vertex -4.187 -5.10187 0
    endloop
  endfacet
  facet normal -0 0 -1
    outer loop
      vertex 5.10187 4.187 0
      vertex 4.3 1.39 0
      vertex 4.6669 4.6669 0
    endloop
  endfacet
  facet normal 0 0 -1
    outer loop
      vertex 4.3 1.39 0
      vertex 4.187 5.10187 0
      vertex 4.6669 4.6669 0
    endloop
  endfacet
  facet normal 0 0 -1
    outer loop
      vertex 4.3 1.39 0
      vertex 3.66676 5.4877 0
      vertex 4.187 5.10187 0
    endloop
  endfacet
  facet normal 0 0 -1
    outer loop
      vertex 4.3 1.39 0
      vertex 3.11122 5.82068 0
      vertex 3.66676 5.4877 0
    endloop
  endfacet
  facet normal 0 0 -1
    outer loop
      vertex 4.3 1.39 0
      vertex 2.52571 6.0976 0
      vertex 3.11122 5.82068 0
    endloop
  endfacet
  facet normal 0 0 -1
    outer loop
      vertex 4.3 1.39 0
      vertex 1.91588 6.31581 0
      vertex 2.52571 6.0976 0
    endloop
  endfacet
  facet normal 0 0 -1
    outer loop
      vertex 4.3 1.39 0
      vertex 1.2876 6.47318 0
      vertex 1.91588 6.31581 0
    endloop
  endfacet
  facet normal 0 0 -1
    outer loop
      vertex 4.3 1.39 0
      vertex 0.646913 6.56822 0
      vertex 1.2876 6.47318 0
    endloop
  endfacet
  facet normal 0 0 -1
    outer loop
      vertex 4.3 1.39 0
      vertex 0 6.6 0
      vertex 0.646913 6.56822 0
    endloop
  endfacet
  facet normal 0 0 -1
    outer loop
      vertex -4.3 1.39 0
      vertex 0 6.6 0
      vertex 4.3 1.39 0
    endloop
  endfacet
  facet normal 0 0 -1
    outer loop
      vertex 0 6.6 0
      vertex -4.3 1.39 0
      vertex -0.646913 6.56822 0
    endloop
  endfacet
  facet normal 0 0 -1
    outer loop
      vertex -0.646913 6.56822 0
      vertex -4.3 1.39 0
      vertex -1.2876 6.47318 0
    endloop
  endfacet
  facet normal 0 0 -1
    outer loop
      vertex -1.2876 6.47318 0
      vertex -4.3 1.39 0
      vertex -1.91588 6.31581 0
    endloop
  endfacet
  facet normal 0 0 -1
    outer loop
      vertex -1.91588 6.31581 0
      vertex -4.3 1.39 0
      vertex -2.52571 6.0976 0
    endloop
  endfacet
  facet normal 0 0 -1
    outer loop
      vertex -2.52571 6.0976 0
      vertex -4.3 1.39 0
      vertex -3.11122 5.82068 0
    endloop
  endfacet
  facet normal 0 0 -1
    outer loop
      vertex -3.11122 5.82068 0
      vertex -4.3 1.39 0
      vertex -3.66676 5.4877 0
    endloop
  endfacet
  facet normal 0 0 -1
    outer loop
      vertex -3.66676 5.4877 0
      vertex -4.3 1.39 0
      vertex -4.187 5.10187 0
    endloop
  endfacet
  facet normal 0 0 -1
    outer loop
      vertex -5.4877 -3.66676 0
      vertex -4.3 -1.39 0
      vertex -5.10187 -4.187 0
    endloop
  endfacet
  facet normal 0 0 -1
    outer loop
      vertex -4.3 1.39 0
      vertex -4.6669 4.6669 0
      vertex -4.187 5.10187 0
    endloop
  endfacet
  facet normal 0 0 -1
    outer loop
      vertex -5.82068 -3.11122 0
      vertex -4.3 -1.39 0
      vertex -5.4877 -3.66676 0
    endloop
  endfacet
  facet normal 0 0 -1
    outer loop
      vertex -4.3 1.39 0
      vertex -5.10187 4.187 0
      vertex -4.6669 4.6669 0
    endloop
  endfacet
  facet normal 0 0 -1
    outer loop
      vertex -6.0976 -2.52571 0
      vertex -4.3 -1.39 0
      vertex -5.82068 -3.11122 0
    endloop
  endfacet
  facet normal 0 0 -1
    outer loop
      vertex -4.3 1.39 0
      vertex -5.4877 3.66676 0
      vertex -5.10187 4.187 0
    endloop
  endfacet
  facet normal 0 0 -1
    outer loop
      vertex -6.31581 -1.91588 0
      vertex -4.3 -1.39 0
      vertex -6.0976 -2.52571 0
    endloop
  endfacet
  facet normal 0 0 -1
    outer loop
      vertex -4.3 1.39 0
      vertex -5.82068 3.11122 0
      vertex -5.4877 3.66676 0
    endloop
  endfacet
  facet normal 0 0 -1
    outer loop
      vertex -6.47318 -1.2876 0
      vertex -4.3 -1.39 0
      vertex -6.31581 -1.91588 0
    endloop
  endfacet
  facet normal 0 0 -1
    outer loop
      vertex -4.3 1.39 0
      vertex -6.0976 2.52571 0
      vertex -5.82068 3.11122 0
    endloop
  endfacet
  facet normal 0 0 -1
    outer loop
      vertex -6.56822 -0.646913 0
      vertex -4.3 -1.39 0
      vertex -6.47318 -1.2876 0
    endloop
  endfacet
  facet normal 0 0 -1
    outer loop
      vertex -4.3 1.39 0
      vertex -6.31581 1.91588 0
      vertex -6.0976 2.52571 0
    endloop
  endfacet
  facet normal 0 0 -1
    outer loop
      vertex -6.6 0 0
      vertex -4.3 -1.39 0
      vertex -6.56822 -0.646913 0
    endloop
  endfacet
  facet normal -0 0 -1
    outer loop
      vertex -4.3 1.39 0
      vertex -6.47318 1.2876 0
      vertex -6.31581 1.91588 0
    endloop
  endfacet
  facet normal 0 0 -1
    outer loop
      vertex -4.3 -1.39 0
      vertex -6.6 0 0
      vertex -4.3 1.39 0
    endloop
  endfacet
  facet normal 0 0 -1
    outer loop
      vertex -4.3 1.39 0
      vertex -6.56822 0.646913 0
      vertex -6.47318 1.2876 0
    endloop
  endfacet
  facet normal 0 0 -1
    outer loop
      vertex -4.3 1.39 0
      vertex -6.6 0 0
      vertex -6.56822 0.646913 0
    endloop
  endfacet
  facet normal 0.903993 -0.427548 0
    outer loop
      vertex 5.82068 -3.11122 6
      vertex 6.0976 -2.52571 0
      vertex 6.0976 -2.52571 6
    endloop
  endfacet
  facet normal 0.903993 -0.427548 0
    outer loop
      vertex 6.0976 -2.52571 0
      vertex 5.82068 -3.11122 6
      vertex 5.82068 -3.11122 0
    endloop
  endfacet
  facet normal 0.941539 -0.336903 0
    outer loop
      vertex 6.0976 -2.52571 6
      vertex 6.31581 -1.91588 0
      vertex 6.31581 -1.91588 6
    endloop
  endfacet
  facet normal 0.941539 -0.336903 0
    outer loop
      vertex 6.31581 -1.91588 0
      vertex 6.0976 -2.52571 6
      vertex 6.0976 -2.52571 0
    endloop
  endfacet
  facet normal 0.989176 -0.146735 0
    outer loop
      vertex 6.47318 -1.2876 6
      vertex 6.56822 -0.646913 0
      vertex 6.56822 -0.646913 6
    endloop
  endfacet
  facet normal 0.989176 -0.146735 0
    outer loop
      vertex 6.56822 -0.646913 0
      vertex 6.47318 -1.2876 6
      vertex 6.47318 -1.2876 0
    endloop
  endfacet
  facet normal 0.998796 -0.0490664 0
    outer loop
      vertex 6.56822 -0.646913 6
      vertex 6.6 0 0
      vertex 6.6 0 6
    endloop
  endfacet
  facet normal 0.998796 -0.0490664 0
    outer loop
      vertex 6.6 0 0
      vertex 6.56822 -0.646913 6
      vertex 6.56822 -0.646913 0
    endloop
  endfacet
  facet normal 0.514105 -0.857727 0
    outer loop
      vertex 3.11122 -5.82068 0
      vertex 3.66676 -5.4877 6
      vertex 3.11122 -5.82068 6
    endloop
  endfacet
  facet normal 0.514105 -0.857727 0
    outer loop
      vertex 3.66676 -5.4877 6
      vertex 3.11122 -5.82068 0
      vertex 3.66676 -5.4877 0
    endloop
  endfacet
  facet normal 0.671571 -0.74094 0
    outer loop
      vertex 4.187 -5.10187 0
      vertex 4.6669 -4.6669 6
      vertex 4.187 -5.10187 6
    endloop
  endfacet
  facet normal 0.671571 -0.74094 0
    outer loop
      vertex 4.6669 -4.6669 6
      vertex 4.187 -5.10187 0
      vertex 4.6669 -4.6669 0
    endloop
  endfacet
  facet normal 0.803212 -0.595693 0
    outer loop
      vertex 5.10187 -4.187 6
      vertex 5.4877 -3.66676 0
      vertex 5.4877 -3.66676 6
    endloop
  endfacet
  facet normal 0.803212 -0.595693 0
    outer loop
      vertex 5.4877 -3.66676 0
      vertex 5.10187 -4.187 6
      vertex 5.10187 -4.187 0
    endloop
  endfacet
  facet normal -0.970033 -0.242972 0
    outer loop
      vertex -6.31581 -1.91588 0
      vertex -6.47318 -1.2876 6
      vertex -6.47318 -1.2876 0
    endloop
  endfacet
  facet normal -0.970033 -0.242972 0
    outer loop
      vertex -6.47318 -1.2876 6
      vertex -6.31581 -1.91588 0
      vertex -6.31581 -1.91588 6
    endloop
  endfacet
  facet normal 0.242972 -0.970033 0
    outer loop
      vertex 1.2876 -6.47318 0
      vertex 1.91588 -6.31581 6
      vertex 1.2876 -6.47318 6
    endloop
  endfacet
  facet normal 0.242972 -0.970033 0
    outer loop
      vertex 1.91588 -6.31581 6
      vertex 1.2876 -6.47318 0
      vertex 1.91588 -6.31581 0
    endloop
  endfacet
  facet normal 0.427548 -0.903993 0
    outer loop
      vertex 2.52571 -6.0976 0
      vertex 3.11122 -5.82068 6
      vertex 2.52571 -6.0976 6
    endloop
  endfacet
  facet normal 0.427548 -0.903993 0
    outer loop
      vertex 3.11122 -5.82068 6
      vertex 2.52571 -6.0976 0
      vertex 3.11122 -5.82068 0
    endloop
  endfacet
  facet normal 0.857727 -0.514105 0
    outer loop
      vertex 5.4877 -3.66676 6
      vertex 5.82068 -3.11122 0
      vertex 5.82068 -3.11122 6
    endloop
  endfacet
  facet normal 0.857727 -0.514105 0
    outer loop
      vertex 5.82068 -3.11122 0
      vertex 5.4877 -3.66676 6
      vertex 5.4877 -3.66676 0
    endloop
  endfacet
  facet normal -0.146735 -0.989176 0
    outer loop
      vertex -1.2876 -6.47318 0
      vertex -0.646913 -6.56822 6
      vertex -1.2876 -6.47318 6
    endloop
  endfacet
  facet normal -0.146735 -0.989176 -0
    outer loop
      vertex -0.646913 -6.56822 6
      vertex -1.2876 -6.47318 0
      vertex -0.646913 -6.56822 0
    endloop
  endfacet
  facet normal -0.803212 -0.595693 0
    outer loop
      vertex -5.10187 -4.187 0
      vertex -5.4877 -3.66676 6
      vertex -5.4877 -3.66676 0
    endloop
  endfacet
  facet normal -0.803212 -0.595693 0
    outer loop
      vertex -5.4877 -3.66676 6
      vertex -5.10187 -4.187 0
      vertex -5.10187 -4.187 6
    endloop
  endfacet
  facet normal -0.671571 -0.74094 0
    outer loop
      vertex -4.6669 -4.6669 0
      vertex -4.187 -5.10187 6
      vertex -4.6669 -4.6669 6
    endloop
  endfacet
  facet normal -0.671571 -0.74094 -0
    outer loop
      vertex -4.187 -5.10187 6
      vertex -4.6669 -4.6669 0
      vertex -4.187 -5.10187 0
    endloop
  endfacet
  facet normal -0.941539 -0.336903 0
    outer loop
      vertex -6.0976 -2.52571 0
      vertex -6.31581 -1.91588 6
      vertex -6.31581 -1.91588 0
    endloop
  endfacet
  facet normal -0.941539 -0.336903 0
    outer loop
      vertex -6.31581 -1.91588 6
      vertex -6.0976 -2.52571 0
      vertex -6.0976 -2.52571 6
    endloop
  endfacet
  facet normal -0.989176 -0.146735 0
    outer loop
      vertex -6.47318 -1.2876 0
      vertex -6.56822 -0.646913 6
      vertex -6.56822 -0.646913 0
    endloop
  endfacet
  facet normal -0.989176 -0.146735 0
    outer loop
      vertex -6.56822 -0.646913 6
      vertex -6.47318 -1.2876 0
      vertex -6.47318 -1.2876 6
    endloop
  endfacet
  facet normal -0.998796 -0.0490664 0
    outer loop
      vertex -6.56822 -0.646913 0
      vertex -6.6 0 6
      vertex -6.6 0 0
    endloop
  endfacet
  facet normal -0.998796 -0.0490664 0
    outer loop
      vertex -6.6 0 6
      vertex -6.56822 -0.646913 0
      vertex -6.56822 -0.646913 6
    endloop
  endfacet
  facet normal 0.595693 -0.803212 0
    outer loop
      vertex 3.66676 -5.4877 0
      vertex 4.187 -5.10187 6
      vertex 3.66676 -5.4877 6
    endloop
  endfacet
  facet normal 0.595693 -0.803212 0
    outer loop
      vertex 4.187 -5.10187 6
      vertex 3.66676 -5.4877 0
      vertex 4.187 -5.10187 0
    endloop
  endfacet
  facet normal -0.336903 -0.941539 0
    outer loop
      vertex -2.52571 -6.0976 0
      vertex -1.91588 -6.31581 6
      vertex -2.52571 -6.0976 6
    endloop
  endfacet
  facet normal -0.336903 -0.941539 -0
    outer loop
      vertex -1.91588 -6.31581 6
      vertex -2.52571 -6.0976 0
      vertex -1.91588 -6.31581 0
    endloop
  endfacet
  facet normal -0.427548 -0.903993 0
    outer loop
      vertex -3.11122 -5.82068 0
      vertex -2.52571 -6.0976 6
      vertex -3.11122 -5.82068 6
    endloop
  endfacet
  facet normal -0.427548 -0.903993 -0
    outer loop
      vertex -2.52571 -6.0976 6
      vertex -3.11122 -5.82068 0
      vertex -2.52571 -6.0976 0
    endloop
  endfacet
  facet normal -0.514105 -0.857727 0
    outer loop
      vertex -3.66676 -5.4877 0
      vertex -3.11122 -5.82068 6
      vertex -3.66676 -5.4877 6
    endloop
  endfacet
  facet normal -0.514105 -0.857727 -0
    outer loop
      vertex -3.11122 -5.82068 6
      vertex -3.66676 -5.4877 0
      vertex -3.11122 -5.82068 0
    endloop
  endfacet
  facet normal -0.595693 -0.803212 0
    outer loop
      vertex -4.187 -5.10187 0
      vertex -3.66676 -5.4877 6
      vertex -4.187 -5.10187 6
    endloop
  endfacet
  facet normal -0.595693 -0.803212 -0
    outer loop
      vertex -3.66676 -5.4877 6
      vertex -4.187 -5.10187 0
      vertex -3.66676 -5.4877 0
    endloop
  endfacet
  facet normal -0.242972 -0.970033 0
    outer loop
      vertex -1.91588 -6.31581 0
      vertex -1.2876 -6.47318 6
      vertex -1.91588 -6.31581 6
    endloop
  endfacet
  facet normal -0.242972 -0.970033 -0
    outer loop
      vertex -1.2876 -6.47318 6
      vertex -1.91588 -6.31581 0
      vertex -1.2876 -6.47318 0
    endloop
  endfacet
  facet normal -0.0490664 -0.998796 0
    outer loop
      vertex -0.646913 -6.56822 0
      vertex 0 -6.6 6
      vertex -0.646913 -6.56822 6
    endloop
  endfacet
  facet normal -0.0490664 -0.998796 -0
    outer loop
      vertex 0 -6.6 6
      vertex -0.646913 -6.56822 0
      vertex 0 -6.6 0
    endloop
  endfacet
  facet normal -0.857727 -0.514105 0
    outer loop
      vertex -5.4877 -3.66676 0
      vertex -5.82068 -3.11122 6
      vertex -5.82068 -3.11122 0
    endloop
  endfacet
  facet normal -0.857727 -0.514105 0
    outer loop
      vertex -5.82068 -3.11122 6
      vertex -5.4877 -3.66676 0
      vertex -5.4877 -3.66676 6
    endloop
  endfacet
  facet normal -0.74094 -0.671571 0
    outer loop
      vertex -4.6669 -4.6669 0
      vertex -5.10187 -4.187 6
      vertex -5.10187 -4.187 0
    endloop
  endfacet
  facet normal -0.74094 -0.671571 0
    outer loop
      vertex -5.10187 -4.187 6
      vertex -4.6669 -4.6669 0
      vertex -4.6669 -4.6669 6
    endloop
  endfacet
  facet normal 0.336903 -0.941539 0
    outer loop
      vertex 1.91588 -6.31581 0
      vertex 2.52571 -6.0976 6
      vertex 1.91588 -6.31581 6
    endloop
  endfacet
  facet normal 0.336903 -0.941539 0
    outer loop
      vertex 2.52571 -6.0976 6
      vertex 1.91588 -6.31581 0
      vertex 2.52571 -6.0976 0
    endloop
  endfacet
  facet normal -0.998795 -0.0490676 0
    outer loop
      vertex 5.9 0 2.199
      vertex 5.87159 0.5783 6
      vertex 5.87159 0.5783 2.199
    endloop
  endfacet
  facet normal -0.998795 -0.0490676 0
    outer loop
      vertex 5.87159 0.5783 6
      vertex 5.9 0 2.199
      vertex 5.9 0 6
    endloop
  endfacet
  facet normal 0.998795 -0.0490676 0
    outer loop
      vertex -5.9 0 6
      vertex -5.87159 0.5783 2.199
      vertex -5.87159 0.5783 6
    endloop
  endfacet
  facet normal 0.998795 -0.0490676 0
    outer loop
      vertex -5.87159 0.5783 2.199
      vertex -5.9 0 6
      vertex -5.9 0 2.199
    endloop
  endfacet
  facet normal 0.0490676 -0.998795 0
    outer loop
      vertex -0.5783 5.87159 2.199
      vertex 0 5.9 6
      vertex -0.5783 5.87159 6
    endloop
  endfacet
  facet normal 0.0490676 -0.998795 0
    outer loop
      vertex 0 5.9 6
      vertex -0.5783 5.87159 2.199
      vertex 0 5.9 2.199
    endloop
  endfacet
  facet normal -0.0490676 0.998795 0
    outer loop
      vertex 0.5783 -5.87159 2.199
      vertex 0 -5.9 6
      vertex 0.5783 -5.87159 6
    endloop
  endfacet
  facet normal -0.0490676 0.998795 0
    outer loop
      vertex 0 -5.9 6
      vertex 0.5783 -5.87159 2.199
      vertex 0 -5.9 2.199
    endloop
  endfacet
  facet normal -0.671557 -0.740953 0
    outer loop
      vertex 3.74292 4.56076 2.199
      vertex 4.17193 4.17193 6
      vertex 3.74292 4.56076 6
    endloop
  endfacet
  facet normal -0.671557 -0.740953 -0
    outer loop
      vertex 4.17193 4.17193 6
      vertex 3.74292 4.56076 2.199
      vertex 4.17193 4.17193 2.199
    endloop
  endfacet
  facet normal 0.740953 -0.671557 0
    outer loop
      vertex -4.56076 3.74292 6
      vertex -4.17193 4.17193 2.199
      vertex -4.17193 4.17193 6
    endloop
  endfacet
  facet normal 0.740953 -0.671557 0
    outer loop
      vertex -4.17193 4.17193 2.199
      vertex -4.56076 3.74292 6
      vertex -4.56076 3.74292 2.199
    endloop
  endfacet
  facet normal 0.427563 -0.903986 0
    outer loop
      vertex -2.78124 5.20333 2.199
      vertex -2.25783 5.45089 6
      vertex -2.78124 5.20333 6
    endloop
  endfacet
  facet normal 0.427563 -0.903986 0
    outer loop
      vertex -2.25783 5.45089 6
      vertex -2.78124 5.20333 2.199
      vertex -2.25783 5.45089 2.199
    endloop
  endfacet
  facet normal -0.903986 -0.427563 0
    outer loop
      vertex 5.45089 2.25783 2.199
      vertex 5.20333 2.78124 6
      vertex 5.20333 2.78124 2.199
    endloop
  endfacet
  facet normal -0.903986 -0.427563 0
    outer loop
      vertex 5.20333 2.78124 6
      vertex 5.45089 2.25783 2.199
      vertex 5.45089 2.25783 6
    endloop
  endfacet
  facet normal -0.336893 -0.941543 0
    outer loop
      vertex 1.71268 5.64595 2.199
      vertex 2.25783 5.45089 6
      vertex 1.71268 5.64595 6
    endloop
  endfacet
  facet normal -0.336893 -0.941543 -0
    outer loop
      vertex 2.25783 5.45089 6
      vertex 1.71268 5.64595 2.199
      vertex 2.25783 5.45089 2.199
    endloop
  endfacet
  facet normal -0.514099 -0.857731 0
    outer loop
      vertex 2.78124 5.20333 2.199
      vertex 3.27786 4.90567 6
      vertex 2.78124 5.20333 6
    endloop
  endfacet
  facet normal -0.514099 -0.857731 -0
    outer loop
      vertex 3.27786 4.90567 6
      vertex 2.78124 5.20333 2.199
      vertex 3.27786 4.90567 2.199
    endloop
  endfacet
  facet normal 0.903986 -0.427563 0
    outer loop
      vertex -5.45089 2.25783 6
      vertex -5.20333 2.78124 2.199
      vertex -5.20333 2.78124 6
    endloop
  endfacet
  facet normal 0.903986 -0.427563 0
    outer loop
      vertex -5.20333 2.78124 2.199
      vertex -5.45089 2.25783 6
      vertex -5.45089 2.25783 2.199
    endloop
  endfacet
  facet normal 0.857731 -0.514099 0
    outer loop
      vertex -5.20333 2.78124 6
      vertex -4.90567 3.27786 2.199
      vertex -4.90567 3.27786 6
    endloop
  endfacet
  facet normal 0.857731 -0.514099 0
    outer loop
      vertex -4.90567 3.27786 2.199
      vertex -5.20333 2.78124 6
      vertex -5.20333 2.78124 2.199
    endloop
  endfacet
  facet normal 0.24297 -0.970034 0
    outer loop
      vertex -1.71268 5.64595 2.199
      vertex -1.15103 5.78663 6
      vertex -1.71268 5.64595 6
    endloop
  endfacet
  facet normal 0.24297 -0.970034 0
    outer loop
      vertex -1.15103 5.78663 6
      vertex -1.71268 5.64595 2.199
      vertex -1.15103 5.78663 2.199
    endloop
  endfacet
  facet normal -0.336893 0.941543 0
    outer loop
      vertex 2.25783 -5.45089 2.199
      vertex 1.71268 -5.64595 6
      vertex 2.25783 -5.45089 6
    endloop
  endfacet
  facet normal -0.336893 0.941543 0
    outer loop
      vertex 1.71268 -5.64595 6
      vertex 2.25783 -5.45089 2.199
      vertex 1.71268 -5.64595 2.199
    endloop
  endfacet
  facet normal -0.970034 -0.24297 0
    outer loop
      vertex 5.78663 1.15103 2.199
      vertex 5.64595 1.71268 6
      vertex 5.64595 1.71268 2.199
    endloop
  endfacet
  facet normal -0.970034 -0.24297 0
    outer loop
      vertex 5.64595 1.71268 6
      vertex 5.78663 1.15103 2.199
      vertex 5.78663 1.15103 6
    endloop
  endfacet
  facet normal -0.989176 -0.146736 0
    outer loop
      vertex 5.87159 0.5783 2.199
      vertex 5.78663 1.15103 6
      vertex 5.78663 1.15103 2.199
    endloop
  endfacet
  facet normal -0.989176 -0.146736 0
    outer loop
      vertex 5.78663 1.15103 6
      vertex 5.87159 0.5783 2.199
      vertex 5.87159 0.5783 6
    endloop
  endfacet
  facet normal -0.941543 -0.336893 0
    outer loop
      vertex 5.64595 1.71268 2.199
      vertex 5.45089 2.25783 6
      vertex 5.45089 2.25783 2.199
    endloop
  endfacet
  facet normal -0.941543 -0.336893 0
    outer loop
      vertex 5.45089 2.25783 6
      vertex 5.64595 1.71268 2.199
      vertex 5.64595 1.71268 6
    endloop
  endfacet
  facet normal -0.803209 -0.595697 0
    outer loop
      vertex 4.90567 3.27786 2.199
      vertex 4.56076 3.74292 6
      vertex 4.56076 3.74292 2.199
    endloop
  endfacet
  facet normal -0.803209 -0.595697 0
    outer loop
      vertex 4.56076 3.74292 6
      vertex 4.90567 3.27786 2.199
      vertex 4.90567 3.27786 6
    endloop
  endfacet
  facet normal -0.740953 -0.671557 0
    outer loop
      vertex 4.56076 3.74292 2.199
      vertex 4.17193 4.17193 6
      vertex 4.17193 4.17193 2.199
    endloop
  endfacet
  facet normal -0.740953 -0.671557 0
    outer loop
      vertex 4.17193 4.17193 6
      vertex 4.56076 3.74292 2.199
      vertex 4.56076 3.74292 6
    endloop
  endfacet
  facet normal -0.146736 -0.989176 0
    outer loop
      vertex 0.5783 5.87159 2.199
      vertex 1.15103 5.78663 6
      vertex 0.5783 5.87159 6
    endloop
  endfacet
  facet normal -0.146736 -0.989176 -0
    outer loop
      vertex 1.15103 5.78663 6
      vertex 0.5783 5.87159 2.199
      vertex 1.15103 5.78663 2.199
    endloop
  endfacet
  facet normal -0.0490676 -0.998795 0
    outer loop
      vertex 0 5.9 2.199
      vertex 0.5783 5.87159 6
      vertex 0 5.9 6
    endloop
  endfacet
  facet normal -0.0490676 -0.998795 -0
    outer loop
      vertex 0.5783 5.87159 6
      vertex 0 5.9 2.199
      vertex 0.5783 5.87159 2.199
    endloop
  endfacet
  facet normal -0.595697 -0.803209 0
    outer loop
      vertex 3.27786 4.90567 2.199
      vertex 3.74292 4.56076 6
      vertex 3.27786 4.90567 6
    endloop
  endfacet
  facet normal -0.595697 -0.803209 -0
    outer loop
      vertex 3.74292 4.56076 6
      vertex 3.27786 4.90567 2.199
      vertex 3.74292 4.56076 2.199
    endloop
  endfacet
  facet normal 0.803209 -0.595697 0
    outer loop
      vertex -4.90567 3.27786 6
      vertex -4.56076 3.74292 2.199
      vertex -4.56076 3.74292 6
    endloop
  endfacet
  facet normal 0.803209 -0.595697 0
    outer loop
      vertex -4.56076 3.74292 2.199
      vertex -4.90567 3.27786 6
      vertex -4.90567 3.27786 2.199
    endloop
  endfacet
  facet normal 0.941543 -0.336893 0
    outer loop
      vertex -5.64595 1.71268 6
      vertex -5.45089 2.25783 2.199
      vertex -5.45089 2.25783 6
    endloop
  endfacet
  facet normal 0.941543 -0.336893 0
    outer loop
      vertex -5.45089 2.25783 2.199
      vertex -5.64595 1.71268 6
      vertex -5.64595 1.71268 2.199
    endloop
  endfacet
  facet normal 0.970034 -0.24297 0
    outer loop
      vertex -5.78663 1.15103 6
      vertex -5.64595 1.71268 2.199
      vertex -5.64595 1.71268 6
    endloop
  endfacet
  facet normal 0.970034 -0.24297 0
    outer loop
      vertex -5.64595 1.71268 2.199
      vertex -5.78663 1.15103 6
      vertex -5.78663 1.15103 2.199
    endloop
  endfacet
  facet normal 0.989176 -0.146736 0
    outer loop
      vertex -5.87159 0.5783 6
      vertex -5.78663 1.15103 2.199
      vertex -5.78663 1.15103 6
    endloop
  endfacet
  facet normal 0.989176 -0.146736 0
    outer loop
      vertex -5.78663 1.15103 2.199
      vertex -5.87159 0.5783 6
      vertex -5.87159 0.5783 2.199
    endloop
  endfacet
  facet normal 0.595697 -0.803209 0
    outer loop
      vertex -3.74292 4.56076 2.199
      vertex -3.27786 4.90567 6
      vertex -3.74292 4.56076 6
    endloop
  endfacet
  facet normal 0.595697 -0.803209 0
    outer loop
      vertex -3.27786 4.90567 6
      vertex -3.74292 4.56076 2.199
      vertex -3.27786 4.90567 2.199
    endloop
  endfacet
  facet normal 0.671557 -0.740953 0
    outer loop
      vertex -4.17193 4.17193 2.199
      vertex -3.74292 4.56076 6
      vertex -4.17193 4.17193 6
    endloop
  endfacet
  facet normal 0.671557 -0.740953 0
    outer loop
      vertex -3.74292 4.56076 6
      vertex -4.17193 4.17193 2.199
      vertex -3.74292 4.56076 2.199
    endloop
  endfacet
  facet normal 0.146736 -0.989176 0
    outer loop
      vertex -1.15103 5.78663 2.199
      vertex -0.5783 5.87159 6
      vertex -1.15103 5.78663 6
    endloop
  endfacet
  facet normal 0.146736 -0.989176 0
    outer loop
      vertex -0.5783 5.87159 6
      vertex -1.15103 5.78663 2.199
      vertex -0.5783 5.87159 2.199
    endloop
  endfacet
  facet normal -0.998795 0.0490676 0
    outer loop
      vertex 5.87159 -0.5783 2.199
      vertex 5.9 0 6
      vertex 5.9 0 2.199
    endloop
  endfacet
  facet normal -0.998795 0.0490676 0
    outer loop
      vertex 5.9 0 6
      vertex 5.87159 -0.5783 2.199
      vertex 5.87159 -0.5783 6
    endloop
  endfacet
  facet normal -0.740953 0.671557 0
    outer loop
      vertex 4.17193 -4.17193 2.199
      vertex 4.56076 -3.74292 6
      vertex 4.56076 -3.74292 2.199
    endloop
  endfacet
  facet normal -0.740953 0.671557 0
    outer loop
      vertex 4.56076 -3.74292 6
      vertex 4.17193 -4.17193 2.199
      vertex 4.17193 -4.17193 6
    endloop
  endfacet
  facet normal 0.903986 0.427563 0
    outer loop
      vertex -5.20333 -2.78124 6
      vertex -5.45089 -2.25783 2.199
      vertex -5.45089 -2.25783 6
    endloop
  endfacet
  facet normal 0.903986 0.427563 0
    outer loop
      vertex -5.45089 -2.25783 2.199
      vertex -5.20333 -2.78124 6
      vertex -5.20333 -2.78124 2.199
    endloop
  endfacet
  facet normal 0 0 1
    outer loop
      vertex 4.3 1.39 2.199
      vertex 5.9 0 2.199
      vertex 5.87159 0.5783 2.199
    endloop
  endfacet
  facet normal 0 0 1
    outer loop
      vertex 4.3 1.39 2.199
      vertex 5.87159 0.5783 2.199
      vertex 5.78663 1.15103 2.199
    endloop
  endfacet
  facet normal 0 0 1
    outer loop
      vertex 4.3 -1.39 2.199
      vertex 5.9 0 2.199
      vertex 4.3 1.39 2.199
    endloop
  endfacet
  facet normal -0 0 1
    outer loop
      vertex 4.3 1.39 2.199
      vertex 5.78663 1.15103 2.199
      vertex 5.64595 1.71268 2.199
    endloop
  endfacet
  facet normal 0 0 1
    outer loop
      vertex 5.9 0 2.199
      vertex 4.3 -1.39 2.199
      vertex 5.87159 -0.5783 2.199
    endloop
  endfacet
  facet normal 0 0 1
    outer loop
      vertex 4.3 1.39 2.199
      vertex 5.64595 1.71268 2.199
      vertex 5.45089 2.25783 2.199
    endloop
  endfacet
  facet normal 0 0 1
    outer loop
      vertex 5.87159 -0.5783 2.199
      vertex 4.3 -1.39 2.199
      vertex 5.78663 -1.15103 2.199
    endloop
  endfacet
  facet normal 0 0 1
    outer loop
      vertex 4.3 1.39 2.199
      vertex 5.45089 2.25783 2.199
      vertex 5.20333 2.78124 2.199
    endloop
  endfacet
  facet normal 0 0 1
    outer loop
      vertex 5.78663 -1.15103 2.199
      vertex 4.3 -1.39 2.199
      vertex 5.64595 -1.71268 2.199
    endloop
  endfacet
  facet normal 0 0 1
    outer loop
      vertex 4.3 1.39 2.199
      vertex 5.20333 2.78124 2.199
      vertex 4.90567 3.27786 2.199
    endloop
  endfacet
  facet normal 0 0 1
    outer loop
      vertex 5.64595 -1.71268 2.199
      vertex 4.3 -1.39 2.199
      vertex 5.45089 -2.25783 2.199
    endloop
  endfacet
  facet normal 0 0 1
    outer loop
      vertex 4.3 1.39 2.199
      vertex 4.90567 3.27786 2.199
      vertex 4.56076 3.74292 2.199
    endloop
  endfacet
  facet normal 0 0 1
    outer loop
      vertex 5.45089 -2.25783 2.199
      vertex 4.3 -1.39 2.199
      vertex 5.20333 -2.78124 2.199
    endloop
  endfacet
  facet normal 0 0 1
    outer loop
      vertex 5.20333 -2.78124 2.199
      vertex 4.3 -1.39 2.199
      vertex 4.90567 -3.27786 2.199
    endloop
  endfacet
  facet normal 0 0 1
    outer loop
      vertex 4.17193 4.17193 2.199
      vertex 4.3 1.39 2.199
      vertex 4.56076 3.74292 2.199
    endloop
  endfacet
  facet normal 0 0 1
    outer loop
      vertex 3.74292 4.56076 2.199
      vertex 4.3 1.39 2.199
      vertex 4.17193 4.17193 2.199
    endloop
  endfacet
  facet normal 0 0 1
    outer loop
      vertex 3.27786 4.90567 2.199
      vertex 4.3 1.39 2.199
      vertex 3.74292 4.56076 2.199
    endloop
  endfacet
  facet normal 0 0 1
    outer loop
      vertex 2.78124 5.20333 2.199
      vertex 4.3 1.39 2.199
      vertex 3.27786 4.90567 2.199
    endloop
  endfacet
  facet normal 0 0 1
    outer loop
      vertex 2.25783 5.45089 2.199
      vertex 4.3 1.39 2.199
      vertex 2.78124 5.20333 2.199
    endloop
  endfacet
  facet normal 0 0 1
    outer loop
      vertex 1.71268 5.64595 2.199
      vertex 4.3 1.39 2.199
      vertex 2.25783 5.45089 2.199
    endloop
  endfacet
  facet normal 0 0 1
    outer loop
      vertex 1.15103 5.78663 2.199
      vertex 4.3 1.39 2.199
      vertex 1.71268 5.64595 2.199
    endloop
  endfacet
  facet normal 0 0 1
    outer loop
      vertex 0.5783 5.87159 2.199
      vertex 4.3 1.39 2.199
      vertex 1.15103 5.78663 2.199
    endloop
  endfacet
  facet normal 0 0 1
    outer loop
      vertex 0 5.9 2.199
      vertex 4.3 1.39 2.199
      vertex 0.5783 5.87159 2.199
    endloop
  endfacet
  facet normal 0 0 1
    outer loop
      vertex -4.3 1.39 2.199
      vertex 0 5.9 2.199
      vertex -0.5783 5.87159 2.199
    endloop
  endfacet
  facet normal 0 0 1
    outer loop
      vertex -4.3 1.39 2.199
      vertex -0.5783 5.87159 2.199
      vertex -1.15103 5.78663 2.199
    endloop
  endfacet
  facet normal 0 0 1
    outer loop
      vertex -4.3 1.39 2.199
      vertex -1.15103 5.78663 2.199
      vertex -1.71268 5.64595 2.199
    endloop
  endfacet
  facet normal 0 0 1
    outer loop
      vertex -4.3 1.39 2.199
      vertex -1.71268 5.64595 2.199
      vertex -2.25783 5.45089 2.199
    endloop
  endfacet
  facet normal 0 0 1
    outer loop
      vertex -4.3 1.39 2.199
      vertex -2.25783 5.45089 2.199
      vertex -2.78124 5.20333 2.199
    endloop
  endfacet
  facet normal 0 0 1
    outer loop
      vertex -4.3 1.39 2.199
      vertex -2.78124 5.20333 2.199
      vertex -3.27786 4.90567 2.199
    endloop
  endfacet
  facet normal 0 0 1
    outer loop
      vertex -4.3 1.39 2.199
      vertex -3.27786 4.90567 2.199
      vertex -3.74292 4.56076 2.199
    endloop
  endfacet
  facet normal 0 0 1
    outer loop
      vertex -4.3 1.39 2.199
      vertex -3.74292 4.56076 2.199
      vertex -4.17193 4.17193 2.199
    endloop
  endfacet
  facet normal 0 0 1
    outer loop
      vertex 0 5.9 2.199
      vertex -4.3 1.39 2.199
      vertex 4.3 1.39 2.199
    endloop
  endfacet
  facet normal -0 0 1
    outer loop
      vertex -4.90567 3.27786 2.199
      vertex -4.3 1.39 2.199
      vertex -4.56076 3.74292 2.199
    endloop
  endfacet
  facet normal -0 0 1
    outer loop
      vertex -4.56076 3.74292 2.199
      vertex -4.3 1.39 2.199
      vertex -4.17193 4.17193 2.199
    endloop
  endfacet
  facet normal 0 0 1
    outer loop
      vertex 4.90567 -3.27786 2.199
      vertex 4.3 -1.39 2.199
      vertex 4.56076 -3.74292 2.199
    endloop
  endfacet
  facet normal 0 0 1
    outer loop
      vertex 4.3 -1.39 2.199
      vertex 4.17193 -4.17193 2.199
      vertex 4.56076 -3.74292 2.199
    endloop
  endfacet
  facet normal 0 0 1
    outer loop
      vertex 4.3 -1.39 2.199
      vertex 3.74292 -4.56076 2.199
      vertex 4.17193 -4.17193 2.199
    endloop
  endfacet
  facet normal 0 0 1
    outer loop
      vertex 4.3 -1.39 2.199
      vertex 3.27786 -4.90567 2.199
      vertex 3.74292 -4.56076 2.199
    endloop
  endfacet
  facet normal 0 0 1
    outer loop
      vertex 4.3 -1.39 2.199
      vertex 2.78124 -5.20333 2.199
      vertex 3.27786 -4.90567 2.199
    endloop
  endfacet
  facet normal 0 0 1
    outer loop
      vertex 4.3 -1.39 2.199
      vertex 2.25783 -5.45089 2.199
      vertex 2.78124 -5.20333 2.199
    endloop
  endfacet
  facet normal 0 0 1
    outer loop
      vertex 4.3 -1.39 2.199
      vertex 1.71268 -5.64595 2.199
      vertex 2.25783 -5.45089 2.199
    endloop
  endfacet
  facet normal 0 0 1
    outer loop
      vertex 4.3 -1.39 2.199
      vertex 1.15103 -5.78663 2.199
      vertex 1.71268 -5.64595 2.199
    endloop
  endfacet
  facet normal 0 0 1
    outer loop
      vertex 4.3 -1.39 2.199
      vertex 0.5783 -5.87159 2.199
      vertex 1.15103 -5.78663 2.199
    endloop
  endfacet
  facet normal 0 0 1
    outer loop
      vertex 4.3 -1.39 2.199
      vertex 0 -5.9 2.199
      vertex 0.5783 -5.87159 2.199
    endloop
  endfacet
  facet normal -0 0 1
    outer loop
      vertex -4.3 -1.39 2.199
      vertex 0 -5.9 2.199
      vertex 4.3 -1.39 2.199
    endloop
  endfacet
  facet normal 0 0 1
    outer loop
      vertex 0 -5.9 2.199
      vertex -4.3 -1.39 2.199
      vertex -0.5783 -5.87159 2.199
    endloop
  endfacet
  facet normal 0 0 1
    outer loop
      vertex -0.5783 -5.87159 2.199
      vertex -4.3 -1.39 2.199
      vertex -1.15103 -5.78663 2.199
    endloop
  endfacet
  facet normal 0 0 1
    outer loop
      vertex -1.15103 -5.78663 2.199
      vertex -4.3 -1.39 2.199
      vertex -1.71268 -5.64595 2.199
    endloop
  endfacet
  facet normal 0 0 1
    outer loop
      vertex -1.71268 -5.64595 2.199
      vertex -4.3 -1.39 2.199
      vertex -2.25783 -5.45089 2.199
    endloop
  endfacet
  facet normal 0 0 1
    outer loop
      vertex -2.25783 -5.45089 2.199
      vertex -4.3 -1.39 2.199
      vertex -2.78124 -5.20333 2.199
    endloop
  endfacet
  facet normal 0 0 1
    outer loop
      vertex -2.78124 -5.20333 2.199
      vertex -4.3 -1.39 2.199
      vertex -3.27786 -4.90567 2.199
    endloop
  endfacet
  facet normal 0 0 1
    outer loop
      vertex -3.27786 -4.90567 2.199
      vertex -4.3 -1.39 2.199
      vertex -3.74292 -4.56076 2.199
    endloop
  endfacet
  facet normal 0 0 1
    outer loop
      vertex -3.74292 -4.56076 2.199
      vertex -4.3 -1.39 2.199
      vertex -4.17193 -4.17193 2.199
    endloop
  endfacet
  facet normal -0 0 1
    outer loop
      vertex -5.20333 2.78124 2.199
      vertex -4.3 1.39 2.199
      vertex -4.90567 3.27786 2.199
    endloop
  endfacet
  facet normal 0 0 1
    outer loop
      vertex -4.3 -1.39 2.199
      vertex -4.56076 -3.74292 2.199
      vertex -4.17193 -4.17193 2.199
    endloop
  endfacet
  facet normal -0 0 1
    outer loop
      vertex -5.45089 2.25783 2.199
      vertex -4.3 1.39 2.199
      vertex -5.20333 2.78124 2.199
    endloop
  endfacet
  facet normal 0 0 1
    outer loop
      vertex -4.3 -1.39 2.199
      vertex -4.90567 -3.27786 2.199
      vertex -4.56076 -3.74292 2.199
    endloop
  endfacet
  facet normal -0 0 1
    outer loop
      vertex -5.64595 1.71268 2.199
      vertex -4.3 1.39 2.199
      vertex -5.45089 2.25783 2.199
    endloop
  endfacet
  facet normal 0 0 1
    outer loop
      vertex -4.3 -1.39 2.199
      vertex -5.20333 -2.78124 2.199
      vertex -4.90567 -3.27786 2.199
    endloop
  endfacet
  facet normal 0 0 1
    outer loop
      vertex -5.78663 1.15103 2.199
      vertex -4.3 1.39 2.199
      vertex -5.64595 1.71268 2.199
    endloop
  endfacet
  facet normal 0 0 1
    outer loop
      vertex -4.3 -1.39 2.199
      vertex -5.45089 -2.25783 2.199
      vertex -5.20333 -2.78124 2.199
    endloop
  endfacet
  facet normal 0 0 1
    outer loop
      vertex -5.87159 0.5783 2.199
      vertex -4.3 1.39 2.199
      vertex -5.78663 1.15103 2.199
    endloop
  endfacet
  facet normal 0 0 1
    outer loop
      vertex -4.3 -1.39 2.199
      vertex -5.64595 -1.71268 2.199
      vertex -5.45089 -2.25783 2.199
    endloop
  endfacet
  facet normal 0 0 1
    outer loop
      vertex -5.9 0 2.199
      vertex -4.3 1.39 2.199
      vertex -5.87159 0.5783 2.199
    endloop
  endfacet
  facet normal 0 0 1
    outer loop
      vertex -4.3 -1.39 2.199
      vertex -5.78663 -1.15103 2.199
      vertex -5.64595 -1.71268 2.199
    endloop
  endfacet
  facet normal 0 0 1
    outer loop
      vertex -4.3 1.39 2.199
      vertex -5.9 0 2.199
      vertex -4.3 -1.39 2.199
    endloop
  endfacet
  facet normal 0 0 1
    outer loop
      vertex -4.3 -1.39 2.199
      vertex -5.87159 -0.5783 2.199
      vertex -5.78663 -1.15103 2.199
    endloop
  endfacet
  facet normal 0 0 1
    outer loop
      vertex -4.3 -1.39 2.199
      vertex -5.9 0 2.199
      vertex -5.87159 -0.5783 2.199
    endloop
  endfacet
  facet normal -0.427563 0.903986 0
    outer loop
      vertex 2.78124 -5.20333 2.199
      vertex 2.25783 -5.45089 6
      vertex 2.78124 -5.20333 6
    endloop
  endfacet
  facet normal -0.427563 0.903986 0
    outer loop
      vertex 2.25783 -5.45089 6
      vertex 2.78124 -5.20333 2.199
      vertex 2.25783 -5.45089 2.199
    endloop
  endfacet
  facet normal -0.857731 -0.514099 0
    outer loop
      vertex 5.20333 2.78124 2.199
      vertex 4.90567 3.27786 6
      vertex 4.90567 3.27786 2.199
    endloop
  endfacet
  facet normal -0.857731 -0.514099 0
    outer loop
      vertex 4.90567 3.27786 6
      vertex 5.20333 2.78124 2.199
      vertex 5.20333 2.78124 6
    endloop
  endfacet
  facet normal -0.24297 -0.970034 0
    outer loop
      vertex 1.15103 5.78663 2.199
      vertex 1.71268 5.64595 6
      vertex 1.15103 5.78663 6
    endloop
  endfacet
  facet normal -0.24297 -0.970034 -0
    outer loop
      vertex 1.71268 5.64595 6
      vertex 1.15103 5.78663 2.199
      vertex 1.71268 5.64595 2.199
    endloop
  endfacet
  facet normal -0.427563 -0.903986 0
    outer loop
      vertex 2.25783 5.45089 2.199
      vertex 2.78124 5.20333 6
      vertex 2.25783 5.45089 6
    endloop
  endfacet
  facet normal -0.427563 -0.903986 -0
    outer loop
      vertex 2.78124 5.20333 6
      vertex 2.25783 5.45089 2.199
      vertex 2.78124 5.20333 2.199
    endloop
  endfacet
  facet normal 0.514099 -0.857731 0
    outer loop
      vertex -3.27786 4.90567 2.199
      vertex -2.78124 5.20333 6
      vertex -3.27786 4.90567 6
    endloop
  endfacet
  facet normal 0.514099 -0.857731 0
    outer loop
      vertex -2.78124 5.20333 6
      vertex -3.27786 4.90567 2.199
      vertex -2.78124 5.20333 2.199
    endloop
  endfacet
  facet normal 0.336893 -0.941543 0
    outer loop
      vertex -2.25783 5.45089 2.199
      vertex -1.71268 5.64595 6
      vertex -2.25783 5.45089 6
    endloop
  endfacet
  facet normal 0.336893 -0.941543 0
    outer loop
      vertex -1.71268 5.64595 6
      vertex -2.25783 5.45089 2.199
      vertex -1.71268 5.64595 2.199
    endloop
  endfacet
  facet normal -0.970034 0.24297 0
    outer loop
      vertex 5.64595 -1.71268 2.199
      vertex 5.78663 -1.15103 6
      vertex 5.78663 -1.15103 2.199
    endloop
  endfacet
  facet normal -0.970034 0.24297 0
    outer loop
      vertex 5.78663 -1.15103 6
      vertex 5.64595 -1.71268 2.199
      vertex 5.64595 -1.71268 6
    endloop
  endfacet
  facet normal -0.671557 0.740953 0
    outer loop
      vertex 4.17193 -4.17193 2.199
      vertex 3.74292 -4.56076 6
      vertex 4.17193 -4.17193 6
    endloop
  endfacet
  facet normal -0.671557 0.740953 0
    outer loop
      vertex 3.74292 -4.56076 6
      vertex 4.17193 -4.17193 2.199
      vertex 3.74292 -4.56076 2.199
    endloop
  endfacet
  facet normal -0.903986 0.427563 0
    outer loop
      vertex 5.20333 -2.78124 2.199
      vertex 5.45089 -2.25783 6
      vertex 5.45089 -2.25783 2.199
    endloop
  endfacet
  facet normal -0.903986 0.427563 0
    outer loop
      vertex 5.45089 -2.25783 6
      vertex 5.20333 -2.78124 2.199
      vertex 5.20333 -2.78124 6
    endloop
  endfacet
  facet normal -0.803209 0.595697 0
    outer loop
      vertex 4.56076 -3.74292 2.199
      vertex 4.90567 -3.27786 6
      vertex 4.90567 -3.27786 2.199
    endloop
  endfacet
  facet normal -0.803209 0.595697 0
    outer loop
      vertex 4.90567 -3.27786 6
      vertex 4.56076 -3.74292 2.199
      vertex 4.56076 -3.74292 6
    endloop
  endfacet
  facet normal 0.336893 0.941543 -0
    outer loop
      vertex -1.71268 -5.64595 2.199
      vertex -2.25783 -5.45089 6
      vertex -1.71268 -5.64595 6
    endloop
  endfacet
  facet normal 0.336893 0.941543 0
    outer loop
      vertex -2.25783 -5.45089 6
      vertex -1.71268 -5.64595 2.199
      vertex -2.25783 -5.45089 2.199
    endloop
  endfacet
  facet normal 0.24297 0.970034 -0
    outer loop
      vertex -1.15103 -5.78663 2.199
      vertex -1.71268 -5.64595 6
      vertex -1.15103 -5.78663 6
    endloop
  endfacet
  facet normal 0.24297 0.970034 0
    outer loop
      vertex -1.71268 -5.64595 6
      vertex -1.15103 -5.78663 2.199
      vertex -1.71268 -5.64595 2.199
    endloop
  endfacet
  facet normal 0.740953 0.671557 0
    outer loop
      vertex -4.17193 -4.17193 6
      vertex -4.56076 -3.74292 2.199
      vertex -4.56076 -3.74292 6
    endloop
  endfacet
  facet normal 0.740953 0.671557 0
    outer loop
      vertex -4.56076 -3.74292 2.199
      vertex -4.17193 -4.17193 6
      vertex -4.17193 -4.17193 2.199
    endloop
  endfacet
  facet normal 0.998795 0.0490676 0
    outer loop
      vertex -5.87159 -0.5783 6
      vertex -5.9 0 2.199
      vertex -5.9 0 6
    endloop
  endfacet
  facet normal 0.998795 0.0490676 0
    outer loop
      vertex -5.9 0 2.199
      vertex -5.87159 -0.5783 6
      vertex -5.87159 -0.5783 2.199
    endloop
  endfacet
  facet normal -0.146736 0.989176 0
    outer loop
      vertex 1.15103 -5.78663 2.199
      vertex 0.5783 -5.87159 6
      vertex 1.15103 -5.78663 6
    endloop
  endfacet
  facet normal -0.146736 0.989176 0
    outer loop
      vertex 0.5783 -5.87159 6
      vertex 1.15103 -5.78663 2.199
      vertex 0.5783 -5.87159 2.199
    endloop
  endfacet
  facet normal -0.989176 0.146736 0
    outer loop
      vertex 5.78663 -1.15103 2.199
      vertex 5.87159 -0.5783 6
      vertex 5.87159 -0.5783 2.199
    endloop
  endfacet
  facet normal -0.989176 0.146736 0
    outer loop
      vertex 5.87159 -0.5783 6
      vertex 5.78663 -1.15103 2.199
      vertex 5.78663 -1.15103 6
    endloop
  endfacet
  facet normal -0.514099 0.857731 0
    outer loop
      vertex 3.27786 -4.90567 2.199
      vertex 2.78124 -5.20333 6
      vertex 3.27786 -4.90567 6
    endloop
  endfacet
  facet normal -0.514099 0.857731 0
    outer loop
      vertex 2.78124 -5.20333 6
      vertex 3.27786 -4.90567 2.199
      vertex 2.78124 -5.20333 2.199
    endloop
  endfacet
  facet normal -0.595697 0.803209 0
    outer loop
      vertex 3.74292 -4.56076 2.199
      vertex 3.27786 -4.90567 6
      vertex 3.74292 -4.56076 6
    endloop
  endfacet
  facet normal -0.595697 0.803209 0
    outer loop
      vertex 3.27786 -4.90567 6
      vertex 3.74292 -4.56076 2.199
      vertex 3.27786 -4.90567 2.199
    endloop
  endfacet
  facet normal -0.941543 0.336893 0
    outer loop
      vertex 5.45089 -2.25783 2.199
      vertex 5.64595 -1.71268 6
      vertex 5.64595 -1.71268 2.199
    endloop
  endfacet
  facet normal -0.941543 0.336893 0
    outer loop
      vertex 5.64595 -1.71268 6
      vertex 5.45089 -2.25783 2.199
      vertex 5.45089 -2.25783 6
    endloop
  endfacet
  facet normal -0.857731 0.514099 0
    outer loop
      vertex 4.90567 -3.27786 2.199
      vertex 5.20333 -2.78124 6
      vertex 5.20333 -2.78124 2.199
    endloop
  endfacet
  facet normal -0.857731 0.514099 0
    outer loop
      vertex 5.20333 -2.78124 6
      vertex 4.90567 -3.27786 2.199
      vertex 4.90567 -3.27786 6
    endloop
  endfacet
  facet normal 0.671557 0.740953 -0
    outer loop
      vertex -3.74292 -4.56076 2.199
      vertex -4.17193 -4.17193 6
      vertex -3.74292 -4.56076 6
    endloop
  endfacet
  facet normal 0.671557 0.740953 0
    outer loop
      vertex -4.17193 -4.17193 6
      vertex -3.74292 -4.56076 2.199
      vertex -4.17193 -4.17193 2.199
    endloop
  endfacet
  facet normal 0.857731 0.514099 0
    outer loop
      vertex -4.90567 -3.27786 6
      vertex -5.20333 -2.78124 2.199
      vertex -5.20333 -2.78124 6
    endloop
  endfacet
  facet normal 0.857731 0.514099 0
    outer loop
      vertex -5.20333 -2.78124 2.199
      vertex -4.90567 -3.27786 6
      vertex -4.90567 -3.27786 2.199
    endloop
  endfacet
  facet normal 0.941543 0.336893 0
    outer loop
      vertex -5.45089 -2.25783 6
      vertex -5.64595 -1.71268 2.199
      vertex -5.64595 -1.71268 6
    endloop
  endfacet
  facet normal 0.941543 0.336893 0
    outer loop
      vertex -5.64595 -1.71268 2.199
      vertex -5.45089 -2.25783 6
      vertex -5.45089 -2.25783 2.199
    endloop
  endfacet
  facet normal 0.989176 0.146736 0
    outer loop
      vertex -5.78663 -1.15103 6
      vertex -5.87159 -0.5783 2.199
      vertex -5.87159 -0.5783 6
    endloop
  endfacet
  facet normal 0.989176 0.146736 0
    outer loop
      vertex -5.87159 -0.5783 2.199
      vertex -5.78663 -1.15103 6
      vertex -5.78663 -1.15103 2.199
    endloop
  endfacet
  facet normal -0.24297 0.970034 0
    outer loop
      vertex 1.71268 -5.64595 2.199
      vertex 1.15103 -5.78663 6
      vertex 1.71268 -5.64595 6
    endloop
  endfacet
  facet normal -0.24297 0.970034 0
    outer loop
      vertex 1.15103 -5.78663 6
      vertex 1.71268 -5.64595 2.199
      vertex 1.15103 -5.78663 2.199
    endloop
  endfacet
  facet normal 0.595697 0.803209 -0
    outer loop
      vertex -3.27786 -4.90567 2.199
      vertex -3.74292 -4.56076 6
      vertex -3.27786 -4.90567 6
    endloop
  endfacet
  facet normal 0.595697 0.803209 0
    outer loop
      vertex -3.74292 -4.56076 6
      vertex -3.27786 -4.90567 2.199
      vertex -3.74292 -4.56076 2.199
    endloop
  endfacet
  facet normal 0.427563 0.903986 -0
    outer loop
      vertex -2.25783 -5.45089 2.199
      vertex -2.78124 -5.20333 6
      vertex -2.25783 -5.45089 6
    endloop
  endfacet
  facet normal 0.427563 0.903986 0
    outer loop
      vertex -2.78124 -5.20333 6
      vertex -2.25783 -5.45089 2.199
      vertex -2.78124 -5.20333 2.199
    endloop
  endfacet
  facet normal 0.514099 0.857731 -0
    outer loop
      vertex -2.78124 -5.20333 2.199
      vertex -3.27786 -4.90567 6
      vertex -2.78124 -5.20333 6
    endloop
  endfacet
  facet normal 0.514099 0.857731 0
    outer loop
      vertex -3.27786 -4.90567 6
      vertex -2.78124 -5.20333 2.199
      vertex -3.27786 -4.90567 2.199
    endloop
  endfacet
  facet normal 0.146736 0.989176 -0
    outer loop
      vertex -0.5783 -5.87159 2.199
      vertex -1.15103 -5.78663 6
      vertex -0.5783 -5.87159 6
    endloop
  endfacet
  facet normal 0.146736 0.989176 0
    outer loop
      vertex -1.15103 -5.78663 6
      vertex -0.5783 -5.87159 2.199
      vertex -1.15103 -5.78663 2.199
    endloop
  endfacet
  facet normal 0.0490676 0.998795 -0
    outer loop
      vertex 0 -5.9 2.199
      vertex -0.5783 -5.87159 6
      vertex 0 -5.9 6
    endloop
  endfacet
  facet normal 0.0490676 0.998795 0
    outer loop
      vertex -0.5783 -5.87159 6
      vertex 0 -5.9 2.199
      vertex -0.5783 -5.87159 2.199
    endloop
  endfacet
  facet normal 0.803209 0.595697 0
    outer loop
      vertex -4.56076 -3.74292 6
      vertex -4.90567 -3.27786 2.199
      vertex -4.90567 -3.27786 6
    endloop
  endfacet
  facet normal 0.803209 0.595697 0
    outer loop
      vertex -4.90567 -3.27786 2.199
      vertex -4.56076 -3.74292 6
      vertex -4.56076 -3.74292 2.199
    endloop
  endfacet
  facet normal 0.970034 0.24297 0
    outer loop
      vertex -5.64595 -1.71268 6
      vertex -5.78663 -1.15103 2.199
      vertex -5.78663 -1.15103 6
    endloop
  endfacet
  facet normal 0.970034 0.24297 0
    outer loop
      vertex -5.78663 -1.15103 2.199
      vertex -5.64595 -1.71268 6
      vertex -5.64595 -1.71268 2.199
    endloop
  endfacet
  facet normal 1 -0 0
    outer loop
      vertex -4.3 -1.39 2.199
      vertex -4.3 1.39 0
      vertex -4.3 1.39 2.199
    endloop
  endfacet
  facet normal 1 0 0
    outer loop
      vertex -4.3 1.39 0
      vertex -4.3 -1.39 2.199
      vertex -4.3 -1.39 0
    endloop
  endfacet
  facet normal -1 0 0
    outer loop
      vertex 4.3 -1.39 0
      vertex 4.3 1.39 2.199
      vertex 4.3 1.39 0
    endloop
  endfacet
  facet normal -1 -0 0
    outer loop
      vertex 4.3 1.39 2.199
      vertex 4.3 -1.39 0
      vertex 4.3 -1.39 2.199
    endloop
  endfacet
  facet normal 0 -1 0
    outer loop
      vertex -4.3 1.39 0
      vertex 4.3 1.39 2.199
      vertex -4.3 1.39 2.199
    endloop
  endfacet
  facet normal 0 -1 -0
    outer loop
      vertex 4.3 1.39 2.199
      vertex -4.3 1.39 0
      vertex 4.3 1.39 0
    endloop
  endfacet
  facet normal 0 1 -0
    outer loop
      vertex 4.3 -1.39 0
      vertex -4.3 -1.39 2.199
      vertex 4.3 -1.39 2.199
    endloop
  endfacet
  facet normal 0 1 0
    outer loop
      vertex -4.3 -1.39 2.199
      vertex 4.3 -1.39 0
      vertex -4.3 -1.39 0
    endloop
  endfacet
endsolid OpenSCAD_Model
